<svg width="40" height="40" viewBox="0 0 40 40" fill="none" xmlns="http://www.w3.org/2000/svg">
<g clip-path="url(#clip0)">
<path d="M38.1651 36.355H1.81783C0.8136 36.355 0 37.1686 0 38.1737C0 39.177 0.8136 39.9907 1.81783 39.9907H38.1643C39.1685 39.9907 39.9821 39.177 39.9821 38.1737C39.9813 37.1686 39.1677 36.355 38.1651 36.355Z" fill="#FBC766"/>
<path d="M4.08932 31.629C3.08508 31.629 2.27148 32.4426 2.27148 33.4469C2.27148 34.4511 3.08508 35.2656 4.08932 35.2656H35.8929C36.8971 35.2656 37.7107 34.4511 37.7107 33.4469C37.7107 32.4426 36.8971 31.629 35.8929 31.629H35.4393V15.2719H35.8929C36.3959 15.2719 36.801 14.8651 36.801 14.3639C36.801 13.8626 36.3942 13.4558 35.8929 13.4558H4.08932C3.5872 13.4558 3.18125 13.8626 3.18125 14.3639C3.18125 14.8651 3.58805 15.2719 4.08932 15.2719H4.54378V31.6282H4.08932V31.629ZM31.8036 15.2719V31.6282H26.3518V15.2719H31.8036ZM22.7162 15.2719V31.6282H17.2644V15.2719H22.7162ZM8.17774 15.2719H13.6295V31.6282H8.17774V15.2719Z" fill="#FBC766"/>
<path d="M1.81787 11.8219H38.1643C38.1703 11.8219 38.1771 11.8219 38.1822 11.8219C39.1873 11.8219 40 11.0083 40 10.004C40 9.20574 39.486 8.52916 38.772 8.28406L20.7383 0.169337C20.2643 -0.0434247 19.7222 -0.0434247 19.2473 0.169337L1.07235 8.34704C0.290241 8.69937 -0.139537 9.54871 0.0408847 10.3861C0.220455 11.2236 0.960865 11.8219 1.81787 11.8219Z" fill="#FBC766"/>
</g>
<defs>
<clipPath id="clip0">
<rect width="40" height="40" fill="white"/>
</clipPath>
</defs>
</svg>
