<svg width="80" height="80" viewBox="0 0 80 80" fill="none" xmlns="http://www.w3.org/2000/svg">
<path d="M76.3302 72.6914H3.63566C1.6272 72.6914 0 74.3186 0 76.3288C0 78.3355 1.6272 79.9627 3.63566 79.9627H76.3285C78.337 79.9627 79.9642 78.3355 79.9642 76.3288C79.9625 74.3186 78.3353 72.6914 76.3302 72.6914Z" fill="#0BB3F3"/>
<path d="M8.17863 63.2371C6.17017 63.2371 4.54297 64.8643 4.54297 66.8727C4.54297 68.8812 6.17017 70.5101 8.17863 70.5101H71.7857C73.7942 70.5101 75.4214 68.8812 75.4214 66.8727C75.4214 64.8643 73.7942 63.2371 71.7857 63.2371H70.8785V30.5229H71.7857C72.7917 30.5229 73.6019 29.7093 73.6019 28.7068C73.6019 27.7042 72.7883 26.8906 71.7857 26.8906H8.17863C7.1744 26.8906 6.3625 27.7042 6.3625 28.7068C6.3625 29.7093 7.1761 30.5229 8.17863 30.5229H9.08755V63.2354H8.17863V63.2371ZM63.6072 30.5229V63.2354H52.7036V30.5229H63.6072ZM45.4323 30.5229V63.2354H34.5287V30.5229H45.4323ZM16.3555 30.5229H27.2591V63.2354H16.3555V30.5229Z" fill="#0BB3F3"/>
<path d="M3.63573 23.6242H76.3286C76.3405 23.6242 76.3541 23.6242 76.3643 23.6242C78.3745 23.6242 80 21.997 80 19.9885C80 18.3919 78.9719 17.0388 77.5439 16.5486L41.4766 0.319142C40.5285 -0.106381 39.4443 -0.106381 38.4945 0.319142L2.1447 16.6745C0.580482 17.3792 -0.279074 19.0779 0.0817694 20.7527C0.44091 22.4276 1.92173 23.6242 3.63573 23.6242Z" fill="#0BB3F3"/>
</svg>
