<svg width="30" height="36" viewBox="0 0 30 36" fill="none" xmlns="http://www.w3.org/2000/svg">
<path d="M29.0685 25.3695C26.8005 23.4525 25.5 20.6505 25.5 17.682V13.5C25.5 8.2215 21.579 3.852 16.5 3.12V1.5C16.5 0.6705 15.828 0 15 0C14.172 0 13.5 0.6705 13.5 1.5V3.12C8.4195 3.852 4.5 8.2215 4.5 13.5V17.682C4.5 20.6505 3.1995 23.4525 0.918 25.3815C0.3345 25.881 0 26.607 0 27.375C0 28.8225 1.1775 30 2.625 30H27.375C28.8225 30 30 28.8225 30 27.375C30 26.607 29.6655 25.881 29.0685 25.3695Z" fill="#5F6062"/>
<path d="M15 36C17.7165 36 19.989 34.0635 20.511 31.5H9.48901C10.011 34.0635 12.2835 36 15 36Z" fill="#5F6062"/>
</svg>
