<svg width="80" height="80" viewBox="0 0 80 80" fill="none" xmlns="http://www.w3.org/2000/svg">
<path d="M16.4707 44.7061H21.1766V49.4119H16.4707V44.7061Z" fill="#0BB3F3"/>
<path d="M37.647 63.5283H42.3529V68.2342H37.647V63.5283Z" fill="#0BB3F3"/>
<path d="M16.4707 63.5283H21.1766V68.2342H16.4707V63.5283Z" fill="#0BB3F3"/>
<path d="M37.647 44.7061H42.3529V49.4119H37.647V44.7061Z" fill="#0BB3F3"/>
<path d="M0 80.0006H80V30.5889H0V80.0006ZM61.1765 37.1785C62.1587 38.0806 68.2353 42.8988 68.2353 47.0595C68.2353 50.9519 65.0689 54.1183 61.1765 54.1183C57.2841 54.1183 54.1176 50.9519 54.1176 47.0595C54.1176 43.0973 59.4896 38.7278 61.1765 37.1785ZM54.1176 58.8242H68.2353V72.9418H54.1176V58.8242ZM32.9412 40.0006H47.0588V54.1183H32.9412V40.0006ZM32.9412 58.8242H47.0588V72.9418H32.9412V58.8242ZM11.7647 40.0006H25.8824V54.1183H11.7647V40.0006ZM11.7647 58.8242H25.8824V72.9418H11.7647V58.8242Z" fill="#0BB3F3"/>
<path d="M58.8237 63.5283H63.5296V68.2342H58.8237V63.5283Z" fill="#0BB3F3"/>
<path d="M61.1763 49.4123C62.4725 49.4123 63.5272 48.3588 63.5293 47.0632C63.4945 46.457 62.4821 45.0125 61.1779 43.6045C59.8709 45.0166 58.8559 46.4636 58.8232 47.065C58.8234 48.357 59.8788 49.4123 61.1763 49.4123Z" fill="#0BB3F3"/>
<path d="M65.8824 9.41113V21.1758H56.4706V9.41113H23.5294V21.1758H14.1176V9.41113H0V25.8817H80V9.41113H65.8824Z" fill="#0BB3F3"/>
<path d="M14.1177 0H23.5294V9.41177H14.1177V0Z" fill="#0BB3F3"/>
<path d="M56.4707 0H65.8825V9.41177H56.4707V0Z" fill="#0BB3F3"/>
</svg>
