<svg width="24" height="25" viewBox="0 0 24 25" fill="none" xmlns="http://www.w3.org/2000/svg">
<path d="M8.67039 13.5409C8.67039 13.2335 8.421 12.9844 8.11329 12.9844H6.16922C5.86186 12.9844 5.61243 13.2335 5.61243 13.5409V15.4847C5.61243 15.7926 5.86186 16.0418 6.16922 16.0418H8.11329C8.421 16.0418 8.67039 15.7926 8.67039 15.4847V13.5409Z" fill="#0BB3F3"/>
<path d="M13.5288 13.5409C13.5288 13.2335 13.2794 12.9844 12.9723 12.9844H11.028C10.7206 12.9844 10.4712 13.2335 10.4712 13.5409V15.4847C10.4712 15.7926 10.7206 16.0418 11.028 16.0418H12.9723C13.2794 16.0418 13.5288 15.7926 13.5288 15.4847V13.5409Z" fill="#0BB3F3"/>
<path d="M18.3875 13.5409C18.3875 13.2335 18.1381 12.9844 17.8308 12.9844H15.8867C15.579 12.9844 15.3296 13.2335 15.3296 13.5409V15.4847C15.3296 15.7926 15.579 16.0418 15.8867 16.0418H17.8308C18.1381 16.0418 18.3875 15.7926 18.3875 15.4847V13.5409Z" fill="#0BB3F3"/>
<path d="M8.67039 18.3996C8.67039 18.0917 8.421 17.8428 8.11329 17.8428H6.16922C5.86186 17.8428 5.61243 18.0917 5.61243 18.3996V20.3431C5.61243 20.6507 5.86186 20.8999 6.16922 20.8999H8.11329C8.421 20.8999 8.67039 20.6507 8.67039 20.3431V18.3996Z" fill="#0BB3F3"/>
<path d="M13.5288 18.3996C13.5288 18.0917 13.2794 17.8428 12.9723 17.8428H11.028C10.7206 17.8428 10.4712 18.0917 10.4712 18.3996V20.3431C10.4712 20.6507 10.7206 20.8999 11.028 20.8999H12.9723C13.2794 20.8999 13.5288 20.6507 13.5288 20.3431V18.3996Z" fill="#0BB3F3"/>
<path d="M18.3875 18.3996C18.3875 18.0917 18.1381 17.8428 17.831 17.8428H15.8867C15.579 17.8428 15.3296 18.0917 15.3296 18.3996V20.3431C15.3296 20.6507 15.579 20.8999 15.8867 20.8999H17.831C18.1381 20.8999 18.3875 20.6507 18.3875 20.3431V18.3996Z" fill="#0BB3F3"/>
<path d="M21.8638 2.73283V5.70184C21.8638 7.04381 20.7751 8.12522 19.4333 8.12522H17.9002C16.5583 8.12522 15.4552 7.04381 15.4552 5.70184V2.72217H8.54478V5.70184C8.54478 7.04381 7.44174 8.12522 6.10008 8.12522H4.5666C3.22489 8.12522 2.13628 7.04381 2.13628 5.70184V2.73283C0.96361 2.76817 0 3.73852 0 4.93121V22.331C0 23.5462 0.984878 24.5441 2.19999 24.5441H21.8C23.0133 24.5441 24 23.5441 24 22.331V4.93121C24 3.73852 23.0364 2.76817 21.8638 2.73283ZM21.1517 21.2475C21.1517 21.7726 20.7259 22.1987 20.2006 22.1987H3.75755C3.23223 22.1987 2.80646 21.7726 2.80646 21.2475V12.2599C2.80646 11.7345 3.23218 11.3085 3.75755 11.3085H20.2005C20.7258 11.3085 21.1516 11.7345 21.1516 12.2599L21.1517 21.2475Z" fill="#0BB3F3"/>
<path d="M4.5612 6.53359H6.07773C6.53804 6.53359 6.91127 6.16092 6.91127 5.70061V0.833285C6.91127 0.372924 6.53804 0 6.07773 0H4.5612C4.10084 0 3.72766 0.372924 3.72766 0.833285V5.70061C3.72766 6.16092 4.10084 6.53359 4.5612 6.53359Z" fill="#0BB3F3"/>
<path d="M17.8807 6.53359H19.3973C19.8573 6.53359 20.2305 6.16092 20.2305 5.70061V0.833285C20.2305 0.372924 19.8573 0 19.3973 0H17.8807C17.4205 0 17.0472 0.372924 17.0472 0.833285V5.70061C17.0472 6.16092 17.4205 6.53359 17.8807 6.53359Z" fill="#0BB3F3"/>
</svg>
