<svg width="16" height="17" viewBox="0 0 16 17" fill="none" xmlns="http://www.w3.org/2000/svg">
<path d="M5.78034 9.02728C5.78034 8.82231 5.61408 8.65625 5.40894 8.65625H4.1129C3.90799 8.65625 3.7417 8.82231 3.7417 9.02728V10.3232C3.7417 10.5284 3.90799 10.6945 4.1129 10.6945H5.40894C5.61408 10.6945 5.78034 10.5284 5.78034 10.3232V9.02728Z" fill="#5F6062"/>
<path d="M9.0194 9.02728C9.0194 8.82231 8.8531 8.65625 8.64837 8.65625H7.35216C7.14725 8.65625 6.98096 8.82231 6.98096 9.02728V10.3232C6.98096 10.5284 7.14725 10.6945 7.35216 10.6945H8.64837C8.8531 10.6945 9.0194 10.5284 9.0194 10.3232V9.02728Z" fill="#5F6062"/>
<path d="M12.2584 9.02728C12.2584 8.82231 12.0921 8.65625 11.8872 8.65625H10.5911C10.386 8.65625 10.2197 8.82231 10.2197 9.02728V10.3232C10.2197 10.5284 10.386 10.6945 10.5911 10.6945H11.8872C12.0921 10.6945 12.2584 10.5284 12.2584 10.3232V9.02728Z" fill="#5F6062"/>
<path d="M5.78034 12.2667C5.78034 12.0614 5.61408 11.8955 5.40894 11.8955H4.1129C3.90799 11.8955 3.7417 12.0614 3.7417 12.2667V13.5624C3.7417 13.7675 3.90799 13.9336 4.1129 13.9336H5.40894C5.61408 13.9336 5.78034 13.7675 5.78034 13.5624V12.2667Z" fill="#5F6062"/>
<path d="M9.0194 12.2667C9.0194 12.0614 8.8531 11.8955 8.64837 11.8955H7.35216C7.14725 11.8955 6.98096 12.0614 6.98096 12.2667V13.5624C6.98096 13.7675 7.14725 13.9336 7.35216 13.9336H8.64837C8.8531 13.9336 9.0194 13.7675 9.0194 13.5624V12.2667Z" fill="#5F6062"/>
<path d="M12.2584 12.2667C12.2584 12.0614 12.0921 11.8955 11.8873 11.8955H10.5911C10.386 11.8955 10.2197 12.0614 10.2197 12.2667V13.5624C10.2197 13.7675 10.386 13.9336 10.5911 13.9336H11.8873C12.0921 13.9336 12.2584 13.7675 12.2584 13.5624V12.2667Z" fill="#5F6062"/>
<path d="M14.5758 1.82351V3.80286C14.5758 4.6975 13.8501 5.41844 12.9556 5.41844H11.9334C11.0389 5.41844 10.3035 4.6975 10.3035 3.80286V1.81641H5.69652V3.80286C5.69652 4.6975 4.96116 5.41844 4.06672 5.41844H3.0444C2.14993 5.41844 1.42419 4.6975 1.42419 3.80286V1.82351C0.642407 1.84708 0 2.49398 0 3.2891V14.889C0 15.6991 0.656586 16.3644 1.46666 16.3644H14.5333C15.3422 16.3644 16 15.6977 16 14.889V3.2891C16 2.49398 15.3576 1.84708 14.5758 1.82351ZM14.1011 14.1666C14.1011 14.5167 13.8173 14.8007 13.467 14.8007H2.50503C2.15482 14.8007 1.87097 14.5167 1.87097 14.1666V8.17488C1.87097 7.82466 2.15479 7.54065 2.50503 7.54065H13.467C13.8172 7.54065 14.1011 7.82466 14.1011 8.17488L14.1011 14.1666Z" fill="#5F6062"/>
<path d="M3.04104 4.35573H4.05207C4.35894 4.35573 4.60776 4.10728 4.60776 3.80041V0.555524C4.60776 0.248616 4.35894 0 4.05207 0H3.04104C2.73414 0 2.48535 0.248616 2.48535 0.555524V3.80041C2.48535 4.10728 2.73414 4.35573 3.04104 4.35573Z" fill="#5F6062"/>
<path d="M11.9204 4.35573H12.9314C13.2381 4.35573 13.4869 4.10728 13.4869 3.80041V0.555524C13.487 0.248616 13.2381 0 12.9314 0H11.9204C11.6136 0 11.3647 0.248616 11.3647 0.555524V3.80041C11.3647 4.10728 11.6136 4.35573 11.9204 4.35573Z" fill="#5F6062"/>
</svg>
