<svg width="28" height="28" viewBox="0 0 28 28" fill="none" xmlns="http://www.w3.org/2000/svg">
<circle cx="14" cy="14" r="13" fill="url(#paint0_linear)" stroke="white" stroke-width="2"/>
<path d="M14.0005 15.8666C15.0314 15.8666 15.8671 15.0309 15.8671 14C15.8671 12.969 15.0314 12.1333 14.0005 12.1333C12.9695 12.1333 12.1338 12.969 12.1338 14C12.1338 15.0309 12.9695 15.8666 14.0005 15.8666Z" fill="#F1F2F7"/>
<path d="M12.2503 8.16675L11.1828 9.33341H9.33366C8.69199 9.33341 8.16699 9.85841 8.16699 10.5001V17.5001C8.16699 18.1417 8.69199 18.6667 9.33366 18.6667H18.667C19.3087 18.6667 19.8337 18.1417 19.8337 17.5001V10.5001C19.8337 9.85841 19.3087 9.33341 18.667 9.33341H16.8178L15.7503 8.16675H12.2503ZM14.0003 16.9167C12.3903 16.9167 11.0837 15.6101 11.0837 14.0001C11.0837 12.3901 12.3903 11.0834 14.0003 11.0834C15.6103 11.0834 16.917 12.3901 16.917 14.0001C16.917 15.6101 15.6103 16.9167 14.0003 16.9167Z" fill="#F1F2F7"/>
<defs>
<linearGradient id="paint0_linear" x1="14" y1="0" x2="14" y2="28" gradientUnits="userSpaceOnUse">
<stop stop-color="#0BB3F3"/>
<stop offset="1" stop-color="#037CC4"/>
</linearGradient>
</defs>
</svg>
