<svg width="80" height="55" viewBox="0 0 80 55" fill="none" xmlns="http://www.w3.org/2000/svg">
<path d="M80 12.9688V8.75C80 3.9175 76.0825 0 71.25 0H8.75C3.9175 0 0 3.9175 0 8.75V12.9688C0 13.4002 0.349844 13.75 0.78125 13.75H79.2188C79.6502 13.75 80 13.4002 80 12.9688Z" fill="#0BB3F3"/>
<path d="M0 19.5312V46.25C0 51.0825 3.9175 55 8.75 55H71.25C76.0825 55 80 51.0825 80 46.25V19.5312C80 19.0998 79.6502 18.75 79.2188 18.75H0.78125C0.349844 18.75 0 19.0998 0 19.5312ZM20 40C20 41.3806 18.8806 42.5 17.5 42.5H15C13.6194 42.5 12.5 41.3806 12.5 40V37.5C12.5 36.1194 13.6194 35 15 35H17.5C18.8806 35 20 36.1194 20 37.5V40Z" fill="#0BB3F3"/>
</svg>
