<svg width="40" height="33" viewBox="0 0 40 33" fill="none" xmlns="http://www.w3.org/2000/svg">
<path d="M37.6193 23.2803L39.9643 8.30771C40.2081 6.78834 39.1743 5.35874 37.6548 5.1142L6.01339 0.0356197C4.49402 -0.208208 3.06449 0.825618 2.82066 2.34499L1.69629 9.34709V23.1932L37.6193 23.2803Z" fill="#146AA8"/>
<path d="M37.655 5.11415L28.6681 3.67212C22.6323 12.9076 12.8749 19.3044 5.39209 23.2022L37.6194 23.2802L39.9644 8.30766C40.2082 6.78821 39.1744 5.35868 37.655 5.11415Z" fill="#126099"/>
<path d="M2.78664 8.65039H34.8328C36.3717 8.65039 37.6195 9.89812 37.6195 11.437V29.5501C37.6195 31.089 36.3717 32.3368 34.8328 32.3368H2.78664C1.24773 32.3367 0 31.089 0 29.5501V11.437C0 9.89812 1.24773 8.65039 2.78664 8.65039Z" fill="#4398D1"/>
<path d="M34.8329 8.65039H34.2755C27.6991 20.3257 15.4108 28.3344 7.90918 32.3367H34.8329C36.3718 32.3367 37.6195 31.0889 37.6195 29.55V11.437C37.6195 9.89812 36.3718 8.65039 34.8329 8.65039Z" fill="#3E8CC7"/>
<path d="M10.4497 12.1338H3.48315V17.7071H10.4497V12.1338Z" fill="#FDB62F"/>
<path d="M5.57315 14.2236H3.48315V15.6169H5.57315V14.2236Z" fill="#FD7B2F"/>
<path d="M10.4499 14.2236H8.35986V15.6169H10.4499V14.2236Z" fill="#FD7B2F"/>
<path d="M30.653 28.8535C32.5767 28.8535 34.1362 27.294 34.1362 25.3702C34.1362 23.4465 32.5767 21.887 30.653 21.887C28.7292 21.887 27.1697 23.4465 27.1697 25.3702C27.1697 27.294 28.7292 28.8535 30.653 28.8535Z" fill="#FDB62F"/>
<path d="M26.473 28.8535C28.3968 28.8535 29.9563 27.294 29.9563 25.3702C29.9563 23.4465 28.3968 21.887 26.473 21.887C24.5493 21.887 22.9897 23.4465 22.9897 25.3702C22.9897 27.294 24.5493 28.8535 26.473 28.8535Z" fill="#DE4C3C"/>
<path d="M6.96654 22.5835H2.78662V23.9768H6.96654V22.5835Z" fill="#87CED9"/>
<path d="M13.9331 22.5835H9.75317V23.9768H13.9331V22.5835Z" fill="#87CED9"/>
<path d="M20.8996 22.5835H16.7197V23.9768H20.8996V22.5835Z" fill="#87CED9"/>
<path d="M20.8997 26.7637H2.78662V28.157H20.8997V26.7637Z" fill="#87CED9"/>
<path d="M25.7763 12.1338H24.3831V14.9204H25.7763V12.1338Z" fill="#87CED9"/>
<path d="M28.563 12.1338H27.1697V14.9204H28.563V12.1338Z" fill="#87CED9"/>
<path d="M31.3496 12.1338H29.9563V14.9204H31.3496V12.1338Z" fill="#87CED9"/>
<path d="M34.1362 12.1338H32.7429V14.9204H34.1362V12.1338Z" fill="#87CED9"/>
</svg>
