<svg width="30" height="30" viewBox="0 0 30 30" fill="none" xmlns="http://www.w3.org/2000/svg">
<rect width="30" height="30" rx="3" fill="url(#paint0_linear)"/>
<path d="M5.89178 14.8053L5.89176 14.8054C4.979 15.7185 4.97897 17.2036 5.89178 18.1164L5.99784 18.0104L5.89178 18.1164L12.9571 25.1816C13.3979 25.6224 13.9864 25.8653 14.6124 25.8654H14.6124H14.6126C15.2388 25.8654 15.8272 25.6224 16.2682 25.1815L25.6455 15.804C25.7854 15.6641 25.8642 15.4742 25.8642 15.2762L25.8643 7.55053C25.8642 6.25949 24.8139 5.20937 23.5229 5.20937H15.7971C15.5992 5.20937 15.4093 5.28811 15.2694 5.42804L5.89178 14.8053ZM15.2126 24.126L15.2125 24.126C15.0537 24.2849 14.8412 24.3726 14.6126 24.3726C14.3838 24.3726 14.1714 24.2849 14.0126 24.1261L6.94726 17.061C6.61664 16.7303 6.6166 16.1916 6.94725 15.8608C6.94726 15.8608 6.94727 15.8608 6.94728 15.8608L16.1062 6.70218H23.5229C23.9906 6.70218 24.3715 7.08297 24.3715 7.55068L24.3714 14.9672L15.2126 24.126Z" fill="white" stroke="white" stroke-width="0.3"/>
<path d="M20.4575 8.74609C19.9569 8.74609 19.4863 8.94117 19.1324 9.29513C18.7784 9.64893 18.5835 10.1195 18.5835 10.6201C18.5835 11.1207 18.7784 11.5913 19.1324 11.9452C19.4863 12.2992 19.9569 12.4941 20.4575 12.4941C20.9579 12.4941 21.4285 12.2992 21.7825 11.9452C22.1364 11.5913 22.3314 11.1207 22.3314 10.6201C22.3314 10.1195 22.1364 9.64893 21.7826 9.29513C21.4287 8.94117 20.9581 8.74609 20.4575 8.74609ZM20.9391 11.1017C20.8105 11.2305 20.6394 11.3013 20.4575 11.3013C20.2755 11.3013 20.1045 11.2305 19.9759 11.1017C19.8471 10.9731 19.7763 10.802 19.7763 10.6201C19.7763 10.4382 19.8471 10.2671 19.9759 10.1385C20.1045 10.0097 20.2756 9.9389 20.4575 9.9389C20.6394 9.9389 20.8104 10.0097 20.9391 10.1385C21.0679 10.2671 21.1387 10.4382 21.1387 10.6201C21.1387 10.802 21.0677 10.9731 20.9391 11.1017Z" fill="white"/>
<defs>
<linearGradient id="paint0_linear" x1="15" y1="0" x2="15" y2="30" gradientUnits="userSpaceOnUse">
<stop stop-color="#0BB3F3"/>
<stop offset="1" stop-color="#037CC4"/>
</linearGradient>
</defs>
</svg>
