<svg width="50" height="46" viewBox="0 0 50 46" fill="none" xmlns="http://www.w3.org/2000/svg">
<path d="M43.1259 0H6.87408C3.0838 0 0 3.08319 0 6.87408V29.0594C0 32.8418 3.07037 35.9201 6.84967 35.9335V46.001L21.3177 35.9335H43.1259C46.9162 35.9335 50 32.8497 50 29.0594V6.87408C50 3.08319 46.9162 0 43.1259 0ZM47.0703 29.0594C47.0703 31.2341 45.3009 33.0038 43.1259 33.0038H20.3986L9.77936 40.3934V33.0038H6.87408C4.6991 33.0038 2.92969 31.2341 2.92969 29.0594V6.87408C2.92969 4.69879 4.6991 2.92969 6.87408 2.92969H43.1259C45.3009 2.92969 47.0703 4.69879 47.0703 6.87408V29.0594Z" fill="#0BB3F3"/>
<path d="M13.3823 10.3516H36.6178V13.2812H13.3823V10.3516Z" fill="#0BB3F3"/>
<path d="M13.3823 16.6016H36.6178V19.5312H13.3823V16.6016Z" fill="#0BB3F3"/>
<path d="M13.3823 22.8516H36.6178V25.7812H13.3823V22.8516Z" fill="#0BB3F3"/>
</svg>
