<svg width="30" height="30" viewBox="0 0 30 30" fill="none" xmlns="http://www.w3.org/2000/svg">
<rect width="30" height="30" rx="3" fill="url(#paint0_linear)"/>
<path d="M22.2572 5.87556H21.3029V4.28516H19.7125V5.87556H9.21589V4.28516H7.62549V5.87556H6.67125C5.35583 5.87556 4.28564 6.94574 4.28564 8.26116V22.2567C4.28564 23.5721 5.35583 24.6423 6.67125 24.6423H22.2572C23.5726 24.6423 24.6428 23.5721 24.6428 22.2567V8.26116C24.6428 6.94574 23.5726 5.87556 22.2572 5.87556ZM23.0524 22.2567C23.0524 22.6952 22.6957 23.0519 22.2572 23.0519H6.67125C6.23277 23.0519 5.87605 22.6952 5.87605 22.2567V11.76H23.0524V22.2567ZM23.0524 10.1696H5.87605V8.26116C5.87605 7.82269 6.23277 7.46596 6.67125 7.46596H7.62549V9.05636H9.21589V7.46596H19.7125V9.05636H21.3029V7.46596H22.2572C22.6957 7.46596 23.0524 7.82269 23.0524 8.26116V10.1696Z" fill="white"/>
<path d="M8.89777 13.4297H7.30737V15.0201H8.89777V13.4297Z" fill="white"/>
<path d="M12.0786 13.4297H10.4882V15.0201H12.0786V13.4297Z" fill="white"/>
<path d="M15.2595 13.4297H13.6691V15.0201H15.2595V13.4297Z" fill="white"/>
<path d="M18.4403 13.4297H16.8499V15.0201H18.4403V13.4297Z" fill="white"/>
<path d="M21.621 13.4297H20.0306V15.0201H21.621V13.4297Z" fill="white"/>
<path d="M8.89777 16.6172H7.30737V18.2076H8.89777V16.6172Z" fill="white"/>
<path d="M12.0786 16.6172H10.4882V18.2076H12.0786V16.6172Z" fill="white"/>
<path d="M15.2595 16.6172H13.6691V18.2076H15.2595V16.6172Z" fill="white"/>
<path d="M18.4403 16.6172H16.8499V18.2076H18.4403V16.6172Z" fill="white"/>
<path d="M8.89777 19.793H7.30737V21.3834H8.89777V19.793Z" fill="white"/>
<path d="M12.0786 19.793H10.4882V21.3834H12.0786V19.793Z" fill="white"/>
<path d="M15.2595 19.793H13.6691V21.3834H15.2595V19.793Z" fill="white"/>
<path d="M18.4403 19.793H16.8499V21.3834H18.4403V19.793Z" fill="white"/>
<path d="M21.621 16.6172H20.0306V18.2076H21.621V16.6172Z" fill="white"/>
<defs>
<linearGradient id="paint0_linear" x1="15" y1="0" x2="15" y2="30" gradientUnits="userSpaceOnUse">
<stop stop-color="#0BB3F3"/>
<stop offset="1" stop-color="#037CC4"/>
</linearGradient>
</defs>
</svg>
