<svg width="14" height="18" viewBox="0 0 14 18" fill="none" xmlns="http://www.w3.org/2000/svg">
<path d="M1.14654 5.13177V15.0778C1.14654 15.6656 1.3621 16.2177 1.73866 16.6138C2.11349 17.0111 2.63513 17.2365 3.18106 17.2375H10.8189C11.365 17.2365 11.8867 17.0111 12.2613 16.6138C12.6379 16.2177 12.8535 15.6656 12.8535 15.0778V5.13177C13.602 4.93308 14.0871 4.20991 13.9869 3.4418C13.8867 2.67385 13.2324 2.09938 12.4578 2.09923H10.391V1.59462C10.3933 1.17027 10.2256 0.762801 9.92515 0.463032C9.62475 0.16342 9.21665 -0.00341615 8.79231 5.30412e-05H5.20769C4.78335 -0.00341615 4.37525 0.16342 4.07485 0.463032C3.77445 0.762801 3.60666 1.17027 3.60903 1.59462V2.09923H1.54218C0.767607 2.09938 0.113351 2.67385 0.0130595 3.4418C-0.0870738 4.20991 0.397981 4.93308 1.14654 5.13177ZM10.8189 16.4301H3.18106C2.49085 16.4301 1.95391 15.8372 1.95391 15.0778V5.16725H12.0461V15.0778C12.0461 15.8372 11.5092 16.4301 10.8189 16.4301ZM4.4164 1.59462C4.41372 1.38442 4.49635 1.1821 4.64553 1.03371C4.79454 0.885326 4.99733 0.8038 5.20769 0.807427H8.79231C9.00267 0.8038 9.20546 0.885326 9.35447 1.03371C9.50365 1.18194 9.58628 1.38442 9.5836 1.59462V2.09923H4.4164V1.59462ZM1.54218 2.9066H12.4578C12.8591 2.9066 13.1845 3.23192 13.1845 3.63324C13.1845 4.03456 12.8591 4.35987 12.4578 4.35987H1.54218C1.14086 4.35987 0.815545 4.03456 0.815545 3.63324C0.815545 3.23192 1.14086 2.9066 1.54218 2.9066Z" fill="white"/>
</svg>
