<svg width="14" height="28" viewBox="0 0 14 28" fill="none" xmlns="http://www.w3.org/2000/svg">
<path d="M10.7577 12.2737C9.69743 11.6877 8.5702 11.2413 7.45413 10.7781C6.80681 10.5103 6.18739 10.1978 5.64051 9.76252C4.56351 8.90315 4.76998 7.50806 6.03114 6.95561C6.38828 6.79936 6.76217 6.74913 7.14163 6.72681C8.60368 6.64869 9.99319 6.91654 11.3157 7.5527C11.9742 7.87078 12.1919 7.77034 12.4151 7.08395C12.6494 6.35851 12.8448 5.6219 13.0624 4.89087C13.2075 4.3998 13.0289 4.07614 12.5657 3.86967C11.7175 3.49578 10.847 3.22793 9.93181 3.08284C8.73761 2.89869 8.73761 2.89311 8.73203 1.69333C8.72645 0.00248019 8.72645 0.00248016 7.03002 0.00248016C6.78449 0.00248016 6.53895 -0.0031002 6.29342 0.00248016C5.501 0.0248016 5.36708 0.16431 5.34475 0.962302C5.33359 1.31944 5.34476 1.67659 5.33918 2.03931C5.33359 3.09958 5.32801 3.08284 4.31239 3.45114C1.85703 4.344 0.339175 6.0181 0.177345 8.69668C0.0322553 11.0683 1.27109 12.6699 3.21864 13.8362C4.41842 14.5561 5.74654 14.9802 7.01886 15.5438C7.51551 15.7614 7.98984 16.0125 8.40279 16.3585C9.62489 17.3686 9.40167 19.0482 7.95078 19.6844C7.17511 20.0248 6.3548 20.1085 5.51217 20.0025C4.21194 19.8407 2.96752 19.5002 1.79565 18.892C1.10926 18.5348 0.908371 18.6297 0.673996 19.3719C0.473103 20.0136 0.294532 20.661 0.115961 21.3083C-0.123995 22.1788 -0.0347094 22.3853 0.796764 22.7927C1.85703 23.3061 2.98984 23.5683 4.14498 23.7525C5.049 23.8976 5.0769 23.9366 5.08806 24.8741C5.09364 25.2982 5.09364 25.7279 5.09922 26.152C5.1048 26.6877 5.3615 27.0002 5.91395 27.0114C6.53895 27.0226 7.16953 27.0226 7.79453 27.0058C8.30792 26.9947 8.5702 26.7157 8.5702 26.1967C8.5702 25.6163 8.5981 25.0304 8.57578 24.45C8.54788 23.8585 8.80458 23.5572 9.37377 23.4009C10.6852 23.0438 11.8012 22.3407 12.6606 21.2915C15.049 18.3898 14.1394 14.1431 10.7577 12.2737Z" fill="#0DB952"/>
</svg>
