<svg width="58" height="58" viewBox="0 0 58 58" fill="none" xmlns="http://www.w3.org/2000/svg">
<g filter="url(#filter0_d)">
<path d="M29 2C15.2144 2 4 13.2144 4 27C4 40.7856 15.2144 52 29 52C42.7856 52 54 40.7856 54 27C54 13.2144 42.7856 2 29 2Z" fill="url(#paint0_linear)"/>
<g clip-path="url(#clip0)">
<path d="M15.1113 29.2573V38.9969C15.1113 39.4284 15.4611 39.7782 15.8926 39.7782H40.9967C41.4282 39.7782 41.778 39.4284 41.778 38.9969V29.2573H15.1113ZM38.653 35.8719C38.653 36.3034 38.3032 36.6532 37.8717 36.6532H19.0176C18.5861 36.6532 18.2363 36.3034 18.2363 35.8719V31.6011C18.2363 31.1696 18.5861 30.8198 19.0176 30.8198H37.8717C38.3032 30.8198 38.653 31.1696 38.653 31.6011V35.8719Z" fill="white"/>
<path d="M19.7988 32.3823H37.0905V35.0907H19.7988V32.3823Z" fill="white"/>
<path d="M29.4451 20.2528C29.4793 20.0492 29.4933 19.564 28.9297 19.3267V20.9996C29.2227 20.8318 29.3977 20.5351 29.4451 20.2528Z" fill="white"/>
<path d="M27.8879 16.6479C27.729 16.7698 27.6414 16.9544 27.6112 17.1144C27.5696 17.3352 27.6223 17.5403 27.7455 17.6369C27.7889 17.6709 27.8367 17.7043 27.8879 17.7372V16.6479Z" fill="white"/>
<path d="M28.4445 24.5697C31.6086 24.5697 34.1737 22.0046 34.1737 18.8405C34.1737 15.6764 31.6086 13.1113 28.4445 13.1113C25.2804 13.1113 22.7153 15.6764 22.7153 18.8405C22.7153 22.0046 25.2804 24.5697 28.4445 24.5697ZM26.4737 20.9691C26.6312 20.7284 26.954 20.661 27.1947 20.8184C27.476 21.0024 27.6524 21.0823 27.8877 21.1154V18.9157C27.555 18.7633 27.3064 18.6165 27.1024 18.4565C26.6702 18.1175 26.4728 17.5293 26.5874 16.9215C26.7122 16.2591 27.1732 15.7321 27.7906 15.5461C27.8233 15.5363 27.8556 15.5273 27.8877 15.5187V15.1947C27.8877 14.9071 28.1209 14.6738 28.4086 14.6738C28.6962 14.6738 28.9294 14.9071 28.9294 15.1947V15.4617C29.435 15.5492 29.7925 15.7982 29.9656 15.9969C30.1546 16.2138 30.1318 16.5428 29.915 16.7317C29.6992 16.9196 29.3726 16.8983 29.1831 16.6846C29.1713 16.6725 29.0885 16.5928 28.9294 16.5342V18.2171C29.0218 18.2514 29.1142 18.2847 29.2049 18.3168C30.1204 18.6404 30.6297 19.4879 30.4721 20.4257C30.3495 21.1546 29.7948 21.8938 28.9294 22.1134V22.4863C28.9294 22.7739 28.6962 23.0072 28.4086 23.0072C28.1209 23.0072 27.8877 22.7739 27.8877 22.4863V22.1633C27.4672 22.127 27.1186 22.0134 26.6245 21.6901C26.3837 21.5326 26.3162 21.2098 26.4737 20.9691Z" fill="white"/>
<path d="M39.6546 21.979C39.5483 21.66 39.2497 21.4448 38.9135 21.4448H35.2553C34.7799 22.6838 33.976 23.7614 32.9504 24.5698H35.2156C35.647 24.5698 35.9968 24.9196 35.9968 25.3511C35.9968 25.7825 35.647 26.1323 35.2156 26.1323H21.6739C21.2425 26.1323 20.8927 25.7825 20.8927 25.3511C20.8927 24.9196 21.2425 24.5698 21.6739 24.5698H23.9391C22.9134 23.7614 22.1096 22.6838 21.6342 21.4448H17.976C17.6397 21.4448 17.3412 21.66 17.2349 21.979L15.3296 27.6948H41.56L39.6546 21.979Z" fill="white"/>
</g>
</g>
<defs>
<filter id="filter0_d" x="0" y="0" width="58" height="58" filterUnits="userSpaceOnUse" color-interpolation-filters="sRGB">
<feFlood flood-opacity="0" result="BackgroundImageFix"/>
<feColorMatrix in="SourceAlpha" type="matrix" values="0 0 0 0 0 0 0 0 0 0 0 0 0 0 0 0 0 0 127 0"/>
<feOffset dy="2"/>
<feGaussianBlur stdDeviation="2"/>
<feColorMatrix type="matrix" values="0 0 0 0 0 0 0 0 0 0 0 0 0 0 0 0 0 0 0.25 0"/>
<feBlend mode="normal" in2="BackgroundImageFix" result="effect1_dropShadow"/>
<feBlend mode="normal" in="SourceGraphic" in2="effect1_dropShadow" result="shape"/>
</filter>
<linearGradient id="paint0_linear" x1="29" y1="2" x2="29" y2="52" gradientUnits="userSpaceOnUse">
<stop stop-color="#0BB3F3"/>
<stop offset="1" stop-color="#037CC4"/>
</linearGradient>
<clipPath id="clip0">
<rect width="26.6667" height="26.6667" fill="white" transform="translate(15.1113 13.1113)"/>
</clipPath>
</defs>
</svg>
