<svg width="4" height="16" viewBox="0 0 4 16" fill="none" xmlns="http://www.w3.org/2000/svg">
<path d="M2 4C3.10457 4 4 3.10457 4 2C4 0.89543 3.10457 0 2 0C0.895431 0 0 0.89543 0 2C0 3.10457 0.895431 4 2 4Z" fill="#5F6062"/>
<path d="M2 9.80005C3.10457 9.80005 4 8.90462 4 7.80005C4 6.69548 3.10457 5.80005 2 5.80005C0.895431 5.80005 0 6.69548 0 7.80005C0 8.90462 0.895431 9.80005 2 9.80005Z" fill="#5F6062"/>
<path d="M2 15.5999C3.10457 15.5999 4 14.7044 4 13.5999C4 12.4953 3.10457 11.5999 2 11.5999C0.895431 11.5999 0 12.4953 0 13.5999C0 14.7044 0.895431 15.5999 2 15.5999Z" fill="#5F6062"/>
</svg>
