<svg width="27" height="6" viewBox="0 0 27 6" fill="none" xmlns="http://www.w3.org/2000/svg">
<path d="M6 3C6 1.34315 4.65685 -2.03558e-07 3 -1.31134e-07C1.34315 -5.87108e-08 -2.03558e-07 1.34315 -1.31134e-07 3C-5.87108e-08 4.65685 1.34315 6 3 6C4.65685 6 6 4.65685 6 3Z" fill="#5F6062"/>
<path d="M16.4998 3C16.4998 1.34315 15.1566 -2.03558e-07 13.4998 -1.31134e-07C11.8429 -5.87108e-08 10.4998 1.34315 10.4998 3C10.4998 4.65685 11.8429 6 13.4998 6C15.1566 6 16.4998 4.65685 16.4998 3Z" fill="#5F6062"/>
<path d="M26.9998 3C26.9998 1.34315 25.6566 -2.03558e-07 23.9998 -1.31134e-07C22.3429 -5.87108e-08 20.9998 1.34315 20.9998 3C20.9998 4.65685 22.3429 6 23.9998 6C25.6566 6 26.9998 4.65685 26.9998 3Z" fill="#5F6062"/>
</svg>
