<svg width="121" height="36" viewBox="0 0 121 36" fill="none" xmlns="http://www.w3.org/2000/svg">
<rect width="121" height="36" rx="2" fill="#0BB3F3"/>
<path d="M45.1221 18.5435C45.1221 20.311 44.6313 21.6636 43.6499 22.6011C42.6685 23.5337 41.2549 24 39.4092 24H36.4136V13.292H39.7241C41.4282 13.292 42.7539 13.751 43.7012 14.6689C44.6484 15.5869 45.1221 16.8784 45.1221 18.5435ZM43.2764 18.6021C43.2764 16.0386 42.0776 14.7568 39.6802 14.7568H38.1641V22.5278H39.4092C41.9873 22.5278 43.2764 21.2192 43.2764 18.6021ZM54.4312 19.9351C54.4312 21.2583 54.0918 22.291 53.4131 23.0332C52.7344 23.7754 51.7896 24.1465 50.5786 24.1465C49.8218 24.1465 49.1528 23.9756 48.5718 23.6338C47.9907 23.292 47.5439 22.8013 47.2314 22.1616C46.9189 21.522 46.7627 20.7798 46.7627 19.9351C46.7627 18.6216 47.0996 17.5962 47.7734 16.8589C48.4473 16.1216 49.397 15.7529 50.6226 15.7529C51.7944 15.7529 52.7222 16.1313 53.4058 16.8882C54.0894 17.6401 54.4312 18.6558 54.4312 19.9351ZM48.5352 19.9351C48.5352 21.8052 49.2261 22.7402 50.6079 22.7402C51.9751 22.7402 52.6587 21.8052 52.6587 19.9351C52.6587 18.0845 51.9702 17.1592 50.5933 17.1592C49.8706 17.1592 49.3457 17.3984 49.0186 17.877C48.6963 18.3555 48.5352 19.0415 48.5352 19.9351ZM63.0591 24L62.0117 20.2207C61.8848 19.8203 61.6553 18.8901 61.3232 17.4302H61.2573C60.9741 18.7485 60.7495 19.6836 60.5835 20.2354L59.5068 24H57.6025L55.332 15.8994H57.0898L58.1226 19.8911C58.3569 20.8774 58.5229 21.7222 58.6206 22.4253H58.6646C58.7134 22.0688 58.7866 21.6611 58.8843 21.2021C58.9868 20.7383 59.0747 20.3916 59.1479 20.1621L60.3784 15.8994H62.2681L63.4619 20.1621C63.5352 20.4014 63.6255 20.7676 63.7329 21.2607C63.8452 21.7539 63.9111 22.1372 63.9307 22.4106H63.9893C64.0625 21.8101 64.2334 20.9702 64.502 19.8911L65.5493 15.8994H67.2778L64.9927 24H63.0591ZM75.8032 24H74.0747V19.0195C74.0747 18.3945 73.9478 17.9282 73.6938 17.6206C73.4448 17.313 73.0469 17.1592 72.5 17.1592C71.7725 17.1592 71.2402 17.374 70.9033 17.8037C70.5664 18.2334 70.3979 18.9536 70.3979 19.9644V24H68.6768V15.8994H70.0244L70.2661 16.9614H70.354C70.5981 16.5757 70.9448 16.2778 71.394 16.0679C71.8433 15.8579 72.3413 15.7529 72.8882 15.7529C74.8315 15.7529 75.8032 16.7417 75.8032 18.7192V24ZM79.9194 24H78.1982V12.6035H79.9194V24ZM89.5728 19.9351C89.5728 21.2583 89.2334 22.291 88.5547 23.0332C87.876 23.7754 86.9312 24.1465 85.7202 24.1465C84.9634 24.1465 84.2944 23.9756 83.7134 23.6338C83.1323 23.292 82.6855 22.8013 82.373 22.1616C82.0605 21.522 81.9043 20.7798 81.9043 19.9351C81.9043 18.6216 82.2412 17.5962 82.915 16.8589C83.5889 16.1216 84.5386 15.7529 85.7642 15.7529C86.936 15.7529 87.8638 16.1313 88.5474 16.8882C89.231 17.6401 89.5728 18.6558 89.5728 19.9351ZM83.6768 19.9351C83.6768 21.8052 84.3677 22.7402 85.7495 22.7402C87.1167 22.7402 87.8003 21.8052 87.8003 19.9351C87.8003 18.0845 87.1118 17.1592 85.7349 17.1592C85.0122 17.1592 84.4873 17.3984 84.1602 17.877C83.8379 18.3555 83.6768 19.0415 83.6768 19.9351ZM96.626 24L96.2817 22.8721H96.2231C95.8325 23.3652 95.4395 23.7021 95.0439 23.8828C94.6484 24.0586 94.1406 24.1465 93.5205 24.1465C92.7246 24.1465 92.1021 23.9316 91.6528 23.502C91.2085 23.0723 90.9863 22.4644 90.9863 21.6782C90.9863 20.8433 91.2964 20.2134 91.9165 19.7886C92.5366 19.3638 93.4814 19.1318 94.751 19.0928L96.1499 19.0488V18.6167C96.1499 18.0991 96.0278 17.7134 95.7837 17.4595C95.5444 17.2007 95.1709 17.0713 94.6631 17.0713C94.248 17.0713 93.8501 17.1323 93.4692 17.2544C93.0884 17.3765 92.7222 17.5205 92.3706 17.6865L91.814 16.4561C92.2534 16.2266 92.7344 16.0532 93.2568 15.936C93.7793 15.814 94.2725 15.7529 94.7363 15.7529C95.7666 15.7529 96.543 15.9775 97.0654 16.4268C97.5928 16.876 97.8564 17.5815 97.8564 18.5435V24H96.626ZM94.0625 22.8281C94.6875 22.8281 95.188 22.6548 95.564 22.3081C95.9448 21.9565 96.1353 21.4658 96.1353 20.8359V20.1328L95.0952 20.1768C94.2847 20.2061 93.6938 20.3428 93.3228 20.5869C92.9565 20.8262 92.7734 21.1948 92.7734 21.6929C92.7734 22.0542 92.8809 22.335 93.0957 22.5352C93.3105 22.7305 93.6328 22.8281 94.0625 22.8281ZM102.991 24.1465C101.98 24.1465 101.191 23.7803 100.625 23.0479C100.059 22.3154 99.7754 21.2876 99.7754 19.9644C99.7754 18.6362 100.061 17.6035 100.632 16.8662C101.208 16.124 102.004 15.7529 103.02 15.7529C104.084 15.7529 104.895 16.146 105.452 16.9321H105.54C105.457 16.3511 105.415 15.8921 105.415 15.5552V12.6035H107.144V24H105.796L105.496 22.938H105.415C104.863 23.7437 104.055 24.1465 102.991 24.1465ZM103.452 22.7549C104.16 22.7549 104.675 22.5571 104.998 22.1616C105.32 21.7612 105.486 21.1143 105.496 20.2207V19.979C105.496 18.9585 105.33 18.2334 104.998 17.8037C104.666 17.374 104.146 17.1592 103.438 17.1592C102.832 17.1592 102.366 17.4058 102.039 17.8989C101.711 18.3872 101.548 19.0854 101.548 19.9937C101.548 20.8921 101.707 21.5781 102.024 22.0518C102.341 22.5205 102.817 22.7549 103.452 22.7549Z" fill="white"/>
<path d="M21 21.5C20.8463 21.5 20.6993 21.437 20.5935 21.326L16.656 17.201C16.3148 16.844 16.5683 16.25 17.0625 16.25H19.125V11.9375C19.125 11.4208 19.5458 11 20.0625 11H21.9375C22.4543 11 22.875 11.4208 22.875 11.9375V16.25H24.9375C25.4318 16.25 25.6853 16.844 25.344 17.201L21.4065 21.326C21.3008 21.437 21.1538 21.5 21 21.5Z" fill="white"/>
<path d="M28.6875 26H13.3125C12.5888 26 12 25.4113 12 24.6875V24.3125C12 23.5888 12.5888 23 13.3125 23H28.6875C29.4113 23 30 23.5888 30 24.3125V24.6875C30 25.4113 29.4113 26 28.6875 26Z" fill="white"/>
</svg>
