<svg width="16" height="16" viewBox="0 0 16 16" fill="none" xmlns="http://www.w3.org/2000/svg">
<path d="M14.1627 0.644005C13.3026 -0.214668 11.9096 -0.214668 11.0494 0.644005L10.2701 1.42761L1.9741 9.71917L1.95647 9.73694C1.9522 9.74121 1.9522 9.74575 1.94766 9.74575C1.93884 9.75898 1.92562 9.77206 1.91694 9.78528C1.91694 9.78969 1.9124 9.78969 1.9124 9.7941C1.90358 9.80732 1.89931 9.81614 1.89036 9.82936C1.88609 9.83377 1.88609 9.83804 1.88168 9.84258C1.87727 9.85581 1.87286 9.86462 1.86832 9.87784C1.86832 9.88211 1.86405 9.88211 1.86405 9.88666L0.0234238 15.4216C-0.0305705 15.5792 0.0104762 15.7537 0.129071 15.8707C0.212404 15.9529 0.3248 15.9989 0.441741 15.9985C0.489537 15.9977 0.53692 15.9902 0.58265 15.9764L6.11334 14.1314C6.11761 14.1314 6.11761 14.1314 6.12215 14.1271C6.13607 14.123 6.14943 14.1171 6.16169 14.1094C6.16513 14.109 6.16816 14.1074 6.17064 14.1051C6.18372 14.0963 6.20136 14.0873 6.21458 14.0785C6.22766 14.0698 6.24102 14.0566 6.25425 14.0478C6.25866 14.0433 6.26293 14.0433 6.26293 14.039C6.26747 14.0346 6.27629 14.0303 6.28069 14.0214L15.356 4.94605C16.2147 4.08586 16.2147 2.69289 15.356 1.83284L14.1627 0.644005ZM5.97243 13.0966L2.90771 10.032L10.5783 2.36135L13.6431 5.42594L5.97243 13.0966ZM2.47603 10.8466L5.15343 13.5238L1.13306 14.8624L2.47603 10.8466ZM14.7352 4.32952L14.2684 4.80073L11.2035 1.73587L11.6749 1.2648C12.1904 0.749652 13.0261 0.749652 13.5418 1.2648L14.7395 2.46245C15.2512 2.98036 15.2492 3.8141 14.7352 4.32952Z" fill="white"/>
</svg>
