<svg width="24" height="18" viewBox="0 0 24 18" fill="none" xmlns="http://www.w3.org/2000/svg">
<path d="M14.8287 6.1714C14.6337 5.9764 14.3166 5.9764 14.1216 6.1714C13.9266 6.3664 13.9266 6.68439 14.1216 6.87841C14.6877 7.44442 15.0006 8.19742 15.0006 8.99941C15.0006 10.6534 13.6546 11.9994 12.0006 11.9994C11.1987 11.9994 10.4456 11.6874 9.87963 11.1204C9.68463 10.9254 9.36762 10.9254 9.17262 11.1204C8.97762 11.3144 8.97762 11.6324 9.17262 11.8274C9.9266 12.5834 10.9316 12.9994 12.0006 12.9994C14.2066 12.9994 16.0006 11.2054 16.0006 8.99945C16.0006 7.93038 15.5847 6.92538 14.8287 6.1714Z" fill="#676767"/>
<path d="M12.697 5.06827C12.47 5.02828 12.238 4.99927 12 4.99927C9.794 4.99927 8 6.79326 8 8.99925C8 9.23723 8.02902 9.46926 8.06998 9.69623C8.11297 9.93824 8.324 10.1092 8.561 10.1092C8.59002 10.1092 8.61899 10.1072 8.64899 10.1012C8.91997 10.0532 9.10199 9.79321 9.05399 9.52223C9.023 9.35221 8.99999 9.17924 8.99999 8.99925C8.99999 7.34526 10.346 5.99925 12 5.99925C12.18 5.99925 12.353 6.02227 12.523 6.05227C12.789 6.10627 13.054 5.91825 13.102 5.64727C13.15 5.37628 12.968 5.11627 12.697 5.06827Z" fill="#676767"/>
<path d="M23.8811 8.67651C23.7681 8.54249 21.0631 5.38552 17.3321 3.45254C17.0901 3.32555 16.7851 3.42155 16.6581 3.66755C16.5311 3.91257 16.6271 4.21453 16.8731 4.34156C19.7471 5.82956 22.0431 8.15156 22.8281 8.99957C21.6361 10.2906 16.9451 14.9996 12.0001 14.9996C10.3222 14.9996 8.63114 14.5946 6.97214 13.7945C6.72614 13.6736 6.42516 13.7786 6.30516 14.0276C6.18418 14.2756 6.28918 14.5745 6.53818 14.6945C8.33316 15.5615 10.1712 15.9995 12.0002 15.9995C18.1612 15.9995 23.6512 9.59554 23.8822 9.32254C24.0401 9.13649 24.0391 8.86349 23.8811 8.67651Z" fill="#676767"/>
<path d="M15.2811 2.57527C14.1431 2.19225 13.0391 1.99927 12 1.99927C5.83904 1.99927 0.349052 8.40327 0.118052 8.67627C-0.0279632 8.84825 -0.0399632 9.09829 0.0900678 9.28527C0.159068 9.38427 1.81206 11.7312 4.67706 13.6343C4.76204 13.6913 4.85706 13.7183 4.95306 13.7183C5.11407 13.7183 5.27307 13.6403 5.36907 13.4933C5.52207 13.2643 5.45907 12.9533 5.22906 12.8013C3.12508 11.4023 1.68508 9.71328 1.14607 9.02629C2.29708 7.77627 7.01907 2.9993 12 2.9993C12.931 2.9993 13.9281 3.17531 14.962 3.52228C15.224 3.61626 15.508 3.47128 15.595 3.20827C15.6831 2.94628 15.543 2.6633 15.2811 2.57527Z" fill="#676767"/>
<path d="M20.8532 0.14625C20.6582 -0.0487499 20.3412 -0.0487499 20.1462 0.14625L3.14625 17.1462C2.95125 17.3412 2.95125 17.6582 3.14625 17.8532C3.24427 17.9502 3.37223 17.9993 3.50025 17.9993C3.62826 17.9993 3.75623 17.9503 3.85326 17.8532L20.8532 0.853264C21.0482 0.658264 21.0482 0.341249 20.8532 0.14625Z" fill="#676767"/>
</svg>
