<svg width="30" height="28" viewBox="0 0 30 28" fill="none" xmlns="http://www.w3.org/2000/svg">
<path d="M26.9308 17.3892L21.4069 19.2883C21.4314 19.1523 21.4452 19.0136 21.4452 18.8728C21.4452 17.5806 20.3939 16.5291 19.1014 16.5291H15.307C15.2063 16.5291 15.107 16.5032 15.0193 16.4538L11.9236 14.7127C11.3116 14.3677 10.616 14.1853 9.91223 14.1853H5.75846C5.51676 13.5035 4.86536 13.0137 4.10158 13.0137H0.58594C0.2623 13.0137 0 13.276 0 13.5996V24.1463C0 24.4699 0.2623 24.7322 0.58594 24.7322H4.10158C4.84797 24.7322 5.48792 24.2633 5.74198 23.6045C6.40528 23.6869 7.17273 23.8831 7.65498 24.1724L10.7193 26.011C11.8802 26.7077 13.2093 27.076 14.5634 27.076C15.6364 27.076 16.6759 26.8508 17.6535 26.4067L28.5898 21.5913C29.801 21.0999 30.3991 19.6467 29.7067 18.3659C29.1974 17.4233 28.0047 17.004 26.9308 17.3892ZM4.68752 22.9772C4.68615 23.299 4.42362 23.5604 4.10158 23.5604H1.17188V14.1856H4.10158C4.42453 14.1856 4.68752 14.4483 4.68752 14.7715V22.9772ZM28.1446 20.5075C28.1384 20.5098 28.1322 20.5126 28.126 20.5151C28.126 20.5151 17.1735 25.3376 17.1715 25.3386C16.3464 25.7139 15.4688 25.9041 14.5634 25.9041C13.4217 25.9041 12.3011 25.5938 11.3224 25.0062L8.25786 23.1676C7.60188 22.7741 6.66255 22.5343 5.8594 22.4381V15.3574H9.91223C10.4149 15.3574 10.9115 15.4874 11.3489 15.7339L14.4446 17.4751C14.7069 17.6229 15.0053 17.7012 15.307 17.7012H19.1014C19.7475 17.7012 20.2733 18.2267 20.2733 18.8731C20.2733 19.5169 19.7473 20.045 19.1014 20.045H13.145C12.8213 20.045 12.559 20.3073 12.559 20.6309C12.559 20.9543 12.8213 21.2166 13.145 21.2166H19.1014C19.4857 21.2166 19.8641 21.1212 20.1998 20.9422C20.1998 20.9422 27.3215 18.494 27.3243 18.4931C27.8493 18.3036 28.443 18.4922 28.6758 18.923C29.0249 19.5686 28.7362 20.2706 28.1446 20.5075Z" fill="#0BB3F3"/>
<path d="M17.0653 14.2122C17.1756 14.3077 17.3123 14.3553 17.4491 14.3553C17.586 14.3553 17.7229 14.3077 17.833 14.2122C22.6137 10.069 25.5708 7.97222 25.5708 4.71384C25.5708 2.13616 23.7459 0 21.1822 0C19.4986 0 18.2093 0.970463 17.3789 2.42684C16.5503 0.973667 15.2624 0 13.5762 0C11.6135 0 9.97269 1.2719 9.3959 3.24006C9.30481 3.55066 9.48288 3.87613 9.79347 3.96723C10.1041 4.05832 10.4295 3.88025 10.5204 3.56966C10.9473 2.11305 12.1466 1.17188 13.5762 1.17188C15.2477 1.17188 16.4203 2.65618 16.8142 4.03818C16.8845 4.29201 17.1157 4.46779 17.3789 4.46779C17.6423 4.46779 17.8733 4.29201 17.9435 4.03818C17.9515 4.00957 18.7654 1.17188 21.1822 1.17188C23.016 1.17188 24.3989 2.69441 24.3989 4.71384C24.3989 7.32036 21.851 9.19949 17.4487 12.9953C14.7664 10.6918 12.6357 9.0704 11.4247 7.48424C11.2283 7.22697 10.8608 7.17754 10.6035 7.37392C10.3462 7.5703 10.297 7.93788 10.4932 8.19538C11.8582 9.98318 14.1626 11.6961 17.0653 14.2122Z" fill="#0BB3F3"/>
<path d="M9.90235 5.16211C9.57893 5.16211 9.31641 5.42464 9.31641 5.74805C9.31641 6.07146 9.57893 6.33399 9.90235 6.33399C10.2258 6.33399 10.4883 6.07146 10.4883 5.74805C10.4883 5.42464 10.2258 5.16211 9.90235 5.16211Z" fill="#0BB3F3"/>
</svg>
