<svg width="30" height="30" viewBox="0 0 30 30" fill="none" xmlns="http://www.w3.org/2000/svg">
<path d="M17.6024 5.51798H23.0721C23.2662 5.51798 23.4236 5.67543 23.4236 5.86947V7.57157C23.4236 7.84646 23.7249 8.01497 23.9589 7.87114L29.8329 4.26098C30.0559 4.12396 30.0559 3.79971 29.8329 3.66269L23.9581 0.0525267C23.724 -0.0913011 23.4228 0.0772072 23.4228 0.352097V2.0542C23.4228 2.24824 23.2653 2.40569 23.0713 2.40569H17.6016C17.3684 2.40569 17.1794 2.59462 17.1794 2.82781V5.09671C17.1803 5.32905 17.3692 5.51798 17.6024 5.51798Z" fill="#0BB3F3"/>
<path d="M18.7214 19.4421C18.5683 19.1545 18.3785 18.8864 18.1521 18.6387C17.9266 18.3919 17.6644 18.1655 17.3674 17.9621C16.8313 17.5945 16.0364 17.2336 14.9368 16.86C13.8262 16.483 13.376 16.1639 13.2066 16.0081C13.0883 15.8975 12.93 15.6932 12.93 15.1979C12.93 14.7945 13.0373 14.506 13.2679 14.2899C13.5139 14.0584 13.89 13.946 14.4168 13.946C14.9036 13.946 15.2492 14.0805 15.5036 14.3681C15.7896 14.6933 15.9283 15.1554 15.9283 15.7809V16.1528C15.9283 16.54 16.244 16.8549 16.6313 16.8549H18.3861C18.7742 16.8549 19.0891 16.54 19.0891 16.1528V15.7809C19.0891 14.3988 18.7291 13.2669 18.0185 12.4167C17.484 11.7767 16.7887 11.3324 15.9504 11.0942V9.89757C15.9504 9.51034 15.6347 9.1946 15.2474 9.1946H13.6373C13.2492 9.1946 12.9343 9.51034 12.9343 9.89757V11.0814C12.1403 11.289 11.4662 11.6703 10.9292 12.2158C10.1599 12.9971 9.76923 14.0073 9.76923 15.2201C9.76923 16.3758 10.1275 17.3451 10.833 18.1009C11.4849 18.7987 12.5122 19.3604 13.9632 19.8157C15.1121 20.214 15.5598 20.5434 15.724 20.7042C15.9215 20.8974 16.0134 21.1442 16.0134 21.4804C16.0134 21.8591 15.8994 22.1187 15.6304 22.3468C15.3215 22.6097 14.9045 22.7374 14.3572 22.7374C13.7173 22.7374 13.256 22.5902 12.9454 22.2889C12.6432 21.9944 12.496 21.5663 12.496 20.9783V20.6072C12.496 20.22 12.1811 19.9042 11.7939 19.9042H10.0305C9.64327 19.9042 9.32753 20.22 9.32753 20.6072V20.9783C9.32753 22.3791 9.74455 23.5195 10.5667 24.368C11.1726 24.9935 11.9607 25.4174 12.9088 25.6276V26.6752C12.9088 27.0624 13.2245 27.3773 13.6117 27.3773H15.2134C15.6006 27.3782 15.9164 27.0624 15.9164 26.6752V25.602C16.7402 25.3986 17.4372 25.0216 17.9887 24.4803C18.781 23.7033 19.1827 22.688 19.1827 21.4634C19.1827 20.6991 19.0278 20.0191 18.7214 19.4421ZM17.3929 23.8727C16.9308 24.3255 16.3342 24.6369 15.6185 24.7978C15.2926 24.8718 15.0653 25.1535 15.0653 25.4829V26.5271H13.7598V25.5059C13.7598 25.174 13.5207 24.8837 13.1913 24.8174C12.3641 24.6506 11.6866 24.2999 11.1777 23.7757C10.5147 23.0914 10.1786 22.1502 10.1786 20.9783V20.7553H11.6458V20.9783C11.6458 21.808 11.8764 22.4361 12.3522 22.8991C12.8288 23.3629 13.4849 23.5884 14.3572 23.5884C15.1155 23.5884 15.7121 23.3944 16.1819 22.9953C16.6415 22.6046 16.8653 22.1093 16.8653 21.4804C16.8653 20.9161 16.6815 20.4506 16.3198 20.0966C15.9368 19.7213 15.2381 19.3562 14.2296 19.0072C12.9113 18.5945 12.0041 18.1077 11.4552 17.5204C10.902 16.9273 10.6211 16.1528 10.6211 15.2201C10.6211 14.2388 10.9292 13.4294 11.536 12.8133C11.9837 12.3588 12.5573 12.0456 13.2407 11.8814C13.5615 11.8048 13.7853 11.5239 13.7853 11.1988V10.0457H15.0994V11.2099C15.0994 11.529 15.3181 11.809 15.6313 11.8899C16.3419 12.0737 16.9249 12.4346 17.3649 12.9631C17.9444 13.6558 18.238 14.6039 18.238 15.7817V16.0047H16.7802V15.7817C16.7802 14.9401 16.5717 14.2933 16.1419 13.8056C15.7266 13.3341 15.1462 13.095 14.4168 13.095C13.6628 13.095 13.0968 13.2831 12.6858 13.6694C12.2832 14.0465 12.079 14.5605 12.079 15.1979C12.079 15.8115 12.2645 16.2941 12.6296 16.6328C13.0185 16.9919 13.7028 17.34 14.6628 17.6668C15.6883 18.0149 16.4151 18.3409 16.8866 18.6643C17.3649 18.9928 17.73 19.3885 17.97 19.8413C18.21 20.294 18.3317 20.8404 18.3317 21.4642C18.3317 22.4514 18.0159 23.2625 17.3929 23.8727ZM28.0847 28.9799H18.5895C22.7682 27.2675 25.7179 23.1561 25.7179 18.3681C25.7179 12.0473 20.5759 6.90527 14.2551 6.90527H0.425526C0.190636 6.90527 0 7.09506 0 7.3308C0 7.56569 0.190636 7.75633 0.425526 7.75633H9.92071C5.74205 9.46864 2.7923 13.5801 2.7923 18.3681C2.7923 24.6889 7.93436 29.8309 14.2551 29.8309H28.0847C28.3196 29.8309 28.5102 29.6411 28.5102 29.4054C28.5102 29.1705 28.3196 28.9799 28.0847 28.9799ZM3.64335 18.3681C3.64335 12.5163 8.40329 7.75633 14.2551 7.75633C20.107 7.75633 24.8669 12.5163 24.8669 18.3681C24.8669 24.2199 20.107 28.9799 14.2551 28.9799C8.40329 28.9799 3.64335 24.2199 3.64335 18.3681ZM18.1521 18.6387C17.9266 18.3919 17.6644 18.1655 17.3674 17.9621C16.8313 17.5945 16.0364 17.2336 14.9368 16.86C13.8262 16.483 13.376 16.1639 13.2066 16.0081C13.0883 15.8975 12.93 15.6932 12.93 15.1979C12.93 14.7945 13.0373 14.506 13.2679 14.2899C13.5139 14.0584 13.89 13.946 14.4168 13.946C14.9036 13.946 15.2492 14.0805 15.5036 14.3681C15.7896 14.6933 15.9283 15.1554 15.9283 15.7809V16.1528C15.9283 16.54 16.244 16.8549 16.6313 16.8549H18.3861C18.7742 16.8549 19.0891 16.54 19.0891 16.1528V15.7809C19.0891 14.3988 18.7291 13.2669 18.0185 12.4167C17.484 11.7767 16.7887 11.3324 15.9504 11.0942V9.89757C15.9504 9.51034 15.6347 9.1946 15.2474 9.1946H13.6373C13.2492 9.1946 12.9343 9.51034 12.9343 9.89757V11.0814C12.1403 11.289 11.4662 11.6703 10.9292 12.2158C10.1599 12.9971 9.76923 14.0073 9.76923 15.2201C9.76923 16.3758 10.1275 17.3451 10.833 18.1009C11.4849 18.7987 12.5122 19.3604 13.9632 19.8157C15.1121 20.214 15.5598 20.5434 15.724 20.7042C15.9215 20.8974 16.0134 21.1442 16.0134 21.4804C16.0134 21.8591 15.8994 22.1187 15.6304 22.3468C15.3215 22.6097 14.9045 22.7374 14.3572 22.7374C13.7173 22.7374 13.256 22.5902 12.9454 22.2889C12.6432 21.9944 12.496 21.5663 12.496 20.9783V20.6072C12.496 20.22 12.1811 19.9042 11.7939 19.9042H10.0305C9.64327 19.9042 9.32753 20.22 9.32753 20.6072V20.9783C9.32753 22.3791 9.74455 23.5195 10.5667 24.368C11.1726 24.9935 11.9607 25.4174 12.9088 25.6276V26.6752C12.9088 27.0624 13.2245 27.3773 13.6117 27.3773H15.2134C15.6006 27.3782 15.9164 27.0624 15.9164 26.6752V25.602C16.7402 25.3986 17.4372 25.0216 17.9887 24.4803C18.781 23.7033 19.1827 22.688 19.1827 21.4634C19.1827 20.6991 19.0278 20.0191 18.7214 19.4421C18.5683 19.1545 18.3785 18.8864 18.1521 18.6387ZM17.3929 23.8727C16.9308 24.3255 16.3342 24.6369 15.6185 24.7978C15.2926 24.8718 15.0653 25.1535 15.0653 25.4829V26.5271H13.7598V25.5059C13.7598 25.174 13.5207 24.8837 13.1913 24.8174C12.3641 24.6506 11.6866 24.2999 11.1777 23.7757C10.5147 23.0914 10.1786 22.1502 10.1786 20.9783V20.7553H11.6458V20.9783C11.6458 21.808 11.8764 22.4361 12.3522 22.8991C12.8288 23.3629 13.4849 23.5884 14.3572 23.5884C15.1155 23.5884 15.7121 23.3944 16.1819 22.9953C16.6415 22.6046 16.8653 22.1093 16.8653 21.4804C16.8653 20.9161 16.6815 20.4506 16.3198 20.0966C15.9368 19.7213 15.2381 19.3562 14.2296 19.0072C12.9113 18.5945 12.0041 18.1077 11.4552 17.5204C10.902 16.9273 10.6211 16.1528 10.6211 15.2201C10.6211 14.2388 10.9292 13.4294 11.536 12.8133C11.9837 12.3588 12.5573 12.0456 13.2407 11.8814C13.5615 11.8048 13.7853 11.5239 13.7853 11.1988V10.0457H15.0994V11.2099C15.0994 11.529 15.3181 11.809 15.6313 11.8899C16.3419 12.0737 16.9249 12.4346 17.3649 12.9631C17.9444 13.6558 18.238 14.6039 18.238 15.7817V16.0047H16.7802V15.7817C16.7802 14.9401 16.5717 14.2933 16.1419 13.8056C15.7266 13.3341 15.1462 13.095 14.4168 13.095C13.6628 13.095 13.0968 13.2831 12.6858 13.6694C12.2832 14.0465 12.079 14.5605 12.079 15.1979C12.079 15.8115 12.2645 16.2941 12.6296 16.6328C13.0185 16.9919 13.7028 17.34 14.6628 17.6668C15.6883 18.0149 16.4151 18.3409 16.8866 18.6643C17.3649 18.9928 17.73 19.3885 17.97 19.8413C18.21 20.294 18.3317 20.8404 18.3317 21.4642C18.3317 22.4514 18.0159 23.2625 17.3929 23.8727ZM18.7214 19.4421C18.5683 19.1545 18.3785 18.8864 18.1521 18.6387C17.9266 18.3919 17.6644 18.1655 17.3674 17.9621C16.8313 17.5945 16.0364 17.2336 14.9368 16.86C13.8262 16.483 13.376 16.1639 13.2066 16.0081C13.0883 15.8975 12.93 15.6932 12.93 15.1979C12.93 14.7945 13.0373 14.506 13.2679 14.2899C13.5139 14.0584 13.89 13.946 14.4168 13.946C14.9036 13.946 15.2492 14.0805 15.5036 14.3681C15.7896 14.6933 15.9283 15.1554 15.9283 15.7809V16.1528C15.9283 16.54 16.244 16.8549 16.6313 16.8549H18.3861C18.7742 16.8549 19.0891 16.54 19.0891 16.1528V15.7809C19.0891 14.3988 18.7291 13.2669 18.0185 12.4167C17.484 11.7767 16.7887 11.3324 15.9504 11.0942V9.89757C15.9504 9.51034 15.6347 9.1946 15.2474 9.1946H13.6373C13.2492 9.1946 12.9343 9.51034 12.9343 9.89757V11.0814C12.1403 11.289 11.4662 11.6703 10.9292 12.2158C10.1599 12.9971 9.76923 14.0073 9.76923 15.2201C9.76923 16.3758 10.1275 17.3451 10.833 18.1009C11.4849 18.7987 12.5122 19.3604 13.9632 19.8157C15.1121 20.214 15.5598 20.5434 15.724 20.7042C15.9215 20.8974 16.0134 21.1442 16.0134 21.4804C16.0134 21.8591 15.8994 22.1187 15.6304 22.3468C15.3215 22.6097 14.9045 22.7374 14.3572 22.7374C13.7173 22.7374 13.256 22.5902 12.9454 22.2889C12.6432 21.9944 12.496 21.5663 12.496 20.9783V20.6072C12.496 20.22 12.1811 19.9042 11.7939 19.9042H10.0305C9.64327 19.9042 9.32753 20.22 9.32753 20.6072V20.9783C9.32753 22.3791 9.74455 23.5195 10.5667 24.368C11.1726 24.9935 11.9607 25.4174 12.9088 25.6276V26.6752C12.9088 27.0624 13.2245 27.3773 13.6117 27.3773H15.2134C15.6006 27.3782 15.9164 27.0624 15.9164 26.6752V25.602C16.7402 25.3986 17.4372 25.0216 17.9887 24.4803C18.781 23.7033 19.1827 22.688 19.1827 21.4634C19.1827 20.6991 19.0278 20.0191 18.7214 19.4421ZM17.3929 23.8727C16.9308 24.3255 16.3342 24.6369 15.6185 24.7978C15.2926 24.8718 15.0653 25.1535 15.0653 25.4829V26.5271H13.7598V25.5059C13.7598 25.174 13.5207 24.8837 13.1913 24.8174C12.3641 24.6506 11.6866 24.2999 11.1777 23.7757C10.5147 23.0914 10.1786 22.1502 10.1786 20.9783V20.7553H11.6458V20.9783C11.6458 21.808 11.8764 22.4361 12.3522 22.8991C12.8288 23.3629 13.4849 23.5884 14.3572 23.5884C15.1155 23.5884 15.7121 23.3944 16.1819 22.9953C16.6415 22.6046 16.8653 22.1093 16.8653 21.4804C16.8653 20.9161 16.6815 20.4506 16.3198 20.0966C15.9368 19.7213 15.2381 19.3562 14.2296 19.0072C12.9113 18.5945 12.0041 18.1077 11.4552 17.5204C10.902 16.9273 10.6211 16.1528 10.6211 15.2201C10.6211 14.2388 10.9292 13.4294 11.536 12.8133C11.9837 12.3588 12.5573 12.0456 13.2407 11.8814C13.5615 11.8048 13.7853 11.5239 13.7853 11.1988V10.0457H15.0994V11.2099C15.0994 11.529 15.3181 11.809 15.6313 11.8899C16.3419 12.0737 16.9249 12.4346 17.3649 12.9631C17.9444 13.6558 18.238 14.6039 18.238 15.7817V16.0047H16.7802V15.7817C16.7802 14.9401 16.5717 14.2933 16.1419 13.8056C15.7266 13.3341 15.1462 13.095 14.4168 13.095C13.6628 13.095 13.0968 13.2831 12.6858 13.6694C12.2832 14.0465 12.079 14.5605 12.079 15.1979C12.079 15.8115 12.2645 16.2941 12.6296 16.6328C13.0185 16.9919 13.7028 17.34 14.6628 17.6668C15.6883 18.0149 16.4151 18.3409 16.8866 18.6643C17.3649 18.9928 17.73 19.3885 17.97 19.8413C18.21 20.294 18.3317 20.8404 18.3317 21.4642C18.3317 22.4514 18.0159 23.2625 17.3929 23.8727Z" fill="#0BB3F3"/>
<path d="M14.2551 7.75586C8.40324 7.75586 3.64331 12.5158 3.64331 18.3676C3.64331 24.2195 8.40324 28.9794 14.2551 28.9794C20.1069 28.9794 24.8668 24.2195 24.8668 18.3676C24.8668 12.5158 20.1069 7.75586 14.2551 7.75586ZM17.9886 24.4799C17.4372 25.0212 16.7402 25.3982 15.9163 25.6016V26.6747C15.9163 27.062 15.6006 27.3777 15.2134 27.3769H13.6117C13.2245 27.3769 12.9087 27.062 12.9087 26.6747V25.6271C11.9606 25.4169 11.1726 24.9931 10.5666 24.3675C9.7445 23.519 9.32749 22.3786 9.32749 20.9778V20.6067C9.32749 20.2195 9.64323 19.9038 10.0305 19.9038H11.7938C12.1811 19.9038 12.496 20.2195 12.496 20.6067V20.9778C12.496 21.5659 12.6432 21.994 12.9453 22.2884C13.2559 22.5897 13.7172 22.7369 14.3572 22.7369C14.9044 22.7369 15.3214 22.6093 15.6304 22.3463C15.8993 22.1182 16.0134 21.8586 16.0134 21.4799C16.0134 21.1438 15.9214 20.897 15.724 20.7038C15.5597 20.5429 15.1121 20.2136 13.9632 19.8153C12.5121 19.36 11.4849 18.7983 10.833 18.1004C10.1275 17.3447 9.76918 16.3753 9.76918 15.2196C9.76918 14.0068 10.1598 12.9966 10.9292 12.2154C11.4662 11.6698 12.1402 11.2886 12.9342 11.0809V9.89711C12.9342 9.50988 13.2491 9.19414 13.6372 9.19414H15.2474C15.6346 9.19414 15.9504 9.50988 15.9504 9.89711V11.0937C16.7887 11.332 17.484 11.7762 18.0184 12.4162C18.7291 13.2664 19.0891 14.3983 19.0891 15.7804V16.1523C19.0891 16.5396 18.7742 16.8545 18.3861 16.8545H16.6312C16.244 16.8545 15.9282 16.5396 15.9282 16.1523V15.7804C15.9282 15.1549 15.7895 14.6928 15.5036 14.3677C15.2491 14.08 14.9036 13.9456 14.4168 13.9456C13.89 13.9456 13.5138 14.0579 13.2679 14.2894C13.0372 14.5056 12.93 14.7941 12.93 15.1975C12.93 15.6928 13.0883 15.897 13.2066 16.0077C13.3759 16.1634 13.8261 16.4825 14.9368 16.8596C16.0363 17.2332 16.8312 17.594 17.3674 17.9617C17.6644 18.1651 17.9265 18.3915 18.152 18.6383C18.3784 18.8859 18.5682 19.154 18.7214 19.4417C19.0278 20.0187 19.1827 20.6987 19.1827 21.4629C19.1827 22.6876 18.781 23.7029 17.9886 24.4799Z" fill="#0BB3F3"/>
<path d="M0.765958 2.39258H15.1377C15.3258 2.39258 15.4781 2.54492 15.4781 2.733V5.17807C15.4781 5.36615 15.3258 5.51849 15.1377 5.51849H0.765958C0.577875 5.51849 0.425537 5.36615 0.425537 5.17807V2.733C0.425537 2.54492 0.577875 2.39258 0.765958 2.39258Z" fill="#0BB3F3"/>
</svg>
