<svg width="20" height="20" viewBox="0 0 20 20" fill="none" xmlns="http://www.w3.org/2000/svg">
<path d="M18.0983 1.90173C15.5627 -0.633909 11.437 -0.633909 8.90141 1.90173C7.23476 3.56838 6.62929 5.96983 7.21905 8.18258L0.190509 15.2111C0.068555 15.3331 0 15.4985 0 15.6709V19.3497C0 19.7089 0.291173 20 0.650315 20H4.32912C4.50158 20 4.66697 19.9315 4.78893 19.8095L5.70862 18.8899C5.83057 18.7679 5.89909 18.6025 5.89909 18.43V17.241H7.08816C7.26062 17.241 7.42601 17.1725 7.54796 17.0505L8.46769 16.1308C8.58965 16.0088 8.65816 15.8434 8.65816 15.671V14.4819H9.84723C10.0197 14.4819 10.1851 14.4133 10.307 14.2914L11.8174 12.7811C14.0303 13.3709 16.4316 12.7653 18.0982 11.0987C20.6339 8.56316 20.6339 4.4374 18.0983 1.90173ZM17.1787 10.179C15.7742 11.5835 13.7281 12.0629 11.8388 11.43C11.6049 11.3516 11.3468 11.4124 11.1724 11.5868L9.57797 13.1812H8.00796C7.64882 13.1812 7.35765 13.4723 7.35765 13.8315V15.4015L6.81886 15.9403H5.24885C4.88971 15.9403 4.59854 16.2314 4.59854 16.5906V18.1606L4.05982 18.6994H1.30067V15.9403L8.41324 8.82773C8.58765 8.65332 8.6484 8.39523 8.57004 8.16133C7.93718 6.27202 8.41656 4.22592 9.82106 2.82138C11.8496 0.792933 15.1501 0.792894 17.1787 2.82138C19.2072 4.8499 19.2072 8.15054 17.1787 10.179Z" fill="#5F6062"/>
<path d="M16.259 3.74119C15.2447 2.72689 13.5944 2.72689 12.5802 3.74119C11.5659 4.75546 11.5659 6.4057 12.5802 7.42C13.5944 8.43426 15.2447 8.4343 16.259 7.42C17.2732 6.40578 17.2732 4.7555 16.259 3.74119ZM15.3393 6.50027C14.8322 7.00734 14.007 7.00734 13.4998 6.50027C12.9927 5.99316 12.9927 5.168 13.4998 4.66085C14.007 4.15377 14.8321 4.15374 15.3393 4.66085C15.8464 5.168 15.8464 5.99316 15.3393 6.50027Z" fill="#5F6062"/>
</svg>
