<svg width="20" height="20" viewBox="0 0 20 20" fill="none" xmlns="http://www.w3.org/2000/svg">
<g clip-path="url(#clip0)">
<path d="M12.4999 10.8337C12.0391 10.8337 11.6666 11.2071 11.6666 11.667V15.0004C11.6666 15.4595 11.2932 15.8336 10.8332 15.8336H8.33319V3.33374C8.33319 2.62208 7.87986 1.98625 7.19826 1.74959L6.95153 1.66704H10.8332C11.2932 1.66704 11.6666 2.04118 11.6666 2.50047V5.00045C11.6666 5.46034 12.0391 5.83372 12.4999 5.83372C12.9607 5.83372 13.3331 5.46034 13.3331 5.00045V2.50047C13.3331 1.12215 12.2115 0.000488281 10.8332 0.000488281H1.87498C1.84324 0.000488281 1.81669 0.0146789 1.78587 0.0187987C1.74574 0.0154418 1.70744 0.000488281 1.6667 0.000488281C0.74752 0.000488281 0 0.747857 0 1.66704V16.6669C0 17.3786 0.453334 18.0144 1.13494 18.2511L6.14999 19.9228C6.31997 19.9753 6.48904 20.0003 6.66665 20.0003C7.58583 20.0003 8.33319 19.2528 8.33319 18.3336V17.5003H10.8332C12.2115 17.5003 13.3331 16.3787 13.3331 15.0004V11.667C13.3331 11.2071 12.9607 10.8337 12.4999 10.8337Z" fill="#0BB3F3"/>
<path d="M19.7557 7.74439L16.4223 4.41114C16.1841 4.1728 15.8257 4.10108 15.5141 4.23017C15.2033 4.35941 14.9999 4.66352 14.9999 5.00027V7.50025H11.6667C11.2066 7.50025 10.8333 7.87347 10.8333 8.33352C10.8333 8.79357 11.2066 9.1668 11.6667 9.1668H14.9999V11.6668C14.9999 12.0035 15.2033 12.3076 15.5141 12.4369C15.8257 12.566 16.1841 12.4942 16.4223 12.2561L19.7557 8.92266C20.0815 8.59689 20.0815 8.07016 19.7557 7.74439Z" fill="#0BB3F3"/>
</g>
<defs>
<clipPath id="clip0">
<rect width="20" height="20" fill="white"/>
</clipPath>
</defs>
</svg>
