<svg width="120" height="119" viewBox="0 0 120 119" fill="none" xmlns="http://www.w3.org/2000/svg">
<g clip-path="url(#clip0)">
<path d="M28.3806 80.7273H21.9065C14.6231 80.7273 8.72705 74.7583 8.72705 67.4563V31.526H15.1434C22.4268 31.526 28.3228 37.4371 28.3228 44.7391V80.7273H28.3806Z" fill="url(#paint0_linear)"/>
<path d="M56.5315 68.0937H49.2481C42.4272 68.0937 36.8779 62.5303 36.8779 55.6919V24.9773H44.1613C50.9823 24.9773 56.5315 30.5407 56.5315 37.3791V68.0937Z" fill="url(#paint1_linear)"/>
<path d="M91.6768 80.7272H98.0931C105.376 80.7272 111.273 74.8161 111.273 67.5142V31.5839H104.856C97.5728 31.5839 91.6768 37.495 91.6768 44.7969V80.7272Z" fill="url(#paint2_linear)"/>
<path d="M64.5664 68.1516H71.8498C78.6707 68.1516 84.22 62.5882 84.22 55.7499V25.0353H76.9366C70.1157 25.0353 64.5664 30.5987 64.5664 37.437V68.1516Z" fill="url(#paint3_linear)"/>
<path d="M60.6356 25.8466C67.7547 25.8466 73.526 20.0607 73.526 12.9233C73.526 5.78597 67.7547 0 60.6356 0C53.5164 0 47.7451 5.78597 47.7451 12.9233C47.7451 20.0607 53.5164 25.8466 60.6356 25.8466Z" fill="url(#paint4_linear)"/>
</g>
<g clip-path="url(#clip1)">
<path d="M2.16704 93.8181C2.50564 93.8181 2.84424 93.8874 3.18284 94.0954C3.52144 94.3033 3.79233 94.5112 3.99549 94.7885L12.3928 108.027L10.6321 107.888L19.2325 94.7192C19.7065 94.1647 20.2483 93.8181 20.9255 93.8181C21.4673 93.8181 21.9413 94.0261 22.4153 94.4419C22.8894 94.8578 23.0926 95.343 23.0926 95.9668V116.414C23.0926 117.038 22.8894 117.523 22.4831 117.939C22.1445 118.355 21.6027 118.562 20.9255 118.562C20.2483 118.562 19.7743 118.355 19.3679 117.939C18.9616 117.523 18.7585 117.038 18.7585 116.414V99.7789L20.1129 100.125L13.07 111.077C12.8668 111.354 12.5959 111.562 12.3251 111.77C12.0542 111.978 11.6479 112.047 11.377 112.047C11.1061 112.047 10.7675 111.978 10.4289 111.77C10.158 111.562 9.88713 111.354 9.68397 111.077L3.0474 100.403L3.92777 98.5313V116.414C3.92777 117.038 3.72461 117.523 3.386 117.939C3.0474 118.355 2.57336 118.562 1.96388 118.562C1.42212 118.562 0.948081 118.355 0.541761 117.939C0.20316 117.523 0 117.038 0 116.414V95.9668C0 95.4123 0.20316 94.8578 0.609481 94.4419C1.08352 94.0261 1.55756 93.8181 2.16704 93.8181Z" fill="#5F6062"/>
<path d="M42.8667 99.363C43.4762 99.363 43.9502 99.571 44.3566 99.9868C44.7629 100.403 44.966 100.888 44.966 101.512V116.483C44.966 117.107 44.7629 117.592 44.3566 118.008C43.9502 118.424 43.4762 118.562 42.8667 118.562C42.2572 118.562 41.7832 118.355 41.3769 117.939C40.9706 117.523 40.7674 117.038 40.7674 116.414V114.681L41.5123 115.028C41.5123 115.305 41.3769 115.721 41.0383 116.137C40.7674 116.552 40.2933 116.968 39.7516 117.453C39.2098 117.869 38.5326 118.216 37.7877 118.493C37.0428 118.77 36.2301 118.909 35.3498 118.909C33.7922 118.909 32.3024 118.493 31.0157 117.661C29.7967 116.83 28.7809 115.721 28.036 114.196C27.2911 112.74 26.8848 111.077 26.8848 109.136C26.8848 107.195 27.2911 105.532 28.036 104.007C28.7809 102.551 29.7967 101.442 31.0157 100.611C32.3024 99.7789 33.7245 99.363 35.2143 99.363C36.2301 99.363 37.1105 99.5017 37.9231 99.8482C38.7358 100.125 39.4807 100.541 40.0902 101.027C40.7674 101.442 41.1737 101.928 41.5123 102.413C41.8509 102.898 41.9864 103.314 41.9864 103.66L40.7674 104.076V101.512C40.7674 100.888 40.9706 100.403 41.3769 99.9868C41.7832 99.571 42.2572 99.363 42.8667 99.363ZM35.8915 115.028C36.9073 115.028 37.7877 114.75 38.5326 114.265C39.2775 113.78 39.887 113.017 40.2933 112.116C40.6997 111.215 40.9028 110.245 40.9028 109.136C40.9028 108.027 40.6997 106.987 40.2933 106.086C39.887 105.185 39.3453 104.492 38.5326 104.007C37.7877 103.452 36.9073 103.245 35.8915 103.245C34.8757 103.245 33.9954 103.522 33.2505 104.007C32.5055 104.492 31.8961 105.185 31.4897 106.086C31.0834 106.987 30.8803 108.027 30.8803 109.136C30.8803 110.245 31.0834 111.215 31.4897 112.116C31.8961 113.017 32.5055 113.78 33.2505 114.265C33.9954 114.82 34.8757 115.028 35.8915 115.028Z" fill="#5F6062"/>
<path d="M64.7402 99.363C65.3497 99.363 65.8238 99.571 66.2301 99.9868C66.6364 100.403 66.8396 100.888 66.8396 101.512V116.483C66.8396 117.107 66.6364 117.592 66.2301 118.008C65.8238 118.354 65.3497 118.562 64.7402 118.562C64.1308 118.562 63.6567 118.355 63.2504 117.939C62.8441 117.523 62.6409 117.038 62.6409 116.414V114.681L63.3858 115.028C63.3858 115.305 63.2504 115.721 62.9118 116.137C62.5732 116.552 62.1669 116.968 61.6251 117.453C61.0834 117.869 60.4062 118.216 59.6612 118.493C58.9163 118.77 58.1037 118.909 57.2233 118.909C55.6658 118.909 54.1759 118.493 52.8892 117.661C51.6025 116.83 50.5867 115.651 49.8418 114.196C49.0969 112.74 48.7583 111.077 48.7583 109.136C48.7583 107.195 49.0969 105.532 49.9095 104.007C50.6545 102.551 51.6703 101.373 52.9569 100.541C54.1082 99.7789 55.5303 99.363 57.0879 99.363C58.1037 99.363 58.984 99.5017 59.7967 99.8482C60.6093 100.125 61.3542 100.541 61.9637 101.027C62.5732 101.442 63.0472 101.928 63.3858 102.413C63.7244 102.898 63.8599 103.314 63.8599 103.66L62.6409 104.076V101.512C62.6409 100.888 62.8441 100.403 63.2504 99.9868C63.6567 99.571 64.1308 99.363 64.7402 99.363ZM57.7651 115.028C58.7809 115.028 59.6612 114.75 60.4062 114.265C61.1511 113.78 61.7606 113.017 62.1669 112.116C62.5732 111.215 62.7764 110.245 62.7764 109.136C62.7764 108.027 62.5732 106.987 62.1669 106.086C61.7606 105.185 61.1511 104.492 60.4062 104.007C59.6612 103.452 58.7809 103.245 57.7651 103.245C56.7493 103.245 55.8689 103.522 55.124 104.007C54.3791 104.561 53.7696 105.255 53.3633 106.156C52.8892 106.987 52.6861 108.027 52.6861 109.136C52.6861 110.245 52.8892 111.215 53.2955 112.116C53.7019 113.017 54.3114 113.711 55.0563 114.265C55.8689 114.82 56.7493 115.028 57.7651 115.028Z" fill="#5F6062"/>
<path d="M70.2258 115.651C70.0226 115.305 69.8872 114.889 69.8872 114.404C69.8872 113.849 70.2258 113.433 70.7676 113.087C71.1062 112.879 71.5125 112.74 71.9188 112.81C72.3251 112.81 72.7315 113.087 73.1378 113.433C73.815 114.126 74.4922 114.612 75.2371 115.028C75.982 115.374 76.8624 115.582 78.0136 115.582C78.3522 115.582 78.7585 115.513 79.1649 115.443C79.5712 115.374 79.9775 115.166 80.2484 114.889C80.587 114.612 80.7224 114.126 80.7224 113.503C80.7224 113.017 80.5193 112.602 80.1807 112.255C79.8421 111.978 79.368 111.701 78.8263 111.493C78.2845 111.285 77.6073 111.077 76.9301 110.869C76.2529 110.661 75.508 110.453 74.7631 110.176C74.0181 109.898 73.3409 109.552 72.7315 109.136C72.122 108.72 71.5802 108.166 71.2416 107.473C70.903 106.779 70.6321 105.948 70.6321 104.908C70.6321 103.73 70.9707 102.759 71.5802 101.928C72.2574 101.096 73.0701 100.472 74.0859 99.9868C75.1017 99.5709 76.1852 99.2937 77.3364 99.2937C78.0136 99.2937 78.8263 99.363 79.5712 99.5709C80.3161 99.7789 81.1287 100.056 81.8059 100.403C82.4831 100.749 83.0926 101.304 83.5667 101.928C83.8376 102.274 83.973 102.69 84.0407 103.175C84.1084 103.66 83.8376 104.146 83.3635 104.492C83.0249 104.769 82.6186 104.908 82.1445 104.839C81.6705 104.839 81.2642 104.631 80.9933 104.353C80.587 103.799 80.1129 103.452 79.4357 103.106C78.7585 102.759 78.0136 102.621 77.201 102.621C76.8624 102.621 76.4561 102.69 76.0497 102.759C75.6434 102.829 75.3048 103.037 74.9662 103.314C74.6276 103.591 74.4922 104.007 74.4922 104.631C74.4922 105.185 74.6953 105.601 75.0339 105.948C75.3725 106.294 75.8466 106.502 76.4561 106.71C77.0655 106.918 77.675 107.126 78.3522 107.265C79.0294 107.473 79.7743 107.68 80.4515 107.958C81.1965 108.235 81.8059 108.581 82.4154 108.997C83.0249 109.413 83.499 109.968 83.8376 110.661C84.1762 111.354 84.3793 112.186 84.3793 113.225C84.3793 114.404 84.0407 115.443 83.3635 116.275C82.6863 117.107 81.8059 117.731 80.7901 118.216C79.7743 118.632 78.6908 118.84 77.6073 118.84C76.2529 118.84 74.8985 118.562 73.5441 118.147C72.1897 117.731 71.1062 116.899 70.2258 115.651Z" fill="#5F6062"/>
<path d="M96.4333 118.909C94.4694 118.909 92.7764 118.493 91.3543 117.661C89.9322 116.83 88.7809 115.721 88.036 114.265C87.2911 112.81 86.8848 111.215 86.8848 109.413C86.8848 107.265 87.2911 105.462 88.1715 104.007C89.0518 102.551 90.1353 101.373 91.4897 100.541C92.8441 99.7096 94.2663 99.363 95.8238 99.363C96.9751 99.363 98.1263 99.6403 99.1421 100.125C100.158 100.611 101.106 101.304 101.919 102.136C102.731 102.967 103.341 104.007 103.815 105.116C104.289 106.225 104.492 107.473 104.492 108.72C104.492 109.275 104.221 109.76 103.815 110.106C103.408 110.453 102.934 110.661 102.393 110.661H89.1873L88.1715 107.126H100.835L100.09 107.819V106.849C100.022 106.156 99.8193 105.532 99.413 105.047C99.0067 104.492 98.4649 104.076 97.8554 103.73C97.2459 103.383 96.5687 103.245 95.8238 103.245C95.1466 103.245 94.4694 103.314 93.8599 103.522C93.2505 103.73 92.7087 104.007 92.3024 104.492C91.8961 104.977 91.4897 105.532 91.2866 106.294C91.0157 107.057 90.8803 108.027 90.8803 109.136C90.8803 110.384 91.1511 111.493 91.6252 112.394C92.1669 113.295 92.7764 113.919 93.6568 114.404C94.4694 114.889 95.3498 115.097 96.2301 115.097C97.1105 115.097 97.7877 115.028 98.2617 114.889C98.7358 114.75 99.1421 114.612 99.4807 114.404C99.8193 114.196 100.09 114.057 100.361 113.919C100.767 113.711 101.174 113.572 101.512 113.572C101.986 113.572 102.46 113.78 102.799 114.126C103.138 114.473 103.273 114.889 103.273 115.374C103.273 115.998 102.934 116.622 102.325 117.107C101.715 117.661 100.903 118.077 99.8193 118.493C98.6681 118.77 97.5845 118.909 96.4333 118.909Z" fill="#5F6062"/>
<path d="M109.977 118.562C109.368 118.562 108.894 118.354 108.487 117.939C108.081 117.523 107.878 117.038 107.878 116.414V101.858C107.878 101.234 108.081 100.749 108.487 100.333C108.894 99.9175 109.368 99.7096 109.977 99.7096C110.587 99.7096 111.061 99.9175 111.467 100.333C111.873 100.749 112.077 101.234 112.077 101.858V105.185L111.806 102.829C112.077 102.274 112.415 101.789 112.821 101.304C113.228 100.888 113.702 100.472 114.176 100.195C114.65 99.9175 115.192 99.7096 115.801 99.571C116.411 99.4323 116.952 99.363 117.494 99.363C118.171 99.363 118.781 99.571 119.255 99.9868C119.729 100.403 119.932 100.888 119.932 101.373C119.932 102.136 119.729 102.69 119.323 103.037C118.916 103.383 118.578 103.522 118.104 103.522C117.697 103.522 117.291 103.452 116.885 103.245C116.478 103.037 116.14 102.967 115.666 102.967C115.259 102.967 114.853 103.037 114.379 103.245C113.905 103.452 113.566 103.73 113.228 104.146C112.889 104.561 112.551 105.116 112.347 105.74C112.144 106.364 112.009 107.126 112.009 107.958V116.344C112.009 116.968 111.806 117.453 111.399 117.869C110.993 118.285 110.587 118.562 109.977 118.562Z" fill="#5F6062"/>
</g>
<defs>
<linearGradient id="paint0_linear" x1="10.793" y1="31.8053" x2="26.5068" y2="80.8032" gradientUnits="userSpaceOnUse">
<stop stop-color="#0BB3F3"/>
<stop offset="1" stop-color="#037CC4"/>
</linearGradient>
<linearGradient id="paint1_linear" x1="36.8606" y1="46.5465" x2="56.5084" y2="46.5465" gradientUnits="userSpaceOnUse">
<stop stop-color="#0BB3F3"/>
<stop offset="1" stop-color="#037CC4"/>
</linearGradient>
<linearGradient id="paint2_linear" x1="111.298" y1="56.1167" x2="91.6507" y2="56.1167" gradientUnits="userSpaceOnUse">
<stop stop-color="#0BB3F3"/>
<stop offset="1" stop-color="#037CC4"/>
</linearGradient>
<linearGradient id="paint3_linear" x1="84.2113" y1="46.5772" x2="64.5641" y2="46.5772" gradientUnits="userSpaceOnUse">
<stop stop-color="#0BB3F3"/>
<stop offset="1" stop-color="#037CC4"/>
</linearGradient>
<linearGradient id="paint4_linear" x1="47.7451" y1="12.9007" x2="73.4803" y2="12.9007" gradientUnits="userSpaceOnUse">
<stop stop-color="#0BB3F3"/>
<stop offset="1" stop-color="#037CC4"/>
</linearGradient>
<clipPath id="clip0">
<rect width="102.545" height="80.7273" fill="white" transform="translate(8.72705)"/>
</clipPath>
<clipPath id="clip1">
<rect width="120" height="25.0909" fill="white" transform="translate(0 93.8181)"/>
</clipPath>
</defs>
</svg>
