<svg width="56" height="44" viewBox="0 0 56 44" fill="none" xmlns="http://www.w3.org/2000/svg">
<g clip-path="url(#clip0)">
<path d="M10.7328 44H7.19729C3.21984 44 0 40.7466 0 36.7667V17.1831H3.50395C7.4814 17.1831 10.7012 20.4049 10.7012 24.3848V44H10.7328Z" fill="white"/>
<path d="M26.1059 37.1141H22.1284C18.4035 37.1141 15.373 34.0818 15.373 30.3546V13.6138H19.3505C23.0754 13.6138 26.1059 16.6461 26.1059 20.3733V37.1141Z" fill="white"/>
<path d="M45.2988 44H48.8028C52.7802 44 56.0001 40.7781 56.0001 36.7982V17.2146H52.4961C48.5187 17.2146 45.2988 20.4364 45.2988 24.4163V44Z" fill="white"/>
<path d="M30.4937 37.1456H34.4711C38.196 37.1456 41.2265 34.1133 41.2265 30.3861V13.6453H37.249C33.5241 13.6453 30.4937 16.6776 30.4937 20.4048V37.1456Z" fill="white"/>
<path d="M28.3471 14.0876C32.2349 14.0876 35.3865 10.934 35.3865 7.04379C35.3865 3.15361 32.2349 0 28.3471 0C24.4593 0 21.3076 3.15361 21.3076 7.04379C21.3076 10.934 24.4593 14.0876 28.3471 14.0876Z" fill="white"/>
</g>
<defs>
<clipPath id="clip0">
<rect width="56" height="44" fill="white"/>
</clipPath>
</defs>
</svg>
