<svg width="80" height="68" viewBox="0 0 80 68" fill="none" xmlns="http://www.w3.org/2000/svg">
<path d="M48.2766 11.5552C51.9755 13.8745 54.5693 17.7991 55.0416 22.3547C56.5501 23.0595 58.2244 23.4649 59.9995 23.4649C66.48 23.4649 71.7324 18.2124 71.7324 11.7329C71.7324 5.25247 66.48 0 59.9995 0C53.5809 0.00199676 48.3744 5.16062 48.2766 11.5552ZM40.59 35.5782C47.0705 35.5782 52.323 30.3247 52.323 23.8453C52.323 17.3658 47.0695 12.1133 40.59 12.1133C34.1106 12.1133 28.8551 17.3668 28.8551 23.8463C28.8551 30.3257 34.1106 35.5782 40.59 35.5782ZM45.567 36.3779H35.6111C27.3276 36.3779 20.5885 43.1179 20.5885 51.4015V63.5767L20.6195 63.7674L21.4581 64.03C29.3633 66.4999 36.2311 67.3236 41.8839 67.3236C52.925 67.3236 59.3246 64.1757 59.719 63.975L60.5027 63.5787H60.5866V51.4015C60.5895 43.1179 53.8505 36.3779 45.567 36.3779ZM64.9784 24.2656H55.0995C54.9926 28.2181 53.3054 31.7774 50.6367 34.3372C57.9998 36.5266 63.387 43.3546 63.387 51.4194V55.1714C73.1412 54.8139 78.762 52.0494 79.1324 51.8637L79.9161 51.4664H80V39.2872C80 31.0046 73.261 24.2656 64.9784 24.2656ZM20.0025 23.4669C22.2978 23.4669 24.4333 22.797 26.2424 21.6558C26.8174 17.9049 28.8282 14.6272 31.7005 12.3949C31.7125 12.1752 31.7334 11.9576 31.7334 11.7359C31.7334 5.25546 26.48 0.00299492 20.0025 0.00299492C13.521 0.00299492 8.26956 5.25546 8.26956 11.7359C8.26956 18.2134 13.521 23.4669 20.0025 23.4669ZM30.5394 34.3372C27.8837 31.7903 26.2024 28.2501 26.0796 24.3215C25.7132 24.2945 25.3508 24.2656 24.9774 24.2656H15.0226C6.73905 24.2656 0 31.0046 0 39.2872V51.4644L0.0309497 51.6521L0.869587 51.9166C7.21128 53.8964 12.8711 54.8089 17.7871 55.0965V51.4194C17.7891 43.3546 23.1743 36.5286 30.5394 34.3372Z" fill="#0BB3F3"/>
</svg>
