<svg width="14" height="19" viewBox="0 0 14 19" fill="none" xmlns="http://www.w3.org/2000/svg">
<path d="M10.2883 7.85837C10.3347 7.79335 10.3527 7.75166 10.3599 7.72926C10.3216 7.70904 10.2709 7.66797 9.99433 7.66797C9.83722 7.66797 9.63997 7.67481 9.43091 7.70157C9.68446 7.89664 9.74638 7.99526 9.9122 7.99526C9.98469 7.99557 10.1925 7.99246 10.2883 7.85837Z" fill="#CC4B4C"/>
<path d="M4.36663 10.152C4.41298 10.1374 4.68365 10.0139 5.18796 9.08301C4.52281 9.45665 4.25214 9.76372 4.23285 9.9367C4.22943 9.96532 4.22103 10.0406 4.36663 10.152Z" fill="#CC4B4C"/>
<path d="M14 12.1333V4.34871C14 4.1104 13.9714 3.934 13.8289 3.7912L10.2085 0.171111C10.0999 0.0625333 9.94933 0 9.79533 0H0.766267C0.397289 0 0 0.284978 0 0.910311V12.1333H14ZM9.64444 1.05498C9.64444 0.912489 9.81649 0.841245 9.91729 0.942044L13.058 4.08271C13.1588 4.18351 13.0875 4.35556 12.945 4.35556H9.64444V1.05498ZM3.71218 9.87933C3.7688 9.37284 4.39507 8.84271 5.57418 8.30262C6.04209 7.2772 6.48729 6.01378 6.75267 4.95818C6.44218 4.28244 6.1404 3.40573 6.36036 2.89147C6.43751 2.71133 6.53364 2.5732 6.71316 2.51347C6.78409 2.48982 6.96329 2.45996 7.02924 2.45996C7.18604 2.45996 7.32387 2.66187 7.42156 2.78631C7.51333 2.90329 7.72147 3.15124 7.30551 4.90249C7.72489 5.76862 8.31911 6.65093 8.88844 7.25511C9.29631 7.18138 9.64725 7.14373 9.93316 7.14373C10.4204 7.14373 10.7156 7.25729 10.836 7.49124C10.9356 7.68476 10.8948 7.91093 10.7147 8.16325C10.5414 8.4056 10.3024 8.53378 10.024 8.53378C9.64569 8.53378 9.20516 8.29484 8.71391 7.82289C7.83129 8.00738 6.80027 8.33653 5.96742 8.70084C5.70733 9.25276 5.45813 9.69733 5.22604 10.0234C4.90778 10.4708 4.63276 10.6789 4.36053 10.6789C4.25227 10.6789 4.14836 10.6437 4.05969 10.5775C3.7352 10.3339 3.69164 10.0635 3.71218 9.87933Z" fill="#CC4B4C"/>
<path d="M4.58013 14.2664C4.53595 14.2054 4.47435 14.1544 4.39502 14.1134C4.31569 14.0723 4.21053 14.0518 4.08018 14.0518H3.69751V15.2937H4.16542C4.22764 15.2937 4.28924 15.2831 4.35053 15.2617C4.41151 15.2405 4.46751 15.2057 4.51853 15.1574C4.56955 15.1092 4.61062 15.042 4.64173 14.9555C4.67284 14.869 4.6884 14.762 4.6884 14.6345C4.6884 14.5834 4.68124 14.5243 4.66724 14.4581C4.65293 14.3915 4.624 14.3277 4.58013 14.2664Z" fill="#CC4B4C"/>
<path d="M7.10657 5.6543C6.88381 6.42399 6.59044 7.25496 6.27466 8.00754C6.92488 7.75523 7.63172 7.53496 8.29564 7.3791C7.87564 6.89127 7.45595 6.28212 7.10657 5.6543Z" fill="#CC4B4C"/>
<path d="M0 12.7559V17.4225C0 17.7364 0.379556 18.0447 0.766267 18.0447H13.2337C13.6204 18.0447 14 17.7364 14 17.4225V12.7559H0ZM5.10098 15.0671C5.04716 15.1962 4.97187 15.3048 4.87542 15.3925C4.77898 15.4803 4.66262 15.5484 4.52667 15.5966C4.39071 15.6448 4.24013 15.6688 4.07587 15.6688H3.69724V16.8003H3.18671V13.6655H4.08831C4.22147 13.6655 4.35338 13.6867 4.48373 13.7293C4.61409 13.7719 4.73107 13.8357 4.83467 13.9207C4.93827 14.0056 5.02196 14.1086 5.08573 14.229C5.14951 14.3494 5.18156 14.4847 5.18156 14.6353C5.18187 14.7943 5.1548 14.938 5.10098 15.0671ZM8.22951 15.8072C8.17413 15.9902 8.10413 16.1432 8.01889 16.2667C7.93365 16.3903 7.83813 16.4873 7.73173 16.5583C7.62533 16.6292 7.52267 16.6821 7.42342 16.7179C7.32418 16.7533 7.23333 16.776 7.1512 16.786C7.06907 16.7953 7.00809 16.8003 6.96827 16.8003H5.78169V13.6655H6.72591C6.98973 13.6655 7.22151 13.7075 7.42124 13.7909C7.62098 13.8743 7.78711 13.986 7.91902 14.1247C8.05093 14.2635 8.14924 14.4219 8.21458 14.5989C8.2796 14.7759 8.31227 14.9582 8.31227 15.1455C8.31258 15.4037 8.28489 15.6243 8.22951 15.8072ZM11.0133 14.0526H9.57133V15.0394H10.8814V15.3882H9.57133V16.8003H9.0524V13.6655H11.0133V14.0526Z" fill="#CC4B4C"/>
<path d="M7.54864 14.3986C7.45935 14.295 7.33801 14.2114 7.18495 14.1476C7.03188 14.0838 6.83339 14.0518 6.58948 14.0518H6.29175V16.4252H6.79793C7.14388 16.4252 7.39339 16.3148 7.54646 16.0936C7.69953 15.8724 7.77606 15.5519 7.77606 15.1322C7.77606 15.0019 7.7605 14.8728 7.72939 14.7452C7.69797 14.6177 7.63793 14.5022 7.54864 14.3986Z" fill="#CC4B4C"/>
<path d="M6.91742 3.02152C6.88693 3.03179 6.50364 3.56815 6.94729 4.02206C7.24253 3.36406 6.9308 3.01717 6.91742 3.02152Z" fill="#CC4B4C"/>
</svg>
