<svg width="50" height="50" viewBox="0 0 50 50" fill="none" xmlns="http://www.w3.org/2000/svg">
<path d="M25 0C11.2144 0 0 11.2144 0 25C0 38.7856 11.2144 50 25 50C38.7856 50 50 38.7856 50 25C50 11.2144 38.7856 0 25 0Z" fill="url(#paint0_linear)"/>
<path d="M36.4845 27.1874H27.1874V36.4845C27.1874 37.6921 26.2076 38.6719 25 38.6719C23.7923 38.6719 22.8126 37.6921 22.8126 36.4845V27.1874H13.5155C12.3079 27.1874 11.3281 26.2076 11.3281 25C11.3281 23.7923 12.3079 22.8126 13.5155 22.8126H22.8126V13.5155C22.8126 12.3079 23.7923 11.3281 25 11.3281C26.2076 11.3281 27.1874 12.3079 27.1874 13.5155V22.8126H36.4845C37.6921 22.8126 38.6719 23.7923 38.6719 25C38.6719 26.2076 37.6921 27.1874 36.4845 27.1874Z" fill="#FAFAFA"/>
<defs>
<linearGradient id="paint0_linear" x1="25" y1="0" x2="25" y2="50" gradientUnits="userSpaceOnUse">
<stop stop-color="#0BB3F3"/>
<stop offset="1" stop-color="#037CC4"/>
</linearGradient>
</defs>
</svg>
