<svg width="20" height="20" viewBox="0 0 20 20" fill="none" xmlns="http://www.w3.org/2000/svg">
<path d="M18.8281 18.8281H13.75V20H20V13.75H18.8281V18.8281Z" fill="#0BB3F3"/>
<path d="M1.17188 1.17188H6.25V0H0V6.25H1.17188V1.17188Z" fill="#0BB3F3"/>
<path d="M13.75 0V1.17188H18.8281V6.25H20V0H13.75Z" fill="#0BB3F3"/>
<path d="M1.17188 13.75H0V20H6.25V18.8281H1.17188V13.75Z" fill="#0BB3F3"/>
<path d="M2.38281 8.24219H8.24219V2.38281H2.38281V8.24219ZM3.55469 3.55469H7.07031V7.07031H3.55469V3.55469Z" fill="#0BB3F3"/>
<path d="M2.38281 17.5977H8.24219V11.7773H2.38281V17.5977ZM3.55469 12.9492H7.07031V16.4258H3.55469V12.9492Z" fill="#0BB3F3"/>
<path d="M17.6172 2.38281H11.7578V8.24219H17.6172V2.38281ZM16.4453 7.07031H12.9297V3.55469H16.4453V7.07031Z" fill="#0BB3F3"/>
<path d="M17.6172 11.7578H11.7578V17.6172H17.6172V11.7578ZM16.4453 16.4453H12.9297V12.9297H16.4453V16.4453Z" fill="#0BB3F3"/>
<path d="M4.72656 4.72656H5.89844V5.89844H4.72656V4.72656Z" fill="#0BB3F3"/>
<path d="M4.72656 14.1016H5.89844V15.2734H4.72656V14.1016Z" fill="#0BB3F3"/>
<path d="M14.1016 14.1016H15.2734V15.2734H14.1016V14.1016Z" fill="#0BB3F3"/>
<path d="M14.1016 4.72656H15.2734V5.89844H14.1016V4.72656Z" fill="#0BB3F3"/>
<path d="M17.4121 10.5859V9.41406H10.5859V2.38281H9.41406V9.41406H2.58789V10.5859H9.41406V17.6172H10.5859V10.5859H17.4121Z" fill="#0BB3F3"/>
</svg>
