<svg width="428" height="87" viewBox="0 0 428 87" fill="none" xmlns="http://www.w3.org/2000/svg">
<path d="M226.891 9.2401C226.886 9.2327 226.874 9.2119 226.874 9.17776L227.074 9.17776L227.274 9.17776C227.274 9.20463 227.264 9.24166 227.236 9.27276C227.21 9.29992 227.185 9.30697 227.181 9.30807C227.18 9.30825 227.18 9.30824 227.181 9.30818C227.187 9.30791 227.211 9.3067 227.263 9.31524C227.383 9.33497 227.569 9.39152 227.808 9.4818C228.281 9.66049 228.917 9.95361 229.558 10.2766C230.198 10.5991 230.837 10.9484 231.314 11.2375C231.553 11.3825 231.748 11.51 231.88 11.6099C231.948 11.6603 231.994 11.6997 232.021 11.7276C232.033 11.7399 232.038 11.7464 232.038 11.7474L232.038 11.7475C232.038 11.7469 232.035 11.7415 232.031 11.7319C232.027 11.7225 232.022 11.7042 232.022 11.6794L232.222 11.6794L232.422 11.6794C232.422 11.2931 232.506 11.0161 232.637 10.8165C232.768 10.618 232.956 10.4798 233.195 10.3886C233.685 10.202 234.363 10.2221 235.08 10.3291C235.574 10.4028 236.063 10.513 236.501 10.6118C236.697 10.6561 236.883 10.698 237.055 10.7334C237.324 10.7889 237.569 10.8303 237.751 10.8287C237.84 10.8279 237.941 10.8172 238.026 10.7723C238.072 10.7482 238.117 10.7119 238.15 10.6588C238.18 10.6111 238.194 10.5594 238.197 10.5089C238.209 10.5033 238.232 10.4952 238.271 10.4885C238.392 10.4673 238.584 10.4726 238.842 10.5032C239.236 10.5499 239.73 10.6483 240.257 10.7532C240.415 10.7846 240.576 10.8166 240.737 10.8479C241.429 10.982 242.143 11.1048 242.686 11.1025C242.955 11.1013 243.21 11.0699 243.403 10.9749C243.503 10.926 243.593 10.857 243.657 10.7609C243.723 10.6635 243.754 10.5506 243.754 10.4286C243.754 10.2485 243.816 10.1592 243.904 10.1047C244.009 10.0397 244.184 10.0048 244.437 10.0167C244.939 10.0405 245.628 10.2412 246.34 10.5059C247.047 10.7685 247.756 11.0856 248.291 11.3287C248.34 11.3509 248.388 11.3725 248.434 11.3935C248.638 11.4865 248.813 11.5659 248.942 11.6214C249.021 11.655 249.089 11.6827 249.14 11.6994C249.163 11.7068 249.196 11.7168 249.23 11.7203C249.243 11.7216 249.283 11.7254 249.329 11.7092C249.355 11.6999 249.392 11.6808 249.423 11.6422C249.455 11.6014 249.466 11.5551 249.466 11.5154C249.466 11.5166 249.466 11.5172 249.466 11.5172C249.467 11.5172 249.469 11.5003 249.493 11.4624C249.519 11.4202 249.562 11.3666 249.625 11.3021C249.751 11.1733 249.937 11.0205 250.169 10.8509C250.632 10.5127 251.253 10.1258 251.88 9.75484C252.405 9.44371 252.931 9.14617 253.365 8.90019C253.448 8.85329 253.527 8.80826 253.603 8.76537C253.838 8.63196 254.036 8.51839 254.176 8.43409C254.246 8.39225 254.304 8.35553 254.347 8.3261C254.367 8.31187 254.389 8.29587 254.407 8.27949C254.411 8.27603 254.416 8.27158 254.421 8.26624C254.442 8.26694 254.471 8.26901 254.508 8.27336C254.651 8.29 254.862 8.33241 255.127 8.39295C255.371 8.44883 255.654 8.51839 255.959 8.59351L256.029 8.61062C256.36 8.69207 256.714 8.77894 257.069 8.86009C257.776 9.02159 258.497 9.1637 259.045 9.19356C259.316 9.20831 259.568 9.19733 259.759 9.13397C259.856 9.1017 259.952 9.05143 260.024 8.97102C260.026 8.96867 260.028 8.9663 260.031 8.96392C260.075 8.97175 260.12 8.97471 260.162 8.9754C260.33 8.97809 260.554 8.94515 260.803 8.89369C261.308 8.7897 261.975 8.59747 262.634 8.39493C263.007 8.28041 263.387 8.15947 263.735 8.04886C263.997 7.96562 264.24 7.88823 264.448 7.82384C264.695 7.74727 264.896 7.68772 265.034 7.65307C265.105 7.63535 265.151 7.62628 265.176 7.62343C265.191 7.62166 265.184 7.62417 265.165 7.62116C265.157 7.61982 265.125 7.61432 265.092 7.58987C265.052 7.56127 265.019 7.51276 265.013 7.45232C265.042 7.44527 265.069 7.4394 265.092 7.43479L265.212 7.43479L265.412 7.43479C265.412 7.46408 265.398 7.46729 265.422 7.44098C265.444 7.41657 265.485 7.38291 265.551 7.34231C265.682 7.26164 265.879 7.17377 266.128 7.08572C266.623 6.9105 267.29 6.74646 267.96 6.63769C268.632 6.52861 269.292 6.47759 269.777 6.52093C270.021 6.54281 270.203 6.58727 270.317 6.647C270.424 6.70338 270.443 6.75456 270.443 6.79912C270.443 6.9209 270.472 7.03455 270.537 7.13186C270.602 7.22874 270.694 7.29462 270.794 7.33809C270.986 7.42141 271.236 7.43279 271.494 7.41619C271.916 7.38906 272.451 7.27859 272.988 7.16741C273.114 7.14131 273.241 7.11517 273.366 7.09006C274.042 6.95449 274.683 6.84855 275.151 6.89713C275.384 6.92124 275.546 6.9812 275.649 7.07007C275.744 7.15206 275.811 7.2787 275.811 7.49631C275.811 7.61916 275.878 7.7092 275.956 7.76495C276.028 7.81595 276.117 7.84511 276.202 7.86386C276.375 7.9019 276.608 7.91228 276.866 7.90904C277.319 7.90338 277.9 7.85463 278.489 7.80525C278.578 7.79772 278.668 7.79019 278.758 7.78278C279.443 7.72619 280.114 7.67748 280.611 7.69617C280.863 7.70561 281.052 7.73185 281.172 7.77376C281.232 7.79457 281.26 7.81433 281.27 7.825C281.275 7.82939 281.275 7.83055 281.274 7.82817C281.272 7.82543 281.272 7.82345 281.272 7.8244L281.472 7.8244L281.672 7.8244C281.672 7.83311 281.671 7.83774 281.671 7.83778C281.671 7.83784 281.675 7.82559 281.694 7.79879C281.72 7.76106 281.763 7.7116 281.826 7.6516C281.952 7.53216 282.138 7.38909 282.368 7.23614C282.827 6.93092 283.443 6.60029 284.058 6.35427C284.679 6.10566 285.272 5.95466 285.697 5.98239C285.907 5.9961 286.052 6.05192 286.143 6.13653C286.23 6.21683 286.295 6.34783 286.295 6.57356C286.295 6.6542 286.308 6.73912 286.351 6.81398C286.397 6.8947 286.469 6.95 286.557 6.97385C286.71 7.01557 286.875 6.9532 287.007 6.88174C287.29 6.72835 287.643 6.40776 287.984 5.98999C288.609 5.2235 289.245 4.06601 289.348 2.83686C289.352 2.8382 289.356 2.83953 289.361 2.84085C289.538 2.89805 289.784 2.95285 290.069 3.00412C290.642 3.1071 291.402 3.20066 292.158 3.26887C292.915 3.3371 293.675 3.38052 294.247 3.38214C294.533 3.38295 294.779 3.37348 294.957 3.34976C295.044 3.33817 295.128 3.32161 295.195 3.29518C295.21 3.28956 295.226 3.28257 295.242 3.27373C295.29 3.28069 295.347 3.28567 295.411 3.2895C295.565 3.29883 295.782 3.303 296.037 3.30428C296.406 3.30614 296.865 3.30196 297.346 3.29757C297.531 3.29588 297.719 3.29417 297.906 3.29275C298.586 3.28762 299.26 3.28639 299.765 3.30416C300.018 3.31308 300.222 3.32661 300.359 3.34566C300.407 3.35218 300.441 3.35872 300.465 3.36449C300.47 3.37062 300.475 3.37665 300.481 3.38254C300.526 3.42891 300.579 3.44279 300.612 3.4469C300.669 3.45416 300.722 3.43853 300.747 3.43042C300.808 3.41055 300.885 3.37306 300.965 3.3294C301.131 3.2394 301.363 3.09584 301.635 2.92156C301.899 2.75245 302.206 2.55138 302.533 2.33677L302.567 2.31414C302.908 2.09077 303.27 1.85322 303.632 1.62056C304.358 1.15389 305.076 0.712086 305.609 0.44579C305.88 0.310605 306.085 0.230409 306.213 0.207368C306.264 0.198205 306.283 0.201966 306.283 0.201516C306.283 0.201363 306.281 0.200723 306.277 0.198911C306.264 0.192899 306.248 0.180138 306.237 0.160184C306.229 0.147435 306.228 0.137765 306.227 0.134831L306.427 0.134831L306.627 0.134831C306.627 0.239587 306.539 0.265969 306.572 0.251561C306.587 0.244576 306.626 0.233113 306.696 0.223016C306.832 0.203397 307.037 0.195661 307.295 0.202435C307.807 0.215913 308.496 0.285794 309.185 0.411069C309.877 0.536683 310.557 0.715745 311.059 0.942815C311.311 1.05662 311.507 1.1775 311.637 1.30108C311.766 1.424 311.815 1.53373 311.815 1.63173L312.015 1.63173L312.215 1.63173C312.215 1.6743 312.187 1.69249 312.196 1.68648C312.209 1.67738 312.243 1.66025 312.313 1.64325C312.45 1.60987 312.659 1.59138 312.929 1.58822C313.465 1.58195 314.185 1.63602 314.913 1.71273C315.639 1.78925 316.366 1.88753 316.912 1.96801C317.184 2.00823 317.411 2.04394 317.57 2.07015C317.649 2.08328 317.71 2.09391 317.751 2.10147C317.772 2.10531 317.786 2.10808 317.795 2.10983C317.799 2.11083 317.799 2.1109 317.797 2.11021C317.796 2.11012 317.789 2.10833 317.78 2.10487C317.777 2.1036 317.764 2.09864 317.749 2.08934C317.74 2.08387 317.719 2.06747 317.708 2.05601C317.69 2.03408 317.659 1.96559 317.653 1.91881L317.853 1.91881L318.053 1.91881C318.053 1.89433 318.056 1.87866 318.059 1.86958C318.059 1.86811 318.06 1.86682 318.06 1.86569C318.061 1.86341 318.062 1.86179 318.062 1.86072C318.063 1.85917 318.063 1.85851 318.063 1.85836L318.064 1.8579C318.064 1.85767 318.065 1.85699 318.067 1.85599C318.069 1.85505 318.071 1.85377 318.075 1.85237C318.08 1.85071 318.086 1.84889 318.094 1.84728C318.168 1.83317 318.31 1.851 318.527 1.92816C318.948 2.07774 319.524 2.40184 320.113 2.79063C320.699 3.17733 321.285 3.61898 321.722 3.99401C321.941 4.18193 322.12 4.34994 322.241 4.48375C322.303 4.55102 322.346 4.60534 322.372 4.64607C322.385 4.66573 322.391 4.67784 322.393 4.68343C322.399 4.89055 322.516 5.07599 322.664 5.23129C322.818 5.39438 323.031 5.55096 323.274 5.69795C323.761 5.99265 324.403 6.26901 325.038 6.49302C325.673 6.71731 326.311 6.89283 326.794 6.98263C327.034 7.02713 327.246 7.05266 327.404 7.04902C327.481 7.04726 327.564 7.03855 327.634 7.00976C327.708 6.9797 327.815 6.90356 327.815 6.75812C327.815 6.24568 328.119 5.88232 328.639 5.63096C329.165 5.37678 329.882 5.25572 330.619 5.23558C331.352 5.21551 332.083 5.2961 332.626 5.42978C332.899 5.49696 333.114 5.57505 333.256 5.6543C333.327 5.69406 333.371 5.72916 333.394 5.75579C333.405 5.76774 333.409 5.77533 333.411 5.77875C333.413 6.01166 333.536 6.2178 333.704 6.38847C333.875 6.56189 334.11 6.71859 334.378 6.85553C334.916 7.12992 335.624 7.34299 336.328 7.44806C337.029 7.5527 337.749 7.5538 338.304 7.38382C338.583 7.29842 338.833 7.16598 339.015 6.96928C339.162 6.80996 339.258 6.61547 339.291 6.38823C339.305 6.38889 339.319 6.38968 339.335 6.39062C339.485 6.3996 339.702 6.41994 339.968 6.44553L340.051 6.45352C340.57 6.50351 341.244 6.56852 341.919 6.6016C342.628 6.63632 343.353 6.63682 343.905 6.54294C344.179 6.49628 344.43 6.42341 344.617 6.30654C344.811 6.18558 344.954 6.00386 344.954 5.75335C344.954 5.66112 344.992 5.59671 345.084 5.54261C345.188 5.48138 345.357 5.43919 345.591 5.42998C346.056 5.41172 346.693 5.52576 347.344 5.74075C347.993 5.9552 348.635 6.2637 349.11 6.61989C349.596 6.98399 349.859 7.36001 349.859 7.70137C349.859 7.77558 349.891 7.83953 349.94 7.8843C349.982 7.92362 350.031 7.94291 350.068 7.95337C350.14 7.97418 350.227 7.97746 350.31 7.9748C350.482 7.9693 350.716 7.93467 350.985 7.8823C351.526 7.77685 352.243 7.59174 352.955 7.38601C353.669 7.18009 354.383 6.95198 354.92 6.75927C355.189 6.66316 355.416 6.57454 355.579 6.50089C355.651 6.46853 355.714 6.43683 355.765 6.40667C355.797 6.42504 355.835 6.44674 355.878 6.47116C356.029 6.55737 356.246 6.67856 356.506 6.81555C357.025 7.08895 357.721 7.42768 358.42 7.67702C359.111 7.92324 359.839 8.09535 360.408 8.00156C360.699 7.9536 360.963 7.8336 361.152 7.60488C361.171 7.58148 361.19 7.55721 361.207 7.53206C361.235 7.59297 361.267 7.65134 361.301 7.70719C361.475 7.98691 361.721 8.19203 362.008 8.33551C362.575 8.61948 363.31 8.66728 364.019 8.58439C364.732 8.50107 365.446 8.28248 365.987 8.00452C366.257 7.86577 366.492 7.70799 366.662 7.53798C366.829 7.37161 366.958 7.16889 366.958 6.94267C366.958 6.91511 366.966 6.9035 366.976 6.89305C366.992 6.87753 367.027 6.85444 367.099 6.83576C367.245 6.79777 367.476 6.79486 367.778 6.83259C368.376 6.90713 369.172 7.12905 369.937 7.41457C370.704 7.70041 371.42 8.04278 371.862 8.34979C372.09 8.50796 372.215 8.63657 372.257 8.72199C372.267 8.74238 372.269 8.7536 372.269 8.75819C372.268 8.75995 372.265 8.76298 372.261 8.76704C372.24 8.78099 372.218 8.79545 372.198 8.81043L372.412 9.14757C372.442 9.13096 372.47 9.1122 372.497 9.09111C372.755 8.93242 373.118 8.84835 373.559 8.8284C374.034 8.80688 374.576 8.86096 375.121 8.95453C376.118 9.12531 377.104 9.42306 377.686 9.60629C377.686 9.76287 377.734 9.9049 377.845 10.0169C377.987 10.1596 378.194 10.2159 378.406 10.232C378.831 10.2645 379.421 10.1441 380.04 9.95332C381.218 9.59082 382.602 8.94207 383.405 8.40961C383.539 8.51249 383.702 8.56778 383.874 8.59134C384.106 8.62317 384.37 8.59977 384.645 8.54837C385.146 8.4544 385.73 8.25644 386.291 8.06601C386.343 8.04854 386.394 8.03113 386.445 8.01387C387.065 7.80433 387.642 7.61822 388.086 7.5729C388.308 7.55025 388.473 7.56586 388.585 7.61306C388.685 7.65509 388.754 7.72547 388.789 7.85584L388.833 8.01832L389.001 8.00308C389.593 7.94919 390.284 8.02726 390.979 8.15809C391.561 8.26753 392.136 8.41157 392.649 8.54038C392.749 8.56534 392.846 8.58973 392.94 8.61319C393.23 8.68497 393.496 8.74838 393.722 8.79103C393.944 8.83278 394.146 8.85862 394.301 8.84516C394.378 8.83848 394.466 8.82055 394.541 8.77097C394.626 8.71397 394.679 8.62489 394.685 8.51834C394.69 8.43094 394.663 8.34587 394.627 8.27038C397.04 7.96214 398.832 7.61018 399.761 7.23584C400.004 7.13804 400.204 7.03273 400.341 6.91609C400.477 6.80159 400.591 6.64087 400.559 6.44159C400.535 6.29419 400.437 6.17669 400.314 6.08221C400.394 6.09469 400.478 6.10943 400.566 6.12629C401.113 6.23154 401.783 6.41543 402.434 6.62784C403.084 6.84027 403.708 7.07898 404.162 7.29196C404.39 7.39902 404.568 7.49621 404.685 7.57703C404.735 7.61216 404.768 7.63986 404.787 7.65944L404.72 8.16131L405.127 7.78701C405.229 7.6929 405.382 7.53572 405.567 7.34548C405.7 7.20802 405.851 7.05329 406.011 6.89262C406.4 6.50205 406.863 6.06069 407.336 5.68739C407.813 5.31096 408.284 5.01819 408.691 4.90579C408.892 4.85025 409.065 4.84209 409.212 4.87958C409.354 4.91608 409.486 4.99943 409.602 5.15512L409.684 5.26489L409.816 5.22843C409.974 5.18463 410.275 5.19224 410.689 5.25577C411.092 5.31766 411.572 5.42714 412.068 5.56188C413.062 5.83166 414.103 6.19747 414.702 6.46873L414.736 6.48386L414.773 6.48612L414.854 6.49117C415.686 6.54249 416.927 6.61919 418.046 6.59668C418.623 6.58505 419.175 6.54692 419.624 6.46291C419.849 6.4209 420.054 6.36635 420.226 6.29485C420.396 6.2243 420.549 6.13088 420.653 6.00207L420.815 5.80246L420.582 5.69483C420.271 5.55107 420.071 5.43877 419.959 5.35415C419.986 5.34791 420.017 5.34178 420.053 5.33598C420.214 5.30988 420.441 5.29517 420.726 5.28945C421.274 5.27845 422.006 5.30107 422.832 5.32661L422.924 5.32944C423.785 5.35603 424.74 5.38435 425.678 5.3792L425.798 5.37854L425.854 5.27285C425.966 5.06204 426.233 4.84462 426.639 4.6276C426.969 4.45059 427.37 4.28537 427.8 4.12927L427.8 61.8L0.200012 61.8L0.200017 8.00053C0.944829 7.70328 1.73871 7.42552 2.37937 7.25094C2.71885 7.15844 3.00773 7.09702 3.22062 7.07528C3.32786 7.06433 3.40625 7.06452 3.45817 7.07183C3.47611 7.07436 3.48746 7.07724 3.49396 7.07927L3.58716 7.20105L3.73798 7.11767C4.50779 6.69218 5.65726 6.54791 6.81382 6.53515C7.81797 6.52407 8.79987 6.61184 9.49283 6.68208C9.49936 6.76206 9.53263 6.83315 9.56888 6.88922C9.66596 7.03939 9.85361 7.18899 10.0725 7.32971C10.5221 7.61873 11.2113 7.93676 11.9503 8.20465C12.6902 8.47289 13.4942 8.69604 14.1764 8.78925C14.5169 8.83578 14.8356 8.85116 15.1045 8.81974C15.3679 8.78897 15.617 8.70947 15.779 8.53433L15.9034 8.39977L15.7802 8.26407C15.6716 8.14442 15.6911 8.09197 15.6989 8.07438C15.7191 8.02917 15.7937 7.95361 15.9812 7.8768C16.3433 7.7284 16.9602 7.64256 17.6743 7.65014C18.3831 7.65767 19.1634 7.75699 19.8431 7.96143C20.5291 8.1678 21.0813 8.47184 21.3726 8.86599L21.4717 9.00009L21.6214 8.92673C21.6482 8.91363 21.7032 8.89704 21.7962 8.88394C21.8859 8.87129 21.9985 8.86353 22.1319 8.8609C22.3984 8.85564 22.7348 8.8711 23.1121 8.90285C23.8662 8.96628 24.7689 9.09344 25.5741 9.24117C26.276 9.36995 26.8899 9.51194 27.2658 9.63722L27.2341 9.64034L27.1895 9.67366C27.1512 9.70222 27.0898 9.76427 27.0886 9.86367C27.0875 9.957 27.1412 10.0187 27.1705 10.0462C27.2283 10.1005 27.3134 10.1369 27.3848 10.163C27.5424 10.2205 27.7818 10.2781 28.0663 10.3331C28.64 10.4439 29.4385 10.5517 30.2376 10.6252C31.0355 10.6985 31.8435 10.7386 32.4344 10.7113C32.7259 10.6979 32.9829 10.6675 33.1612 10.6082C33.247 10.5797 33.3444 10.5352 33.4108 10.457C33.4448 10.4169 33.472 10.3663 33.482 10.3063C33.5897 10.2808 33.7477 10.2511 33.9458 10.2199C34.428 10.144 35.1203 10.0639 35.8287 10.0181C36.5391 9.97223 37.2551 9.96159 37.7888 10.0212C38.0579 10.0512 38.2647 10.0975 38.3985 10.157C38.4649 10.1865 38.5016 10.2143 38.5198 10.2344C38.5348 10.2509 38.535 10.259 38.535 10.2645L38.7351 10.2645L38.9351 10.2645L38.9354 10.2638C38.9362 10.2626 38.9378 10.2602 38.9409 10.2569C38.9534 10.2438 38.9825 10.2221 39.0409 10.1988C39.1586 10.1521 39.3442 10.1189 39.5899 10.1051C40.0765 10.0776 40.7359 10.1288 41.4034 10.234C42.0703 10.3391 42.7318 10.496 43.2221 10.6745C43.4685 10.7642 43.6616 10.8558 43.7893 10.943C43.853 10.9866 43.8928 11.0239 43.9151 11.0528C43.9226 11.0626 43.9272 11.0701 43.93 11.0756C43.9353 11.0859 43.9341 11.0887 43.9341 11.0848C43.9341 11.2 43.9806 11.3139 44.0931 11.3819C44.1873 11.4388 44.298 11.4438 44.388 11.437C44.5725 11.4229 44.8142 11.3454 45.0748 11.2439C45.4168 11.1107 45.8363 10.9175 46.2757 10.7151C46.5122 10.6062 46.7544 10.4946 46.9934 10.3883C47.6907 10.0782 48.3614 9.8125 48.8513 9.73988C49.0995 9.70308 49.2624 9.72239 49.3558 9.77321C49.427 9.81193 49.4901 9.88649 49.4901 10.08L49.6901 10.08L49.8901 10.08C49.8901 9.75299 50.1651 9.36824 50.6798 8.99865C51.1809 8.6388 51.8565 8.33278 52.5355 8.15085C53.2186 7.96787 53.8781 7.91761 54.354 8.04163C54.5894 8.10296 54.7679 8.20366 54.887 8.33962C55.0036 8.47276 55.0775 8.6556 55.0775 8.91117L55.2775 8.91117L55.4775 8.91117C55.4775 8.93871 55.4675 8.97542 55.4393 9.00595C55.4148 9.03249 55.3902 9.03941 55.3864 9.04041C55.3859 9.04054 55.3861 9.04053 55.387 9.04046C55.3919 9.04012 55.4164 9.03842 55.4703 9.0469C55.5914 9.06598 55.7791 9.12226 56.0201 9.21457C56.4973 9.39733 57.1397 9.70416 57.7853 10.0649C58.4311 10.4258 59.0716 10.836 59.5478 11.2233C59.7864 11.4173 59.9776 11.6007 60.1074 11.7648C60.2421 11.935 60.2882 12.0563 60.2882 12.1305C60.2882 12.3362 60.4175 12.5415 60.5727 12.7178C60.7361 12.9034 60.9632 13.0958 61.2276 13.2792C61.7567 13.646 62.4601 13.9934 63.1669 14.1845C63.8669 14.3737 64.6084 14.4196 65.1858 14.132C65.7532 13.8493 66.1099 13.2733 66.1469 12.3533C66.1709 12.3488 66.1977 12.3439 66.2272 12.3385C66.3013 12.325 66.3892 12.3094 66.4898 12.2914C66.5996 12.2719 66.7246 12.2496 66.8635 12.2245C67.3911 12.1292 68.0964 11.9973 68.8025 11.8414C69.5069 11.6859 70.2194 11.5049 70.7587 11.3104C71.027 11.2136 71.2631 11.1098 71.4357 10.9985C71.5219 10.9429 71.6008 10.8801 71.66 10.8083C71.6632 10.8044 71.6664 10.8004 71.6696 10.7964C71.7011 10.8039 71.7347 10.8109 71.7696 10.8174C71.9307 10.8474 72.1545 10.8735 72.4164 10.8939C72.942 10.9349 73.64 10.9542 74.3377 10.9309C75.0332 10.9077 75.7402 10.8417 76.2784 10.7079C76.546 10.6414 76.7869 10.5545 76.9655 10.4378C77.1437 10.3213 77.2934 10.1507 77.2934 9.91595C77.2934 9.84968 77.3081 9.80789 77.3259 9.77996C77.3438 9.75196 77.3729 9.72479 77.4228 9.70127C77.5301 9.6507 77.7092 9.62837 77.9645 9.64971C78.4682 9.69183 79.1571 9.89302 79.863 10.1618C80.5649 10.4291 81.2671 10.7567 81.7921 11.0406C82.0551 11.1828 82.2694 11.3118 82.4157 11.4148C82.4895 11.4668 82.5403 11.5082 82.5705 11.538C82.577 11.5445 82.5817 11.5495 82.5849 11.5532C82.5892 11.5581 82.5908 11.5605 82.5908 11.5605C82.5906 11.5601 82.5873 11.5551 82.5838 11.5457C82.5826 11.5425 82.5811 11.5383 82.5798 11.5332C82.5772 11.5235 82.5749 11.5105 82.5749 11.4949L82.7749 11.4949L82.9749 11.4949C82.9749 11.4283 82.99 11.3847 83.0097 11.3537C83.0298 11.322 83.0628 11.2909 83.1181 11.2626C83.2355 11.2027 83.4259 11.1697 83.6928 11.1688C84.174 11.1671 84.806 11.2672 85.4744 11.3731C85.5422 11.3838 85.6104 11.3946 85.6788 11.4054C86.4067 11.5198 87.165 11.6298 87.7432 11.5847C88.0319 11.5622 88.3037 11.4995 88.5075 11.3563C88.56 11.3195 88.6068 11.2782 88.6476 11.2324C88.6729 11.2714 88.6999 11.3101 88.7281 11.3483C88.8949 11.5741 89.1281 11.8148 89.401 12.0533C89.9471 12.5307 90.6719 13.0164 91.3972 13.3737C92.115 13.7273 92.8654 13.9713 93.4534 13.9278C93.753 13.9057 94.0293 13.8072 94.2292 13.5905C94.4161 13.3881 94.5133 13.1073 94.5252 12.758C94.5519 12.7351 94.5897 12.7054 94.6385 12.6694C94.6567 12.656 94.6764 12.6417 94.6976 12.6265C94.8552 12.5139 95.0831 12.3632 95.3595 12.1902C95.9117 11.8444 96.6488 11.4144 97.3855 11.0287C98.1249 10.6415 98.8531 10.3046 99.391 10.1388C99.665 10.0544 99.8639 10.0228 99.9836 10.0351C99.9948 10.0362 100.004 10.0377 100.013 10.0393C100.025 10.0417 100.035 10.0445 100.042 10.0472C100.048 10.0494 100.052 10.0514 100.054 10.0528L100.056 10.0534C100.056 10.0535 100.056 10.0535 100.056 10.0536L100.056 10.0541C100.057 10.0566 100.059 10.0644 100.059 10.08C100.059 10.6544 100.509 11.0656 101.057 11.3617C101.616 11.6637 102.351 11.887 103.068 12.0609C103.616 12.1935 104.164 12.2999 104.629 12.39C104.775 12.4183 104.913 12.4451 105.04 12.4705C105.309 12.5243 105.523 12.5713 105.669 12.615C105.744 12.6373 105.789 12.6555 105.812 12.6681C105.818 12.6715 105.82 12.673 105.819 12.6722C105.818 12.6715 105.815 12.6689 105.81 12.6642C105.801 12.6538 105.772 12.6185 105.772 12.5612L105.972 12.5612L106.172 12.5612C106.172 12.2092 106.255 11.9449 106.388 11.7439C106.522 11.5424 106.716 11.3906 106.962 11.2795C107.461 11.0537 108.146 11.0068 108.865 11.0461C109.543 11.0832 110.223 11.1951 110.759 11.2832L110.839 11.2965C111.109 11.3408 111.345 11.3786 111.514 11.3921C111.595 11.3987 111.679 11.4013 111.747 11.3898C111.78 11.3843 111.83 11.3724 111.877 11.3401C111.88 11.3375 111.884 11.3349 111.888 11.3321C111.917 11.3343 111.955 11.3384 112.002 11.3447C112.155 11.365 112.377 11.4038 112.649 11.4558C113.072 11.5367 113.605 11.6474 114.165 11.7635C114.322 11.7962 114.482 11.8294 114.642 11.8625C115.368 12.0123 116.097 12.1598 116.646 12.2519C116.919 12.2977 117.154 12.3308 117.322 12.343C117.405 12.3489 117.483 12.3508 117.546 12.343C117.575 12.3393 117.619 12.3316 117.662 12.3095C117.702 12.2887 117.768 12.2379 117.783 12.1481C117.804 12.1311 117.844 12.1065 117.911 12.0773C118.05 12.0174 118.258 11.9572 118.523 11.8976C119.049 11.7792 119.756 11.6725 120.471 11.5698C120.581 11.554 120.691 11.5383 120.801 11.5227C121.401 11.4373 121.986 11.3539 122.443 11.2686C122.713 11.2183 122.947 11.1656 123.117 11.1088C123.158 11.0951 123.198 11.0802 123.236 11.0637C123.295 11.1257 123.37 11.18 123.45 11.2281C123.631 11.3368 123.879 11.4354 124.161 11.5244C124.728 11.7034 125.477 11.8572 126.219 11.9719C126.962 12.0868 127.708 12.164 128.27 12.1878C128.55 12.1996 128.792 12.1986 128.967 12.1805C129.053 12.1716 129.137 12.1575 129.204 12.1325C129.237 12.1201 129.28 12.1002 129.318 12.0663C129.325 12.0593 129.333 12.0513 129.341 12.0425C129.361 12.0451 129.387 12.0492 129.42 12.0556C129.571 12.0854 129.796 12.15 130.077 12.2392C130.3 12.3098 130.559 12.3962 130.839 12.4893C131.247 12.6251 131.698 12.7752 132.139 12.9112C132.889 13.1419 133.656 13.3466 134.241 13.3986C134.53 13.4243 134.803 13.4158 135.011 13.3346C135.119 13.2927 135.218 13.2279 135.29 13.1303C135.329 13.0774 135.356 13.0192 135.374 12.9571C135.394 12.9572 135.417 12.9576 135.442 12.9584C135.597 12.9629 135.821 12.9793 136.097 13.0021C136.225 13.0127 136.365 13.0247 136.512 13.0374C136.991 13.0786 137.556 13.1272 138.119 13.1607C138.854 13.2043 139.602 13.2233 140.169 13.1644C140.451 13.1353 140.706 13.0854 140.896 13C141.082 12.9161 141.266 12.7673 141.266 12.5202C141.266 12.4788 141.294 12.4028 141.428 12.2968C141.558 12.1945 141.755 12.0912 142.007 11.9926C142.509 11.7961 143.188 11.6349 143.874 11.5285C144.561 11.4221 145.241 11.3725 145.745 11.3935C146 11.4042 146.195 11.4324 146.321 11.4734C146.376 11.4913 146.407 11.5083 146.422 11.5195C146.427 11.6137 146.46 11.7219 146.561 11.7921C146.661 11.8621 146.778 11.8571 146.863 11.8412C147.033 11.8089 147.247 11.6967 147.47 11.5546C147.928 11.2627 148.53 10.7749 149.124 10.2505C149.72 9.72438 150.316 9.15438 150.765 8.69296C150.988 8.46256 151.177 8.25699 151.312 8.09627C151.378 8.01634 151.434 7.94402 151.475 7.88327C151.495 7.85311 151.514 7.82183 151.529 7.79122C151.54 7.76668 151.562 7.71796 151.562 7.66035C151.562 7.55141 151.582 7.48019 151.608 7.43375C151.633 7.38968 151.669 7.357 151.721 7.33309C151.837 7.28015 152.036 7.27097 152.327 7.33108C152.899 7.44936 153.681 7.80267 154.485 8.23384C155.282 8.66218 156.082 9.15691 156.683 9.54421C156.983 9.73768 157.233 9.90399 157.409 10.0214C157.489 10.0754 157.573 10.1313 157.613 10.1584C157.637 10.1742 157.656 10.1869 157.669 10.1956C157.676 10.1998 157.683 10.2043 157.689 10.2081C157.691 10.2094 157.698 10.2134 157.706 10.2175C157.708 10.2184 157.721 10.2253 157.739 10.2307C157.752 10.234 157.791 10.239 157.818 10.2378C157.88 10.221 157.98 10.1192 157.997 10.039C157.997 9.9636 158.028 9.90285 158.136 9.84493C158.256 9.78102 158.446 9.7366 158.705 9.71679C159.218 9.67751 159.913 9.7401 160.627 9.83235C160.982 9.87821 161.338 9.9308 161.673 9.9805L161.689 9.98295C162.017 10.0316 162.326 10.0775 162.592 10.1106C162.86 10.1439 163.096 10.1659 163.268 10.1627C163.351 10.1612 163.438 10.1537 163.51 10.1292C163.535 10.1207 163.57 10.1053 163.604 10.0805C163.604 10.0804 163.605 10.0802 163.606 10.0801C163.66 10.069 163.726 10.0462 163.796 10.019C163.94 9.96309 164.141 9.87197 164.376 9.75832C164.848 9.53016 165.475 9.20294 166.101 8.86113C166.726 8.51931 167.354 8.16124 167.825 7.87108C168.061 7.72636 168.261 7.59649 168.404 7.4929C168.474 7.4416 168.536 7.39315 168.582 7.35009C168.594 7.33797 168.608 7.32468 168.621 7.31045C168.646 7.31187 168.678 7.31433 168.716 7.31799C168.823 7.32809 168.964 7.34528 169.134 7.36602C169.196 7.37355 169.261 7.38155 169.33 7.38985C169.843 7.4515 170.535 7.52704 171.23 7.53225C171.92 7.53743 172.636 7.47387 173.186 7.24236C173.464 7.12558 173.71 6.962 173.886 6.73355C174.058 6.51028 174.156 6.23642 174.162 5.91098C174.183 5.89416 174.221 5.87031 174.285 5.84236C174.421 5.78289 174.626 5.72374 174.887 5.66827C175.405 5.55803 176.101 5.47048 176.803 5.41443C177.505 5.35842 178.203 5.33451 178.724 5.34962C178.986 5.35721 179.194 5.3745 179.333 5.4002C179.405 5.41341 179.445 5.42658 179.463 5.43496C179.498 5.45175 179.412 5.42532 179.412 5.32272L179.612 5.32272L179.812 5.32272C179.812 5.2795 179.824 5.26073 179.833 5.25021C179.844 5.23691 179.87 5.2166 179.927 5.20002C180.048 5.16508 180.247 5.16426 180.522 5.20844C181.065 5.29545 181.801 5.53908 182.551 5.84377C183.297 6.14729 184.043 6.50592 184.601 6.81538C184.88 6.97048 185.107 7.11075 185.263 7.22357C185.341 7.28049 185.395 7.32619 185.428 7.35976C185.444 7.37664 185.45 7.3857 185.451 7.38731C185.454 7.39162 185.439 7.37082 185.439 7.33226L185.639 7.33226L185.839 7.33226C185.839 7.34393 185.836 7.35212 185.834 7.35656C185.832 7.3621 185.83 7.36181 185.837 7.35517C185.853 7.34065 185.887 7.31754 185.952 7.29016C186.081 7.23573 186.276 7.18581 186.53 7.13716C186.813 7.0831 187.138 7.03537 187.49 6.98369C187.779 6.9412 188.087 6.89604 188.404 6.84253C189.088 6.72697 189.793 6.57506 190.33 6.33225C190.784 6.12729 191.174 5.83048 191.275 5.39008C191.295 5.39115 191.315 5.39212 191.335 5.39301C191.473 5.39893 191.661 5.40228 191.881 5.40621L191.98 5.40798C192.51 5.41759 193.21 5.43291 193.91 5.49127C194.612 5.5499 195.298 5.65091 195.803 5.82629C196.056 5.91412 196.249 6.01575 196.376 6.12844C196.498 6.23731 196.551 6.34874 196.551 6.47103L196.751 6.47103L196.951 6.47103C196.951 6.54315 196.914 6.58972 196.898 6.60683C196.88 6.62592 196.863 6.6369 196.855 6.64138C196.847 6.64653 196.839 6.65027 196.833 6.65277C196.828 6.65489 196.825 6.65612 196.824 6.65655C196.816 6.6594 196.811 6.66033 196.815 6.65951C196.819 6.65839 196.83 6.65606 196.849 6.65256C196.864 6.64991 196.882 6.64689 196.902 6.64355C196.934 6.63837 196.973 6.63243 197.019 6.62583C197.168 6.60422 197.383 6.57654 197.642 6.54773C198.159 6.4901 198.849 6.42842 199.537 6.40174C200.228 6.37496 200.907 6.38401 201.408 6.4638C201.66 6.50401 201.85 6.55971 201.972 6.62683C202.093 6.69331 202.107 6.74641 202.107 6.77861L202.307 6.77861L202.507 6.77861C202.507 6.82506 202.481 6.836 202.509 6.8096C202.533 6.78736 202.578 6.7562 202.651 6.71862C202.795 6.64428 203.011 6.56377 203.282 6.48292C203.82 6.32201 204.544 6.16935 205.272 6.06138C206 5.95326 206.72 5.89162 207.254 5.9087C207.523 5.91732 207.729 5.94567 207.861 5.99011C207.946 6.01835 207.972 6.0417 207.978 6.05053M226.891 9.2401C226.889 9.23813 226.886 9.2352 226.882 9.23131C226.858 9.21167 226.813 9.18356 226.74 9.14858C226.595 9.07954 226.38 9.00229 226.111 8.91776C225.714 8.79281 225.218 8.65844 224.693 8.5159C224.509 8.466 224.321 8.4151 224.133 8.36326C223.412 8.16482 222.68 7.95274 222.127 7.73456C221.852 7.62592 221.61 7.51153 221.433 7.39073C221.355 7.33681 221.282 7.2773 221.225 7.21105C221.162 7.22948 221.092 7.23943 221.023 7.24514C220.819 7.26212 220.538 7.24692 220.219 7.21606C219.812 7.17664 219.315 7.10862 218.791 7.03689C218.494 6.9961 218.187 6.95411 217.883 6.9155C217.035 6.80774 216.203 6.72557 215.587 6.75538C215.277 6.77041 215.042 6.81323 214.892 6.88175C214.751 6.94635 214.718 7.01392 214.718 7.08619L214.518 7.08619L214.318 7.08619C214.318 6.54337 213.981 6.06757 213.416 5.68732C212.852 5.30804 212.089 5.04572 211.318 4.93101C210.546 4.81607 209.788 4.85284 209.235 5.04862C208.684 5.24335 208.377 5.57365 208.377 6.04041L208.177 6.04041L207.977 6.04041C207.977 6.04497 207.978 6.04826 207.978 6.05053M226.891 9.2401C226.893 9.2425 226.894 9.24351 226.894 9.24309C226.894 9.2428 226.893 9.2418 226.891 9.2401ZM207.978 6.05053C207.979 6.05292 207.98 6.05417 207.98 6.0543C207.981 6.05445 207.98 6.05311 207.978 6.05053ZM404.804 7.67956C404.803 7.67947 404.803 7.67841 404.802 7.67639C404.803 7.67861 404.804 7.67964 404.804 7.67956ZM163.706 9.83944C163.708 9.8514 163.71 9.86333 163.71 9.87494L163.602 9.87494C163.631 9.86671 163.666 9.85477 163.706 9.83944Z" fill="white" stroke="#A4A2A2" stroke-width="0.4"/>
<line x1="4" y1="30.7" x2="425" y2="30.7" stroke="#A4A2A2" stroke-width="0.6"/>
<path d="M21.1895 50H20.2402V43.8945C20.2402 43.3867 20.2559 42.9062 20.2871 42.4531C20.2051 42.5352 20.1133 42.6211 20.0117 42.7109C19.9102 42.8008 19.4453 43.1816 18.6172 43.8535L18.1016 43.1855L20.3691 41.4336H21.1895V50ZM30.324 50H24.6931V49.1621L26.949 46.8945C27.6365 46.1992 28.0896 45.7031 28.3084 45.4062C28.5271 45.1094 28.6912 44.8203 28.8005 44.5391C28.9099 44.2578 28.9646 43.9551 28.9646 43.6309C28.9646 43.1738 28.8259 42.8125 28.5486 42.5469C28.2712 42.2773 27.8865 42.1426 27.3943 42.1426C27.0388 42.1426 26.7009 42.2012 26.3806 42.3184C26.0642 42.4355 25.7107 42.6484 25.3201 42.957L24.8045 42.2949C25.5935 41.6387 26.4529 41.3105 27.3826 41.3105C28.1873 41.3105 28.8181 41.5176 29.2752 41.9316C29.7322 42.3418 29.9607 42.8945 29.9607 43.5898C29.9607 44.1328 29.8084 44.6699 29.5037 45.2012C29.199 45.7324 28.6287 46.4043 27.7927 47.2168L25.9177 49.0508V49.0977H30.324V50ZM37.1089 43.4492C37.1089 43.9961 36.9546 44.4434 36.646 44.791C36.3413 45.1387 35.9077 45.3711 35.3452 45.4883V45.5352C36.0327 45.6211 36.5425 45.8398 36.8745 46.1914C37.2066 46.543 37.3726 47.0039 37.3726 47.5742C37.3726 48.3906 37.0894 49.0195 36.523 49.4609C35.9566 49.8984 35.1519 50.1172 34.1089 50.1172C33.6558 50.1172 33.2398 50.082 32.8609 50.0117C32.4859 49.9453 32.1206 49.8262 31.7652 49.6543V48.7285C32.1362 48.9121 32.5308 49.0527 32.9487 49.1504C33.3706 49.2441 33.7691 49.291 34.1441 49.291C35.6245 49.291 36.3648 48.7109 36.3648 47.5508C36.3648 46.5117 35.5484 45.9922 33.9155 45.9922H33.0718V45.1543H33.9273C34.5952 45.1543 35.1245 45.0078 35.5152 44.7148C35.9058 44.418 36.1011 44.0078 36.1011 43.4844C36.1011 43.0664 35.9566 42.7383 35.6675 42.5C35.3823 42.2617 34.9937 42.1426 34.5015 42.1426C34.1265 42.1426 33.773 42.1934 33.4409 42.2949C33.1089 42.3965 32.73 42.584 32.3042 42.8574L31.812 42.2012C32.1636 41.9238 32.5679 41.707 33.0249 41.5508C33.4859 41.3906 33.9702 41.3105 34.478 41.3105C35.3101 41.3105 35.9566 41.502 36.4175 41.8848C36.8784 42.2637 37.1089 42.7852 37.1089 43.4492ZM44.9427 48.0312H43.6712V50H42.7395V48.0312H38.5735V47.1816L42.6399 41.3867H43.6712V47.1465H44.9427V48.0312ZM42.7395 47.1465V44.2988C42.7395 43.7402 42.7591 43.1094 42.7981 42.4062H42.7512C42.5637 42.7812 42.388 43.0918 42.2239 43.3379L39.5462 47.1465H42.7395ZM48.6924 44.7676C49.5948 44.7676 50.3037 44.9922 50.8194 45.4414C51.3389 45.8867 51.5987 46.498 51.5987 47.2754C51.5987 48.1621 51.3155 48.8574 50.7491 49.3613C50.1866 49.8652 49.4092 50.1172 48.417 50.1172C47.4522 50.1172 46.7159 49.9629 46.208 49.6543V48.7168C46.4815 48.8926 46.8213 49.0312 47.2276 49.1328C47.6338 49.2305 48.0342 49.2793 48.4287 49.2793C49.1162 49.2793 49.6495 49.1172 50.0284 48.793C50.4112 48.4688 50.6026 48 50.6026 47.3867C50.6026 46.1914 49.8702 45.5938 48.4053 45.5938C48.0342 45.5938 47.5381 45.6504 46.917 45.7637L46.4131 45.4414L46.7354 41.4336H50.9952V42.3301H47.5674L47.3506 44.9023C47.7998 44.8125 48.2471 44.7676 48.6924 44.7676ZM53.2215 46.3379C53.2215 44.6543 53.5477 43.3965 54.2 42.5645C54.8563 41.7285 55.825 41.3105 57.1063 41.3105C57.5477 41.3105 57.8953 41.3477 58.1492 41.4219V42.2598C57.8484 42.1621 57.5047 42.1133 57.118 42.1133C56.2 42.1133 55.4988 42.4004 55.0145 42.9746C54.5301 43.5449 54.2645 44.4434 54.2176 45.6699H54.2879C54.7176 44.998 55.3973 44.6621 56.327 44.6621C57.0965 44.6621 57.702 44.8945 58.1434 45.3594C58.5887 45.8242 58.8113 46.4551 58.8113 47.252C58.8113 48.1426 58.5672 48.8438 58.0789 49.3555C57.5945 49.8633 56.9383 50.1172 56.1102 50.1172C55.2234 50.1172 54.5203 49.7852 54.0008 49.1211C53.4813 48.4531 53.2215 47.5254 53.2215 46.3379ZM56.0984 49.291C56.6531 49.291 57.0828 49.1172 57.3875 48.7695C57.6961 48.418 57.8504 47.9121 57.8504 47.252C57.8504 46.6855 57.7078 46.2402 57.4227 45.916C57.1375 45.5918 56.7117 45.4297 56.1453 45.4297C55.7938 45.4297 55.4715 45.502 55.1785 45.6465C54.8855 45.791 54.6512 45.9902 54.4754 46.2441C54.3035 46.498 54.2176 46.7617 54.2176 47.0352C54.2176 47.4375 54.2957 47.8125 54.452 48.1602C54.6082 48.5078 54.8289 48.7832 55.1141 48.9863C55.4031 49.1895 55.7313 49.291 56.0984 49.291ZM61.313 50L64.8638 42.3301H60.1939V41.4336H65.8951V42.2129L62.3912 50H61.313ZM70.1722 41.3105C70.9534 41.3105 71.5726 41.4922 72.0296 41.8555C72.4866 42.2188 72.7152 42.7207 72.7152 43.3613C72.7152 43.7832 72.5843 44.168 72.3226 44.5156C72.0609 44.8633 71.6429 45.1797 71.0687 45.4648C71.764 45.7969 72.2581 46.1465 72.5511 46.5137C72.8441 46.877 72.9905 47.2988 72.9905 47.7793C72.9905 48.4902 72.7425 49.0586 72.2464 49.4844C71.7503 49.9062 71.0706 50.1172 70.2073 50.1172C69.2933 50.1172 68.5902 49.918 68.098 49.5195C67.6058 49.1172 67.3597 48.5488 67.3597 47.8145C67.3597 46.834 67.9573 46.0703 69.1527 45.5234C68.6136 45.2188 68.2269 44.8906 67.9925 44.5391C67.7581 44.1836 67.6409 43.7871 67.6409 43.3496C67.6409 42.7285 67.8695 42.2344 68.3265 41.8672C68.7874 41.4961 69.4027 41.3105 70.1722 41.3105ZM68.3206 47.8379C68.3206 48.3066 68.4827 48.6719 68.807 48.9336C69.1351 49.1953 69.5941 49.3262 70.1839 49.3262C70.7659 49.3262 71.2191 49.1895 71.5433 48.916C71.8675 48.6426 72.0296 48.2676 72.0296 47.791C72.0296 47.4121 71.8773 47.0762 71.5726 46.7832C71.2679 46.4863 70.7366 46.1992 69.9788 45.9219C69.3968 46.1719 68.9749 46.4492 68.7132 46.7539C68.4515 47.0547 68.3206 47.416 68.3206 47.8379ZM70.1605 42.1016C69.6722 42.1016 69.2894 42.2188 69.012 42.4531C68.7347 42.6875 68.596 43 68.596 43.3906C68.596 43.75 68.7113 44.0586 68.9417 44.3164C69.1722 44.5742 69.598 44.832 70.2191 45.0898C70.7777 44.8555 71.1722 44.6035 71.4027 44.334C71.637 44.0645 71.7542 43.75 71.7542 43.3906C71.7542 42.9961 71.6116 42.6836 71.3265 42.4531C71.0452 42.2188 70.6566 42.1016 70.1605 42.1016ZM80.0743 45.0898C80.0743 48.4414 78.7774 50.1172 76.1837 50.1172C75.7305 50.1172 75.3712 50.0781 75.1055 50V49.1621C75.418 49.2637 75.7735 49.3145 76.172 49.3145C77.1095 49.3145 77.8165 49.0254 78.293 48.4473C78.7735 47.8652 79.0352 46.9746 79.0782 45.7754H79.0079C78.793 46.0996 78.5079 46.3477 78.1524 46.5195C77.797 46.6875 77.3966 46.7715 76.9512 46.7715C76.1934 46.7715 75.5919 46.5449 75.1466 46.0918C74.7012 45.6387 74.4786 45.0059 74.4786 44.1934C74.4786 43.3027 74.7266 42.5996 75.2227 42.084C75.7227 41.5684 76.379 41.3105 77.1915 41.3105C77.7735 41.3105 78.2813 41.4609 78.7149 41.7617C79.1524 42.0586 79.4884 42.4941 79.7227 43.0684C79.9571 43.6387 80.0743 44.3125 80.0743 45.0898ZM77.1915 42.1426C76.6329 42.1426 76.2012 42.3223 75.8966 42.6816C75.5919 43.041 75.4395 43.541 75.4395 44.1816C75.4395 44.7441 75.5802 45.1875 75.8614 45.5117C76.1427 45.832 76.5704 45.9922 77.1446 45.9922C77.5001 45.9922 77.8262 45.9199 78.1231 45.7754C78.4239 45.6309 78.6602 45.4336 78.8321 45.1836C79.004 44.9336 79.0899 44.6719 79.0899 44.3984C79.0899 43.9883 79.0098 43.6094 78.8497 43.2617C78.6895 42.9141 78.4649 42.6406 78.1759 42.4414C77.8907 42.2422 77.5626 42.1426 77.1915 42.1426Z" fill="#767676"/>
<line x1="7.5" y1="42" x2="7.5" y2="48" stroke="#767676"/>
<line x1="11.5" y1="38" x2="11.5" y2="42" stroke="#767676"/>
<line x1="11.5" y1="47" x2="11.5" y2="51" stroke="#767676"/>
<path d="M103.264 45.7051C103.264 47.1855 103.029 48.291 102.561 49.0215C102.096 49.752 101.383 50.1172 100.422 50.1172C99.5 50.1172 98.7988 49.7441 98.3184 48.998C97.8379 48.248 97.5977 47.1504 97.5977 45.7051C97.5977 44.2129 97.8301 43.1055 98.2949 42.3828C98.7598 41.6602 99.4688 41.2988 100.422 41.2988C101.352 41.2988 102.057 41.6758 102.537 42.4297C103.021 43.1836 103.264 44.2754 103.264 45.7051ZM98.582 45.7051C98.582 46.9512 98.7285 47.8594 99.0215 48.4297C99.3145 48.9961 99.7812 49.2793 100.422 49.2793C101.07 49.2793 101.539 48.9922 101.828 48.418C102.121 47.8398 102.268 46.9355 102.268 45.7051C102.268 44.4746 102.121 43.5742 101.828 43.0039C101.539 42.4297 101.07 42.1426 100.422 42.1426C99.7812 42.1426 99.3145 42.4258 99.0215 42.9922C98.7285 43.5547 98.582 44.459 98.582 45.7051ZM110.371 45.7051C110.371 47.1855 110.136 48.291 109.668 49.0215C109.203 49.752 108.49 50.1172 107.529 50.1172C106.607 50.1172 105.906 49.7441 105.426 48.998C104.945 48.248 104.705 47.1504 104.705 45.7051C104.705 44.2129 104.937 43.1055 105.402 42.3828C105.867 41.6602 106.576 41.2988 107.529 41.2988C108.459 41.2988 109.164 41.6758 109.644 42.4297C110.129 43.1836 110.371 44.2754 110.371 45.7051ZM105.689 45.7051C105.689 46.9512 105.836 47.8594 106.129 48.4297C106.422 48.9961 106.888 49.2793 107.529 49.2793C108.177 49.2793 108.646 48.9922 108.935 48.418C109.228 47.8398 109.375 46.9355 109.375 45.7051C109.375 44.4746 109.228 43.5742 108.935 43.0039C108.646 42.4297 108.177 42.1426 107.529 42.1426C106.888 42.1426 106.422 42.4258 106.129 42.9922C105.836 43.5547 105.689 44.459 105.689 45.7051ZM117.478 45.7051C117.478 47.1855 117.244 48.291 116.775 49.0215C116.31 49.752 115.597 50.1172 114.636 50.1172C113.714 50.1172 113.013 49.7441 112.533 48.998C112.052 48.248 111.812 47.1504 111.812 45.7051C111.812 44.2129 112.044 43.1055 112.509 42.3828C112.974 41.6602 113.683 41.2988 114.636 41.2988C115.566 41.2988 116.271 41.6758 116.751 42.4297C117.236 43.1836 117.478 44.2754 117.478 45.7051ZM112.796 45.7051C112.796 46.9512 112.943 47.8594 113.236 48.4297C113.529 48.9961 113.996 49.2793 114.636 49.2793C115.285 49.2793 115.753 48.9922 116.042 48.418C116.335 47.8398 116.482 46.9355 116.482 45.7051C116.482 44.4746 116.335 43.5742 116.042 43.0039C115.753 42.4297 115.285 42.1426 114.636 42.1426C113.996 42.1426 113.529 42.4258 113.236 42.9922C112.943 43.5547 112.796 44.459 112.796 45.7051ZM122.511 50H121.562V43.8945C121.562 43.3867 121.577 42.9062 121.609 42.4531C121.527 42.5352 121.435 42.6211 121.333 42.7109C121.232 42.8008 120.767 43.1816 119.939 43.8535L119.423 43.1855L121.691 41.4336H122.511V50ZM131.646 50H126.015V49.1621L128.271 46.8945C128.958 46.1992 129.411 45.7031 129.63 45.4062C129.849 45.1094 130.013 44.8203 130.122 44.5391C130.231 44.2578 130.286 43.9551 130.286 43.6309C130.286 43.1738 130.147 42.8125 129.87 42.5469C129.593 42.2773 129.208 42.1426 128.716 42.1426C128.36 42.1426 128.022 42.2012 127.702 42.3184C127.386 42.4355 127.032 42.6484 126.642 42.957L126.126 42.2949C126.915 41.6387 127.774 41.3105 128.704 41.3105C129.509 41.3105 130.14 41.5176 130.597 41.9316C131.054 42.3418 131.282 42.8945 131.282 43.5898C131.282 44.1328 131.13 44.6699 130.825 45.2012C130.521 45.7324 129.95 46.4043 129.114 47.2168L127.239 49.0508V49.0977H131.646V50ZM138.43 43.4492C138.43 43.9961 138.276 44.4434 137.968 44.791C137.663 45.1387 137.229 45.3711 136.667 45.4883V45.5352C137.354 45.6211 137.864 45.8398 138.196 46.1914C138.528 46.543 138.694 47.0039 138.694 47.5742C138.694 48.3906 138.411 49.0195 137.845 49.4609C137.278 49.8984 136.473 50.1172 135.43 50.1172C134.977 50.1172 134.561 50.082 134.182 50.0117C133.807 49.9453 133.442 49.8262 133.087 49.6543V48.7285C133.458 48.9121 133.852 49.0527 134.27 49.1504C134.692 49.2441 135.091 49.291 135.466 49.291C136.946 49.291 137.686 48.7109 137.686 47.5508C137.686 46.5117 136.87 45.9922 135.237 45.9922H134.393V45.1543H135.249C135.917 45.1543 136.446 45.0078 136.837 44.7148C137.227 44.418 137.423 44.0078 137.423 43.4844C137.423 43.0664 137.278 42.7383 136.989 42.5C136.704 42.2617 136.315 42.1426 135.823 42.1426C135.448 42.1426 135.095 42.1934 134.763 42.2949C134.43 42.3965 134.052 42.584 133.626 42.8574L133.134 42.2012C133.485 41.9238 133.889 41.707 134.346 41.5508C134.807 41.3906 135.292 41.3105 135.8 41.3105C136.632 41.3105 137.278 41.502 137.739 41.8848C138.2 42.2637 138.43 42.7852 138.43 43.4492ZM146.264 48.0312H144.993V50H144.061V48.0312H139.895V47.1816L143.961 41.3867H144.993V47.1465H146.264V48.0312ZM144.061 47.1465V44.2988C144.061 43.7402 144.081 43.1094 144.12 42.4062H144.073C143.885 42.7812 143.71 43.0918 143.545 43.3379L140.868 47.1465H144.061ZM150.014 44.7676C150.916 44.7676 151.625 44.9922 152.141 45.4414C152.66 45.8867 152.92 46.498 152.92 47.2754C152.92 48.1621 152.637 48.8574 152.071 49.3613C151.508 49.8652 150.731 50.1172 149.739 50.1172C148.774 50.1172 148.037 49.9629 147.53 49.6543V48.7168C147.803 48.8926 148.143 49.0312 148.549 49.1328C148.955 49.2305 149.356 49.2793 149.75 49.2793C150.438 49.2793 150.971 49.1172 151.35 48.793C151.733 48.4688 151.924 48 151.924 47.3867C151.924 46.1914 151.192 45.5938 149.727 45.5938C149.356 45.5938 148.86 45.6504 148.239 45.7637L147.735 45.4414L148.057 41.4336H152.317V42.3301H148.889L148.672 44.9023C149.121 44.8125 149.569 44.7676 150.014 44.7676ZM154.543 46.3379C154.543 44.6543 154.869 43.3965 155.522 42.5645C156.178 41.7285 157.147 41.3105 158.428 41.3105C158.869 41.3105 159.217 41.3477 159.471 41.4219V42.2598C159.17 42.1621 158.826 42.1133 158.44 42.1133C157.522 42.1133 156.82 42.4004 156.336 42.9746C155.852 43.5449 155.586 44.4434 155.539 45.6699H155.609C156.039 44.998 156.719 44.6621 157.649 44.6621C158.418 44.6621 159.024 44.8945 159.465 45.3594C159.91 45.8242 160.133 46.4551 160.133 47.252C160.133 48.1426 159.889 48.8438 159.4 49.3555C158.916 49.8633 158.26 50.1172 157.432 50.1172C156.545 50.1172 155.842 49.7852 155.322 49.1211C154.803 48.4531 154.543 47.5254 154.543 46.3379ZM157.42 49.291C157.975 49.291 158.404 49.1172 158.709 48.7695C159.018 48.418 159.172 47.9121 159.172 47.252C159.172 46.6855 159.029 46.2402 158.744 45.916C158.459 45.5918 158.033 45.4297 157.467 45.4297C157.115 45.4297 156.793 45.502 156.5 45.6465C156.207 45.791 155.973 45.9902 155.797 46.2441C155.625 46.498 155.539 46.7617 155.539 47.0352C155.539 47.4375 155.617 47.8125 155.774 48.1602C155.93 48.5078 156.15 48.7832 156.436 48.9863C156.725 49.1895 157.053 49.291 157.42 49.291ZM162.635 50L166.185 42.3301H161.515V41.4336H167.217V42.2129L163.713 50H162.635ZM171.494 41.3105C172.275 41.3105 172.894 41.4922 173.351 41.8555C173.808 42.2188 174.037 42.7207 174.037 43.3613C174.037 43.7832 173.906 44.168 173.644 44.5156C173.382 44.8633 172.964 45.1797 172.39 45.4648C173.086 45.7969 173.58 46.1465 173.873 46.5137C174.166 46.877 174.312 47.2988 174.312 47.7793C174.312 48.4902 174.064 49.0586 173.568 49.4844C173.072 49.9062 172.392 50.1172 171.529 50.1172C170.615 50.1172 169.912 49.918 169.42 49.5195C168.927 49.1172 168.681 48.5488 168.681 47.8145C168.681 46.834 169.279 46.0703 170.474 45.5234C169.935 45.2188 169.548 44.8906 169.314 44.5391C169.08 44.1836 168.963 43.7871 168.963 43.3496C168.963 42.7285 169.191 42.2344 169.648 41.8672C170.109 41.4961 170.724 41.3105 171.494 41.3105ZM169.642 47.8379C169.642 48.3066 169.804 48.6719 170.129 48.9336C170.457 49.1953 170.916 49.3262 171.505 49.3262C172.088 49.3262 172.541 49.1895 172.865 48.916C173.189 48.6426 173.351 48.2676 173.351 47.791C173.351 47.4121 173.199 47.0762 172.894 46.7832C172.589 46.4863 172.058 46.1992 171.3 45.9219C170.718 46.1719 170.296 46.4492 170.035 46.7539C169.773 47.0547 169.642 47.416 169.642 47.8379ZM171.482 42.1016C170.994 42.1016 170.611 42.2188 170.334 42.4531C170.056 42.6875 169.918 43 169.918 43.3906C169.918 43.75 170.033 44.0586 170.263 44.3164C170.494 44.5742 170.92 44.832 171.541 45.0898C172.099 44.8555 172.494 44.6035 172.724 44.334C172.959 44.0645 173.076 43.75 173.076 43.3906C173.076 42.9961 172.933 42.6836 172.648 42.4531C172.367 42.2188 171.978 42.1016 171.482 42.1016ZM181.396 45.0898C181.396 48.4414 180.099 50.1172 177.505 50.1172C177.052 50.1172 176.693 50.0781 176.427 50V49.1621C176.74 49.2637 177.095 49.3145 177.494 49.3145C178.431 49.3145 179.138 49.0254 179.615 48.4473C180.095 47.8652 180.357 46.9746 180.4 45.7754H180.329C180.115 46.0996 179.829 46.3477 179.474 46.5195C179.119 46.6875 178.718 46.7715 178.273 46.7715C177.515 46.7715 176.913 46.5449 176.468 46.0918C176.023 45.6387 175.8 45.0059 175.8 44.1934C175.8 43.3027 176.048 42.5996 176.544 42.084C177.044 41.5684 177.701 41.3105 178.513 41.3105C179.095 41.3105 179.603 41.4609 180.036 41.7617C180.474 42.0586 180.81 42.4941 181.044 43.0684C181.279 43.6387 181.396 44.3125 181.396 45.0898ZM178.513 42.1426C177.954 42.1426 177.523 42.3223 177.218 42.6816C176.913 43.041 176.761 43.541 176.761 44.1816C176.761 44.7441 176.902 45.1875 177.183 45.5117C177.464 45.832 177.892 45.9922 178.466 45.9922C178.822 45.9922 179.148 45.9199 179.445 45.7754C179.745 45.6309 179.982 45.4336 180.154 45.1836C180.326 44.9336 180.411 44.6719 180.411 44.3984C180.411 43.9883 180.331 43.6094 180.171 43.2617C180.011 42.9141 179.786 42.6406 179.497 42.4414C179.212 42.2422 178.884 42.1426 178.513 42.1426Z" fill="#767676"/>
<line x1="87.5" y1="42" x2="87.5" y2="48" stroke="#767676"/>
<line x1="91.5" y1="38" x2="91.5" y2="42" stroke="#767676"/>
<path d="M201.189 50H200.24V43.8945C200.24 43.3867 200.256 42.9062 200.287 42.4531C200.205 42.5352 200.113 42.6211 200.012 42.7109C199.91 42.8008 199.445 43.1816 198.617 43.8535L198.102 43.1855L200.369 41.4336H201.189V50ZM210.324 50H204.693V49.1621L206.949 46.8945C207.636 46.1992 208.09 45.7031 208.308 45.4062C208.527 45.1094 208.691 44.8203 208.801 44.5391C208.91 44.2578 208.965 43.9551 208.965 43.6309C208.965 43.1738 208.826 42.8125 208.549 42.5469C208.271 42.2773 207.886 42.1426 207.394 42.1426C207.039 42.1426 206.701 42.2012 206.381 42.3184C206.064 42.4355 205.711 42.6484 205.32 42.957L204.804 42.2949C205.594 41.6387 206.453 41.3105 207.383 41.3105C208.187 41.3105 208.818 41.5176 209.275 41.9316C209.732 42.3418 209.961 42.8945 209.961 43.5898C209.961 44.1328 209.808 44.6699 209.504 45.2012C209.199 45.7324 208.629 46.4043 207.793 47.2168L205.918 49.0508V49.0977H210.324V50ZM217.109 43.4492C217.109 43.9961 216.955 44.4434 216.646 44.791C216.341 45.1387 215.908 45.3711 215.345 45.4883V45.5352C216.033 45.6211 216.542 45.8398 216.875 46.1914C217.207 46.543 217.373 47.0039 217.373 47.5742C217.373 48.3906 217.089 49.0195 216.523 49.4609C215.957 49.8984 215.152 50.1172 214.109 50.1172C213.656 50.1172 213.24 50.082 212.861 50.0117C212.486 49.9453 212.121 49.8262 211.765 49.6543V48.7285C212.136 48.9121 212.531 49.0527 212.949 49.1504C213.371 49.2441 213.769 49.291 214.144 49.291C215.625 49.291 216.365 48.7109 216.365 47.5508C216.365 46.5117 215.548 45.9922 213.916 45.9922H213.072V45.1543H213.927C214.595 45.1543 215.125 45.0078 215.515 44.7148C215.906 44.418 216.101 44.0078 216.101 43.4844C216.101 43.0664 215.957 42.7383 215.667 42.5C215.382 42.2617 214.994 42.1426 214.501 42.1426C214.126 42.1426 213.773 42.1934 213.441 42.2949C213.109 42.3965 212.73 42.584 212.304 42.8574L211.812 42.2012C212.164 41.9238 212.568 41.707 213.025 41.5508C213.486 41.3906 213.97 41.3105 214.478 41.3105C215.31 41.3105 215.957 41.502 216.417 41.8848C216.878 42.2637 217.109 42.7852 217.109 43.4492ZM224.943 48.0312H223.671V50H222.74V48.0312H218.574V47.1816L222.64 41.3867H223.671V47.1465H224.943V48.0312ZM222.74 47.1465V44.2988C222.74 43.7402 222.759 43.1094 222.798 42.4062H222.751C222.564 42.7812 222.388 43.0918 222.224 43.3379L219.546 47.1465H222.74Z" fill="#767676"/>
<line x1="187.5" y1="42" x2="187.5" y2="48" stroke="#767676"/>
<line x1="191.5" y1="38" x2="191.5" y2="42" stroke="#767676"/>
<line x1="191.5" y1="47" x2="191.5" y2="51" stroke="#767676"/>
<path d="M12.8115 81.0312V84H11.9814V76.8613H13.9395C14.8151 76.8613 15.4613 77.029 15.8779 77.3643C16.2979 77.6995 16.5078 78.2041 16.5078 78.8779C16.5078 79.8219 16.0293 80.46 15.0723 80.792L17.0107 84H16.0293L14.3008 81.0312H12.8115ZM12.8115 80.3184H13.9492C14.5352 80.3184 14.9648 80.2028 15.2383 79.9717C15.5117 79.7373 15.6484 79.3874 15.6484 78.9219C15.6484 78.4499 15.5085 78.1097 15.2285 77.9014C14.9518 77.693 14.5059 77.5889 13.8906 77.5889H12.8115V80.3184ZM22.8602 81.3193C22.8602 82.1917 22.6404 82.8737 22.201 83.3652C21.7615 83.8535 21.1544 84.0977 20.3797 84.0977C19.9012 84.0977 19.4764 83.9854 19.1053 83.7607C18.7342 83.5361 18.4477 83.2139 18.2459 82.7939C18.0441 82.374 17.9432 81.8825 17.9432 81.3193C17.9432 80.4469 18.1613 79.7682 18.5975 79.2832C19.0337 78.7949 19.6391 78.5508 20.4139 78.5508C21.1626 78.5508 21.7566 78.7998 22.1961 79.2979C22.6388 79.7959 22.8602 80.4697 22.8602 81.3193ZM18.783 81.3193C18.783 82.0029 18.9197 82.5238 19.1932 82.8818C19.4666 83.2399 19.8686 83.4189 20.3992 83.4189C20.9298 83.4189 21.3318 83.2415 21.6053 82.8867C21.882 82.5286 22.0203 82.0062 22.0203 81.3193C22.0203 80.639 21.882 80.123 21.6053 79.7715C21.3318 79.4167 20.9266 79.2393 20.3895 79.2393C19.8589 79.2393 19.4585 79.4134 19.1883 79.7617C18.9181 80.11 18.783 80.6292 18.783 81.3193ZM25.2477 78.6484V82.1201C25.2477 82.5563 25.3469 82.8818 25.5455 83.0967C25.7441 83.3115 26.0549 83.4189 26.4781 83.4189C27.038 83.4189 27.4465 83.266 27.7037 82.96C27.9641 82.654 28.0943 82.1543 28.0943 81.4609V78.6484H28.9049V84H28.2359L28.1187 83.2822H28.0748C27.9088 83.5459 27.6777 83.7477 27.3814 83.8877C27.0885 84.0277 26.7532 84.0977 26.3756 84.0977C25.7245 84.0977 25.2363 83.943 24.9107 83.6338C24.5885 83.3245 24.4273 82.8298 24.4273 82.1494V78.6484H25.2477ZM32.557 83.4287C32.7003 83.4287 32.8386 83.4189 32.9721 83.3994C33.1055 83.3766 33.2113 83.3538 33.2895 83.3311V83.9512C33.2016 83.9935 33.0714 84.0277 32.8988 84.0537C32.7296 84.083 32.5766 84.0977 32.4398 84.0977C31.4047 84.0977 30.8871 83.5524 30.8871 82.4619V79.2783H30.1205V78.8877L30.8871 78.5508L31.2289 77.4082H31.6977V78.6484H33.2504V79.2783H31.6977V82.4277C31.6977 82.75 31.7742 82.9974 31.9271 83.1699C32.0801 83.3424 32.2901 83.4287 32.557 83.4287ZM35.3742 84H34.5637V78.6484H35.3742V84ZM34.4953 77.1982C34.4953 77.0127 34.5409 76.8776 34.632 76.793C34.7232 76.7051 34.8371 76.6611 34.9738 76.6611C35.104 76.6611 35.2163 76.7051 35.3107 76.793C35.4051 76.8809 35.4523 77.016 35.4523 77.1982C35.4523 77.3805 35.4051 77.5173 35.3107 77.6084C35.2163 77.6963 35.104 77.7402 34.9738 77.7402C34.8371 77.7402 34.7232 77.6963 34.632 77.6084C34.5409 77.5173 34.4953 77.3805 34.4953 77.1982ZM40.9551 84V80.5381C40.9551 80.1019 40.8558 79.7764 40.6572 79.5615C40.4587 79.3467 40.1478 79.2393 39.7246 79.2393C39.1647 79.2393 38.7546 79.3906 38.4941 79.6934C38.2337 79.9961 38.1035 80.4958 38.1035 81.1924V84H37.293V78.6484H37.9521L38.084 79.3809H38.123C38.2891 79.1172 38.5218 78.9137 38.8213 78.7705C39.1208 78.624 39.4544 78.5508 39.8223 78.5508C40.4668 78.5508 40.9518 78.707 41.2773 79.0195C41.6029 79.3288 41.7656 79.8252 41.7656 80.5088V84H40.9551ZM48.0154 78.6484V79.1611L47.0242 79.2783C47.1154 79.3923 47.1967 79.542 47.2684 79.7275C47.34 79.9098 47.3758 80.1165 47.3758 80.3477C47.3758 80.8717 47.1967 81.29 46.8387 81.6025C46.4806 81.915 45.9891 82.0713 45.3641 82.0713C45.2046 82.0713 45.0548 82.0583 44.9148 82.0322C44.5698 82.2145 44.3973 82.444 44.3973 82.7207C44.3973 82.8672 44.4575 82.9762 44.5779 83.0479C44.6984 83.1162 44.9051 83.1504 45.198 83.1504H46.1453C46.7247 83.1504 47.1691 83.2725 47.4783 83.5166C47.7908 83.7607 47.9471 84.1156 47.9471 84.5811C47.9471 85.1735 47.7094 85.6243 47.2342 85.9336C46.7589 86.2461 46.0656 86.4023 45.1541 86.4023C44.4542 86.4023 43.9139 86.2721 43.533 86.0117C43.1554 85.7513 42.9666 85.3835 42.9666 84.9082C42.9666 84.5827 43.0708 84.3011 43.2791 84.0635C43.4874 83.8258 43.7804 83.6647 44.158 83.5801C44.0213 83.5182 43.9057 83.4222 43.8113 83.292C43.7202 83.1618 43.6746 83.0104 43.6746 82.8379C43.6746 82.6426 43.7267 82.4717 43.8309 82.3252C43.935 82.1787 44.0994 82.0371 44.324 81.9004C44.0473 81.7865 43.8211 81.5928 43.6453 81.3193C43.4728 81.0459 43.3865 80.7334 43.3865 80.3818C43.3865 79.7959 43.5623 79.3451 43.9139 79.0293C44.2654 78.7103 44.7635 78.5508 45.408 78.5508C45.688 78.5508 45.9402 78.5833 46.1648 78.6484H48.0154ZM43.7479 84.8984C43.7479 85.1882 43.8699 85.4079 44.1141 85.5576C44.3582 85.7074 44.7081 85.7822 45.1639 85.7822C45.8442 85.7822 46.3471 85.6797 46.6727 85.4746C47.0014 85.2728 47.1658 84.9977 47.1658 84.6494C47.1658 84.3597 47.0763 84.1579 46.8973 84.0439C46.7182 83.9333 46.3813 83.8779 45.8865 83.8779H44.9148C44.547 83.8779 44.2605 83.9658 44.0555 84.1416C43.8504 84.3174 43.7479 84.5697 43.7479 84.8984ZM44.1873 80.3623C44.1873 80.7367 44.2931 81.0199 44.5047 81.2119C44.7163 81.404 45.0109 81.5 45.3885 81.5C46.1795 81.5 46.575 81.1159 46.575 80.3477C46.575 79.5436 46.1746 79.1416 45.3738 79.1416C44.993 79.1416 44.7 79.2441 44.4949 79.4492C44.2898 79.6543 44.1873 79.9587 44.1873 80.3623ZM57.81 84H56.8627L52.9613 78.0088H52.9223C52.9743 78.7119 53.0004 79.3564 53.0004 79.9424V84H52.2338V76.8613H53.1713L57.0629 82.8281H57.102C57.0954 82.7402 57.0808 82.4587 57.058 81.9834C57.0352 81.5049 57.0271 81.1631 57.0336 80.958V76.8613H57.81V84ZM60.6125 78.6484V82.1201C60.6125 82.5563 60.7118 82.8818 60.9104 83.0967C61.1089 83.3115 61.4198 83.4189 61.843 83.4189C62.4029 83.4189 62.8114 83.266 63.0686 82.96C63.329 82.654 63.4592 82.1543 63.4592 81.4609V78.6484H64.2697V84H63.6008L63.4836 83.2822H63.4396C63.2736 83.5459 63.0425 83.7477 62.7463 83.8877C62.4533 84.0277 62.118 84.0977 61.7404 84.0977C61.0894 84.0977 60.6011 83.943 60.2756 83.6338C59.9533 83.3245 59.7922 82.8298 59.7922 82.1494V78.6484H60.6125ZM73.0146 84V80.5186C73.0146 80.0921 72.9235 79.7731 72.7412 79.5615C72.5589 79.3467 72.2757 79.2393 71.8916 79.2393C71.387 79.2393 71.0143 79.3841 70.7734 79.6738C70.5326 79.9635 70.4121 80.4095 70.4121 81.0117V84H69.6016V80.5186C69.6016 80.0921 69.5104 79.7731 69.3281 79.5615C69.1458 79.3467 68.861 79.2393 68.4736 79.2393C67.9658 79.2393 67.5931 79.3923 67.3555 79.6982C67.1211 80.001 67.0039 80.499 67.0039 81.1924V84H66.1934V78.6484H66.8525L66.9844 79.3809H67.0234C67.1764 79.1204 67.3913 78.917 67.668 78.7705C67.9479 78.624 68.2604 78.5508 68.6055 78.5508C69.4421 78.5508 69.9889 78.8535 70.2461 79.459H70.2852C70.4447 79.179 70.6758 78.9577 70.9785 78.7949C71.2812 78.6322 71.6263 78.5508 72.0137 78.5508C72.6191 78.5508 73.0716 78.707 73.3711 79.0195C73.6738 79.3288 73.8252 79.8252 73.8252 80.5088V84H73.0146ZM78.1902 78.5605C78.8934 78.5605 79.4386 78.8014 79.826 79.2832C80.2166 79.7617 80.4119 80.4404 80.4119 81.3193C80.4119 82.1982 80.215 82.8818 79.8211 83.3701C79.4305 83.8551 78.8868 84.0977 78.1902 84.0977C77.8419 84.0977 77.5229 84.0342 77.2332 83.9072C76.9467 83.777 76.7059 83.5785 76.5105 83.3115H76.452L76.2811 84H75.7V76.4023H76.5105V78.248C76.5105 78.6615 76.4975 79.0326 76.4715 79.3613H76.5105C76.8882 78.8275 77.448 78.5605 78.1902 78.5605ZM78.073 79.2393C77.5197 79.2393 77.1209 79.3988 76.8768 79.7178C76.6326 80.0335 76.5105 80.5674 76.5105 81.3193C76.5105 82.0713 76.6359 82.61 76.8865 82.9355C77.1372 83.2578 77.5392 83.4189 78.0926 83.4189C78.5906 83.4189 78.9617 83.2383 79.2059 82.877C79.45 82.5124 79.5721 81.9899 79.5721 81.3096C79.5721 80.613 79.45 80.0938 79.2059 79.752C78.9617 79.4102 78.5841 79.2393 78.073 79.2393ZM84.2936 84.0977C83.5025 84.0977 82.8775 83.8568 82.4186 83.375C81.9628 82.8932 81.735 82.2243 81.735 81.3682C81.735 80.5055 81.9466 79.8203 82.3697 79.3125C82.7962 78.8047 83.3674 78.5508 84.0836 78.5508C84.7542 78.5508 85.2848 78.7721 85.6754 79.2148C86.066 79.6543 86.2613 80.2354 86.2613 80.958V81.4707H82.5748C82.5911 82.099 82.749 82.5758 83.0484 82.9014C83.3512 83.2269 83.776 83.3896 84.3229 83.3896C84.899 83.3896 85.4687 83.2692 86.0318 83.0283V83.751C85.7454 83.8747 85.4736 83.9626 85.2164 84.0146C84.9625 84.07 84.6549 84.0977 84.2936 84.0977ZM84.0738 79.2295C83.6441 79.2295 83.3007 79.3695 83.0436 79.6494C82.7896 79.9294 82.6399 80.3167 82.5943 80.8115H85.3922C85.3922 80.3005 85.2783 79.9098 85.0504 79.6396C84.8225 79.3662 84.497 79.2295 84.0738 79.2295ZM90.2895 78.5508C90.5271 78.5508 90.7403 78.5703 90.9291 78.6094L90.8168 79.3613C90.5954 79.3125 90.4001 79.2881 90.2309 79.2881C89.7979 79.2881 89.4268 79.4639 89.1176 79.8154C88.8116 80.167 88.6586 80.6048 88.6586 81.1289V84H87.848V78.6484H88.517L88.6098 79.6396H88.6488C88.8474 79.2913 89.0867 79.0228 89.3666 78.834C89.6465 78.6452 89.9542 78.5508 90.2895 78.5508Z" fill="#0BB3F3"/>
<path d="M50.8594 53.8438H51.9609V69.875H50.8594V53.8438Z" fill="#0BB3F3"/>
</svg>
