<svg width="16" height="16" viewBox="0 0 16 16" fill="none" xmlns="http://www.w3.org/2000/svg">
<path d="M11.4934 10.4008C11.3414 10.2485 11.1351 10.1629 10.9199 10.1629H10.6906C10.6279 10.1629 10.5677 10.1386 10.5225 10.0951C10.4301 10.006 10.4237 9.86054 10.5033 9.75978C11.2385 8.82889 11.6757 7.65546 11.6757 6.38569C11.6757 3.3723 9.23307 0.929688 6.21968 0.929688C3.20628 0.929688 0.763672 3.3723 0.763672 6.38569C0.763672 9.39909 3.20628 11.8417 6.21968 11.8417C7.48944 11.8417 8.66288 11.4045 9.59376 10.6693C9.69452 10.5898 9.83994 10.5961 9.92906 10.6885C9.97259 10.7337 9.99691 10.7939 9.99691 10.8566V11.0859C9.99691 11.3011 10.0825 11.5074 10.2348 11.6594L13.5679 14.9858C13.9137 15.3309 14.4737 15.3307 14.8192 14.9852C15.1646 14.6397 15.1649 14.0797 14.8198 13.7339L11.4934 10.4008ZM6.21968 10.1629C4.12961 10.1629 2.44244 8.47576 2.44244 6.38569C2.44244 4.29562 4.12961 2.60846 6.21968 2.60846C8.30975 2.60846 9.99691 4.29562 9.99691 6.38569C9.99691 8.47576 8.30975 10.1629 6.21968 10.1629Z" fill="#5F6062"/>
</svg>
