<svg width="30" height="30" viewBox="0 0 30 30" fill="none" xmlns="http://www.w3.org/2000/svg">
<rect width="30" height="30" rx="3" fill="url(#paint0_linear)"/>
<path d="M23.9808 13.9581H25.3846C24.8934 9.03446 20.9677 5.10812 16.0438 4.61719V6.02112C20.1977 6.50117 23.5003 9.80375 23.9808 13.9581Z" fill="white"/>
<path d="M6.01929 16.0469H4.61536C5.10664 20.9705 9.03228 24.8968 13.9563 25.3877V23.9839C9.80227 23.5037 6.49968 20.2012 6.01929 16.0469Z" fill="white"/>
<path d="M16.0438 23.9839V25.3877C20.9677 24.8968 24.8934 20.9705 25.3846 16.0469H23.9808C23.5003 20.2012 20.1977 23.5037 16.0438 23.9839Z" fill="white"/>
<path d="M13.9563 6.02112V4.61719C9.03228 5.10812 5.10664 9.03446 4.61536 13.9581H6.01929C6.49968 9.80375 9.80227 6.50117 13.9563 6.02112Z" fill="white"/>
<path d="M19.9519 13.9612H21.3605C20.9148 11.2397 18.7653 9.08993 16.0438 8.64453V10.0532C17.9982 10.4646 19.5401 12.0068 19.9519 13.9612Z" fill="white"/>
<path d="M10.0482 16.0469H8.63953C9.08528 18.7684 11.2347 20.9182 13.9562 21.3636V19.9549C12.0018 19.5435 10.46 18.0012 10.0482 16.0469Z" fill="white"/>
<path d="M16.0438 19.9549V21.3636C18.7653 20.9182 20.9147 18.7684 21.3604 16.0469H19.9518C19.54 18.0012 17.9981 19.5434 16.0438 19.9549Z" fill="white"/>
<path d="M10.0482 13.9612C10.46 12.0068 12.0019 10.4647 13.9562 10.0532V8.64453C11.2347 9.08993 9.08532 11.2397 8.63953 13.9612H10.0482Z" fill="white"/>
<path d="M17.309 16.0474C17.4537 15.7283 17.5386 15.3766 17.5386 15.0036C17.5386 14.6306 17.4537 14.2789 17.309 13.9598C17.0548 13.3988 16.6043 12.9487 16.0436 12.6945C15.7243 12.5501 15.3729 12.4648 14.9999 12.4648C14.6268 12.4648 14.2755 12.5501 13.9561 12.6945C13.3954 12.9487 12.945 13.3988 12.6908 13.9598C12.546 14.2789 12.4611 14.6306 12.4611 15.0036C12.4611 15.3766 12.546 15.7283 12.6908 16.0474C12.945 16.6084 13.3954 17.0585 13.9561 17.3127C14.2755 17.4571 14.6268 17.5424 14.9999 17.5424C15.3729 17.5424 15.7243 17.4571 16.0436 17.3127C16.6043 17.0585 17.0548 16.6084 17.309 16.0474Z" fill="white"/>
<defs>
<linearGradient id="paint0_linear" x1="15" y1="0" x2="15" y2="30" gradientUnits="userSpaceOnUse">
<stop stop-color="#0BB3F3"/>
<stop offset="1" stop-color="#037CC4"/>
</linearGradient>
</defs>
</svg>
