<svg width="30" height="30" viewBox="0 0 30 30" fill="none" xmlns="http://www.w3.org/2000/svg">
<rect width="30" height="30" rx="3" fill="url(#paint0_linear)"/>
<path d="M20.2735 13.9429C20.7215 13.9429 21.0848 13.5797 21.0848 13.1316C21.0848 12.6835 20.7215 12.3203 20.2735 12.3203C19.8254 12.3203 19.4622 12.6835 19.4622 13.1316C19.4622 13.5797 19.8254 13.9429 20.2735 13.9429Z" fill="white"/>
<path d="M22.1395 6.23978H21.0848V5.42849C21.0848 4.98041 20.7216 4.61719 20.2735 4.61719C19.8255 4.61719 19.4622 4.98041 19.4622 5.42849V6.23978H15.7708V5.42849C15.7708 4.98041 15.4076 4.61719 14.9595 4.61719C14.5114 4.61719 14.1482 4.98041 14.1482 5.42849V6.23978H10.4974V5.42849C10.4974 4.98041 10.1342 4.61719 9.68609 4.61719C9.23801 4.61719 8.87479 4.98041 8.87479 5.42849V6.23978H7.86067C6.07127 6.23978 4.61548 7.69558 4.61548 9.48498V22.1412C4.61548 23.9306 6.07127 25.3864 7.86067 25.3864H14.0671C14.5152 25.3864 14.8784 25.0232 14.8784 24.5751C14.8784 24.127 14.5152 23.7638 14.0671 23.7638H7.86067C6.96597 23.7638 6.23807 23.0359 6.23807 22.1412V9.48498C6.23807 8.59028 6.96597 7.86238 7.86067 7.86238H8.87479V8.67368C8.87479 9.12176 9.23801 9.48498 9.68609 9.48498C10.1342 9.48498 10.4974 9.12176 10.4974 8.67368V7.86238H14.1482V8.67368C14.1482 9.12176 14.5114 9.48498 14.9595 9.48498C15.4076 9.48498 15.7708 9.12176 15.7708 8.67368V7.86238H19.4622V8.67368C19.4622 9.12176 19.8255 9.48498 20.2735 9.48498C20.7216 9.48498 21.0848 9.12176 21.0848 8.67368V7.86238H22.1395C23.0342 7.86238 23.7621 8.59028 23.7621 9.48498V14.1094C23.7621 14.5575 24.1253 14.9207 24.5734 14.9207C25.0215 14.9207 25.3847 14.5575 25.3847 14.1094V9.48498C25.3847 7.69558 23.9289 6.23978 22.1395 6.23978Z" fill="white"/>
<path d="M20.4762 15.5703C17.7697 15.5703 15.5679 17.7722 15.5679 20.4787C15.5679 23.1852 17.7697 25.387 20.4762 25.387C23.1827 25.387 25.3846 23.1852 25.3846 20.4787C25.3846 17.7722 23.1827 15.5703 20.4762 15.5703ZM20.4762 23.7644C18.6645 23.7644 17.1905 22.2905 17.1905 20.4787C17.1905 18.6669 18.6645 17.1929 20.4762 17.1929C22.288 17.1929 23.762 18.6669 23.762 20.4787C23.762 22.2905 22.288 23.7644 20.4762 23.7644Z" fill="white"/>
<path d="M21.6527 19.6632H21.2876V18.8113C21.2876 18.3632 20.9244 18 20.4763 18C20.0283 18 19.665 18.3632 19.665 18.8113V20.4745C19.665 20.9225 20.0283 21.2858 20.4763 21.2858H21.6527C22.1008 21.2858 22.464 20.9225 22.464 20.4745C22.464 20.0264 22.1008 19.6632 21.6527 19.6632Z" fill="white"/>
<path d="M16.7444 13.9429C17.1925 13.9429 17.5557 13.5797 17.5557 13.1316C17.5557 12.6835 17.1925 12.3203 16.7444 12.3203C16.2963 12.3203 15.9331 12.6835 15.9331 13.1316C15.9331 13.5797 16.2963 13.9429 16.7444 13.9429Z" fill="white"/>
<path d="M13.2151 17.4781C13.6632 17.4781 14.0264 17.1148 14.0264 16.6668C14.0264 16.2187 13.6632 15.8555 13.2151 15.8555C12.767 15.8555 12.4038 16.2187 12.4038 16.6668C12.4038 17.1148 12.767 17.4781 13.2151 17.4781Z" fill="white"/>
<path d="M9.68605 13.9429C10.1341 13.9429 10.4974 13.5797 10.4974 13.1316C10.4974 12.6835 10.1341 12.3203 9.68605 12.3203C9.23799 12.3203 8.87476 12.6835 8.87476 13.1316C8.87476 13.5797 9.23799 13.9429 9.68605 13.9429Z" fill="white"/>
<path d="M9.68605 17.4781C10.1341 17.4781 10.4974 17.1148 10.4974 16.6668C10.4974 16.2187 10.1341 15.8555 9.68605 15.8555C9.23799 15.8555 8.87476 16.2187 8.87476 16.6668C8.87476 17.1148 9.23799 17.4781 9.68605 17.4781Z" fill="white"/>
<path d="M9.68605 21.0054C10.1341 21.0054 10.4974 20.6422 10.4974 20.1941C10.4974 19.746 10.1341 19.3828 9.68605 19.3828C9.23799 19.3828 8.87476 19.746 8.87476 20.1941C8.87476 20.6422 9.23799 21.0054 9.68605 21.0054Z" fill="white"/>
<path d="M13.2154 21.0054C13.6634 21.0054 14.0266 20.6422 14.0266 20.1941C14.0266 19.746 13.6634 19.3828 13.2154 19.3828C12.7673 19.3828 12.4041 19.746 12.4041 20.1941C12.4041 20.6422 12.7673 21.0054 13.2154 21.0054Z" fill="white"/>
<path d="M13.2151 13.9429C13.6632 13.9429 14.0264 13.5797 14.0264 13.1316C14.0264 12.6835 13.6632 12.3203 13.2151 12.3203C12.767 12.3203 12.4038 12.6835 12.4038 13.1316C12.4038 13.5797 12.767 13.9429 13.2151 13.9429Z" fill="white"/>
<defs>
<linearGradient id="paint0_linear" x1="15" y1="0" x2="15" y2="30" gradientUnits="userSpaceOnUse">
<stop stop-color="#0BB3F3"/>
<stop offset="1" stop-color="#037CC4"/>
</linearGradient>
</defs>
</svg>
