<svg width="80" height="80" viewBox="0 0 80 80" fill="none" xmlns="http://www.w3.org/2000/svg">
<circle cx="40" cy="40" r="40" fill="url(#paint0_linear)"/>
<path d="M59.2693 26.3566L46.7819 16.4183C45.4912 15.418 43.5552 16.3215 43.5552 17.9671V21.2906C43.5552 22.3555 42.8453 23.2912 41.7804 23.2912H21.936C20.8712 23.2912 20 24.0656 20 25.1627V30.39C20 31.4226 20.8712 32.3261 21.936 32.3261H41.7804C42.8453 32.3261 43.5552 33.1653 43.5552 34.2298V37.5534C43.5552 39.1667 45.4912 40.0702 46.7496 39.0699L59.2048 29.3897C60.2374 28.6476 60.2696 27.131 59.2693 26.3566Z" fill="white"/>
<path d="M20.7307 51.992L33.2181 61.9304C34.5088 62.9306 36.4448 62.0272 36.4448 60.3815L36.4448 57.058C36.4448 55.9932 37.1547 55.0574 38.2196 55.0574L58.064 55.0574C59.1288 55.0574 60 54.283 60 53.1859L60 47.9586C60 46.926 59.1288 46.0226 58.064 46.0226L38.2196 46.0226C37.1547 46.0226 36.4448 45.1833 36.4448 44.1188L36.4448 40.7953C36.4448 39.1819 34.5088 38.2784 33.2504 39.2787L20.7952 48.9589C19.7626 49.701 19.7304 51.2176 20.7307 51.992Z" fill="white"/>
<defs>
<linearGradient id="paint0_linear" x1="40" y1="0" x2="40" y2="80" gradientUnits="userSpaceOnUse">
<stop stop-color="#0BB3F3"/>
</linearGradient>
</defs>
</svg>
