<svg width="18" height="18" viewBox="0 0 18 18" fill="none" xmlns="http://www.w3.org/2000/svg">
<path d="M16.5436 4.64771L14.3371 3.66619L13.3548 1.45891L10.9536 1.70968L9.00002 0.292969L7.04534 1.70968L4.64527 1.45891L3.66361 3.6652L1.45633 4.64771L1.70724 7.04892L0.290527 9.00246L1.70724 10.9571L1.45633 13.3572L3.66276 14.3387L4.64527 16.546L7.04648 16.2952L9.00002 17.7119L10.9547 16.2952L13.3548 16.546L14.3363 14.3396L16.5436 13.3572L16.2927 10.956L17.7095 9.00246L16.2927 7.04778L16.5436 4.64771ZM7.25812 12.4863L4.79326 10.0214L5.61488 9.20276L7.25812 10.843L12.1847 5.91643L13.0063 6.73791L7.25812 12.4863Z" fill="url(#paint0_linear)"/>
<path d="M17.9446 8.82955L16.5928 6.96476L16.8324 4.67455C16.8454 4.54937 16.7765 4.43016 16.6616 4.37898L14.5575 3.44269L13.6212 1.33846C13.5697 1.22378 13.4507 1.15503 13.3256 1.1675L11.035 1.40693L9.17034 0.0552848C9.0687 -0.0184283 8.9312 -0.0184283 8.82956 0.0552848L6.96476 1.40693L4.67426 1.1675C4.54938 1.15559 4.43073 1.2242 4.3787 1.33818L3.4424 3.4424L1.33818 4.37898C1.22335 4.43002 1.15446 4.54923 1.1675 4.67426L1.40693 6.96476L0.0552848 8.82955C-0.0184283 8.93119 -0.0184283 9.0687 0.0552848 9.17034L1.40693 11.035L1.1675 13.3256C1.15432 13.4507 1.22321 13.57 1.33818 13.6212L3.4424 14.5575L4.3787 16.6617C4.43044 16.776 4.54923 16.8447 4.67426 16.8327L6.96476 16.5931L8.82956 17.9449C8.9312 18.0186 9.0687 18.0186 9.17034 17.9449L11.035 16.5931L13.3256 16.8327C13.4507 16.8453 13.5696 16.7765 13.6212 16.662L14.5575 14.5578L16.6616 13.6212C16.7764 13.57 16.8453 13.4509 16.8324 13.3259L16.5928 11.0353L17.9446 9.17062C18.0185 9.06898 18.0185 8.93119 17.9446 8.82955ZM16.0576 10.7842C16.0155 10.8422 15.9963 10.9137 16.0038 10.9848L16.2326 13.1761L14.2193 14.0724C14.1535 14.1013 14.1008 14.1538 14.0717 14.2195L13.1761 16.2329L10.9842 16.0038C10.9131 15.9965 10.8418 16.0157 10.7839 16.0578L8.99995 17.3509L7.21566 16.0578C7.16619 16.0217 7.10665 16.0023 7.04556 16.0024C7.03535 16.0024 7.02514 16.0024 7.0165 16.0038L4.82452 16.2329L3.92891 14.2195C3.89971 14.1538 3.84726 14.1012 3.78148 14.072L1.76699 13.1761L1.99578 10.9848C2.00315 10.9137 1.98402 10.8422 1.94206 10.7842L0.648959 8.99995L1.94206 7.21566C1.98402 7.15768 2.00315 7.08624 1.99578 7.01508L1.76699 4.82367L3.78035 3.92749C3.84612 3.89857 3.89872 3.84612 3.92778 3.78035L4.82339 1.76699L7.01536 1.99607C7.08638 2.00315 7.15769 1.98388 7.21566 1.94206L8.99995 0.648959L10.7842 1.94206C10.8421 1.98402 10.9134 2.00315 10.9845 1.99607L13.1764 1.76699L14.072 3.78035C14.1012 3.84612 14.1538 3.89857 14.2195 3.92777L16.2329 4.82367L16.0041 7.01508C15.9966 7.08624 16.0157 7.15768 16.0578 7.21566L17.3508 8.99995L16.0576 10.7842Z" fill="#0BB3F3"/>
<defs>
<linearGradient id="paint0_linear" x1="9.00002" y1="0.292969" x2="9.00002" y2="17.7119" gradientUnits="userSpaceOnUse">
<stop stop-color="#0BB3F3"/>
<stop offset="1" stop-color="#037CC4"/>
</linearGradient>
</defs>
</svg>
