<svg width="16" height="15" viewBox="0 0 16 15" fill="none" xmlns="http://www.w3.org/2000/svg">
<path d="M15.5 2.00067H9V0.500674C9 0.351674 8.934 0.210674 8.819 0.115674C8.705 0.0206738 8.552 -0.0203262 8.408 0.00967375L0.408 1.50967C0.171 1.55367 0 1.75967 0 2.00067V13.0007C0 13.2407 0.171 13.4477 0.408 13.4917L8.408 14.9917C8.438 14.9977 8.469 15.0007 8.5 15.0007C8.616 15.0007 8.729 14.9607 8.819 14.8857C8.934 14.7907 9 14.6487 9 14.5007V13.0007H15.5C15.776 13.0007 16 12.7767 16 12.5007V2.50067C16 2.22467 15.776 2.00067 15.5 2.00067ZM6.876 9.17167C7.058 9.37867 7.037 9.69467 6.829 9.87667C6.734 9.95967 6.617 10.0007 6.5 10.0007C6.361 10.0007 6.223 9.94267 6.124 9.82967L4.67 8.16867L3.395 9.80867C3.296 9.93467 3.148 10.0007 3 10.0007C2.893 10.0007 2.785 9.96667 2.693 9.89567C2.475 9.72567 2.436 9.41167 2.605 9.19367L3.999 7.40167L2.624 5.82967C2.442 5.62267 2.463 5.30667 2.671 5.12467C2.878 4.94267 3.193 4.96267 3.377 5.17167L4.625 6.59767L6.106 4.69367C6.276 4.47667 6.59 4.43667 6.808 4.60667C7.026 4.77567 7.065 5.08967 6.895 5.30867L5.295 7.36467L6.876 9.17167ZM15 12.0007H9V11.0007H10.5C10.776 11.0007 11 10.7767 11 10.5007C11 10.2247 10.776 10.0007 10.5 10.0007H9V9.00067H10.5C10.776 9.00067 11 8.77667 11 8.50067C11 8.22467 10.776 8.00067 10.5 8.00067H9V7.00067H10.5C10.776 7.00067 11 6.77667 11 6.50067C11 6.22467 10.776 6.00067 10.5 6.00067H9V5.00067H10.5C10.776 5.00067 11 4.77667 11 4.50067C11 4.22467 10.776 4.00067 10.5 4.00067H9V3.00067H15V12.0007Z" fill="#2E7D32"/>
</svg>
