<svg width="50" height="51" viewBox="0 0 50 51" fill="none" xmlns="http://www.w3.org/2000/svg">
<rect width="50" height="50.4382" rx="25" fill="#FFDB56"/>
<g clip-path="url(#clip0)">
<path d="M29.2476 26.9356C29.2844 26.5443 29.279 26.1489 29.2312 25.7588C29.1735 25.2898 29.0547 24.8353 28.8791 24.4042C28.8572 24.3505 28.8346 24.2971 28.811 24.2442C28.5483 23.6561 28.1776 23.1152 27.7085 22.6463C27.7018 22.6395 27.6949 22.6326 27.688 22.6259C27.3761 22.3173 27.035 22.0549 26.6738 21.8379L24.9992 23.4946C24.8449 23.6472 24.7443 23.8319 24.7007 24.0369C25.0673 24.156 25.4101 24.3562 25.6957 24.6388L25.7054 24.6485C26.1804 25.1235 26.4411 25.7563 26.4394 26.4305C26.4376 27.1046 26.1735 27.7361 25.6957 28.2088L19.9832 33.8604C18.9958 34.8372 17.3275 34.8372 16.3402 33.8604L16.3305 33.8507C15.8555 33.3758 15.5948 32.7429 15.5965 32.0687C15.5984 31.3946 15.8625 30.7631 16.3402 30.2905L19.6071 27.0585C19.2166 26.1949 19.0107 25.2501 19.0108 24.2731C19.0108 24.0586 19.021 23.8458 19.0406 23.635L14.3479 28.2775C13.3266 29.2879 12.7642 30.6367 12.7642 32.0754C12.7642 33.5046 13.319 34.8448 14.3274 35.8529C14.3342 35.8597 14.3411 35.8666 14.3479 35.8734C16.4509 37.9538 19.8725 37.9538 21.9755 35.8734L27.6881 30.2218C28.5796 29.3397 29.1214 28.1998 29.2447 26.9673L29.2476 26.9356Z" fill="white"/>
<path d="M22.0105 28.0715C22.3224 28.38 22.6635 28.6425 23.0247 28.8595L24.6994 27.2028C24.8536 27.0502 24.9543 26.8655 24.9978 26.6605C24.6312 26.5414 24.2884 26.3411 24.0028 26.0585L23.9931 26.0488C23.518 25.5738 23.2574 24.941 23.2591 24.2669C23.2609 23.5928 23.5251 22.9612 24.0028 22.4885L29.7154 16.837C30.7027 15.8602 32.371 15.8602 33.3583 16.837L33.3657 16.8444C33.843 17.3216 34.1037 17.9545 34.1019 18.6286C34.1001 19.3028 33.836 19.9342 33.3583 20.4069L30.0913 23.6389C30.4818 24.5026 30.6877 25.4474 30.6877 26.4243C30.6877 26.6388 30.6775 26.8516 30.6579 27.0624L35.3506 22.4198C36.3719 21.4095 36.9343 20.0607 36.9343 18.6219C36.9343 17.1929 36.3794 15.8526 35.3711 14.8445C35.3643 14.8377 35.3574 14.8308 35.3505 14.824C33.2476 12.7436 29.8259 12.7436 27.723 14.824L22.0105 20.4756C20.9892 21.486 20.4268 22.8349 20.4268 24.2736C20.4268 25.7027 20.9816 27.043 21.99 28.0511C21.9968 28.0578 22.0037 28.0647 22.0105 28.0715Z" fill="white"/>
</g>
<defs>
<clipPath id="clip0">
<rect width="24.1704" height="24.1704" fill="white" transform="translate(12.7642 13.2637)"/>
</clipPath>
</defs>
</svg>
