<svg width="50" height="50" viewBox="0 0 50 50" fill="none" xmlns="http://www.w3.org/2000/svg">
<path d="M47.2401 8.83612e-08H2.75764C1.23444 0.000763028 -0.000381381 1.23634 8.83612e-08 2.75993V47.2424C0.000763028 48.7656 1.23634 50.0004 2.75993 50H47.2401C48.764 50.0004 49.9996 48.7652 50 47.2412C50 47.2408 50 47.2404 50 47.2401V2.75764C49.9992 1.23444 48.7637 -0.000381381 47.2401 8.83612e-08Z" fill="#4267B2"/>
<path d="M34.5215 49.9996V30.6637H41.04L42.0166 23.0953H34.5215V18.275C34.5215 16.0888 35.1284 14.5992 38.2633 14.5992H42.2363V7.84833C41.5451 7.75639 39.1735 7.55078 36.414 7.55078C30.6522 7.55078 26.709 11.0664 26.709 17.5255V23.0953H20.2148V30.6637H26.709V49.9996H34.5215Z" fill="white"/>
</svg>
