<svg width="50" height="50" viewBox="0 0 50 50" fill="none" xmlns="http://www.w3.org/2000/svg">
<path d="M25 50C38.8071 50 50 38.8071 50 25C50 11.1929 38.8071 0 25 0C11.1929 0 0 11.1929 0 25C0 38.8071 11.1929 50 25 50Z" fill="#5F98D1"/>
<path d="M40.6068 14.4004H9.33188L20.6619 26.1979L23.9314 29.5084C22.1525 29.1018 22.0424 28.8483 21.2542 28.2048C20.8407 27.8672 20.0418 26.9497 18.8286 25.7106C15.0414 21.8434 8.61499 15.2811 8.61499 15.2811V34.6973L9.42212 35.5044L9.33179 35.5984L23.6993 49.9659C24.1301 49.988 24.5637 49.9994 25 49.9994C38.8072 49.9994 50 38.8065 50 24.9994C50 24.5848 49.9893 24.1727 49.9695 23.763L40.6068 14.4004Z" fill="#3A6DA1"/>
<path d="M8.61499 15.2832V34.6994L18.0835 24.9521L8.61499 15.2832Z" fill="white"/>
<path d="M41.3851 15.2832V34.6994L31.9636 24.9913L41.3851 15.2832Z" fill="white"/>
<path d="M9.33191 14.4023H40.6068L28.3153 27.201C27.4405 28.1118 26.2322 28.6267 24.9694 28.6267C23.7066 28.6267 22.4983 28.1118 21.6235 27.201L9.33191 14.4023Z" fill="white"/>
<path d="M29.0244 27.8817C27.9698 28.9798 26.4919 29.6097 24.9694 29.6097C23.447 29.6097 21.969 28.98 20.9145 27.8818L18.8297 25.7109L9.33191 35.6003H40.6068L31.1092 25.7109L29.0244 27.8817Z" fill="white"/>
</svg>
