<svg width="50" height="41" viewBox="0 0 50 41" fill="none" xmlns="http://www.w3.org/2000/svg">
<path d="M50 4.80938C48.1406 5.625 46.1594 6.16562 44.0938 6.42812C46.2188 5.15937 47.8406 3.16562 48.6031 0.7625C46.6219 1.94375 44.4344 2.77813 42.1031 3.24375C40.2219 1.24063 37.5406 0 34.6156 0C28.9406 0 24.3719 4.60625 24.3719 10.2531C24.3719 11.0656 24.4406 11.8469 24.6094 12.5906C16.0875 12.175 8.54688 8.09063 3.48125 1.86875C2.59687 3.40313 2.07812 5.15938 2.07812 7.05C2.07812 10.6 3.90625 13.7469 6.63125 15.5687C4.98438 15.5375 3.36875 15.0594 2 14.3063C2 14.3375 2 14.3781 2 14.4187C2 19.4 5.55312 23.5375 10.2125 24.4906C9.37812 24.7188 8.46875 24.8281 7.525 24.8281C6.86875 24.8281 6.20625 24.7906 5.58437 24.6531C6.9125 28.7125 10.6813 31.6969 15.1625 31.7937C11.675 34.5219 7.24688 36.1656 2.45312 36.1656C1.6125 36.1656 0.80625 36.1281 0 36.025C4.54062 38.9531 9.92188 40.625 15.725 40.625C34.5875 40.625 44.9 25 44.9 11.4562C44.9 11.0031 44.8844 10.5656 44.8625 10.1313C46.8969 8.6875 48.6063 6.88438 50 4.80938Z" fill="#03A9F4"/>
</svg>
