<svg width="56" height="56" viewBox="0 0 56 56" fill="none" xmlns="http://www.w3.org/2000/svg">
<mask id="mask0" mask-type="alpha" maskUnits="userSpaceOnUse" x="0" y="0" width="56" height="56">
<circle cx="28" cy="28" r="28" fill="#C4C4C4"/>
</mask>
<g mask="url(#mask0)">
<path d="M58 -2H0V56H58V-2Z" fill="#1BD741"/>
<path d="M8.71704 47.3051L11.558 37.2148C9.73111 34.1111 8.76922 30.5798 8.76922 26.9522C8.76922 15.7825 17.8564 6.69531 29.0261 6.69531C40.1958 6.69531 49.2828 15.7825 49.2828 26.9522C49.2828 38.1219 40.1958 47.2091 29.0261 47.2091C25.5457 47.2091 22.1377 46.3182 19.1229 44.6265L8.71704 47.3051ZM19.6548 40.9412L20.2749 41.3199C22.9035 42.9246 25.9297 43.7728 29.0261 43.7728C38.301 43.7728 45.8466 36.2271 45.8466 26.9522C45.8466 17.6773 38.301 10.1316 29.0261 10.1316C19.7512 10.1316 12.2055 17.6773 12.2055 26.9522C12.2055 30.1839 13.124 33.3222 14.8614 36.0278L15.279 36.678L13.643 42.4888L19.6548 40.9412Z" fill="white"/>
<path d="M23.3357 17.5252L22.0212 17.4536C21.6084 17.431 21.2034 17.569 20.8913 17.8401C20.2541 18.3934 19.2352 19.4632 18.9223 20.8573C18.4556 22.936 19.1768 25.4814 21.0434 28.0267C22.9101 30.5721 26.3887 34.6447 32.5399 36.384C34.5221 36.9445 36.0814 36.5667 37.2845 35.7971C38.2374 35.1876 38.8942 34.2093 39.1309 33.1033L39.3408 32.1231C39.4075 31.8116 39.2493 31.4954 38.9599 31.362L34.5176 29.3144C34.2292 29.1816 33.8872 29.2656 33.6932 29.5169L31.9493 31.7777C31.8176 31.9485 31.592 32.0162 31.3884 31.9447C30.1941 31.5249 26.1936 29.8495 23.9985 25.6211C23.9033 25.4377 23.9269 25.2151 24.062 25.0587L25.7287 23.1306C25.899 22.9337 25.942 22.6569 25.8397 22.4176L23.9248 17.9377C23.8228 17.6992 23.5944 17.5393 23.3357 17.5252Z" fill="white"/>
</g>
</svg>
