<svg width="60" height="61" viewBox="0 0 60 61" fill="none" xmlns="http://www.w3.org/2000/svg">
<rect width="60" height="60.9231" rx="6" fill="white"/>
<path d="M18.2362 24.4099C19.0474 24.4099 19.7068 23.7505 19.7068 22.9393V21.4688H16.7656V22.9393C16.7656 23.7505 17.425 24.4099 18.2362 24.4099Z" fill="url(#paint0_linear)"/>
<path d="M22.9413 24.4099C23.7525 24.4099 24.4119 23.7505 24.4119 22.9393V21.4688H21.4707V22.9393C21.4707 23.7505 22.1301 24.4099 22.9413 24.4099Z" fill="url(#paint1_linear)"/>
<path d="M27.5879 36.2804C28.9847 36.4292 30.3121 36.9312 31.4702 37.7544V32.7129C30.3122 33.5361 28.9847 34.0381 27.5879 34.1869V36.2804Z" fill="url(#paint2_linear)"/>
<path d="M22.8828 35.2323C22.8828 36.0432 23.5425 36.7029 24.3534 36.7029H25.824V33.7617H24.3534C23.5425 33.7617 22.8828 34.4214 22.8828 35.2323Z" fill="url(#paint3_linear)"/>
<path d="M27.6464 24.4099C28.4575 24.4099 29.117 23.7505 29.117 22.9393V21.4688H26.1758V22.9393C26.1758 23.7505 26.8352 24.4099 27.6464 24.4099Z" fill="url(#paint4_linear)"/>
<path d="M32.3534 24.4099C33.1646 24.4099 33.824 23.7505 33.824 22.9393V21.4688H30.8828V22.9393C30.8828 23.7505 31.5422 24.4099 32.3534 24.4099Z" fill="url(#paint5_linear)"/>
<path d="M25.9935 15H17.6471C16.1876 15 15 16.1876 15 17.6471V19.7124H32.12L25.9935 15Z" fill="url(#paint6_linear)"/>
<path d="M38.5291 22.9393V21.4688H35.5879V22.9393C35.5879 23.7505 36.2473 24.4099 37.0585 24.4099C37.8697 24.4099 38.5291 23.7505 38.5291 22.9393Z" fill="url(#paint7_linear)"/>
<path d="M43.2361 22.9393V21.4688H40.2949V22.9393C40.2949 23.7505 40.9543 24.4099 41.7655 24.4099C42.5767 24.4099 43.2361 23.7505 43.2361 22.9393Z" fill="url(#paint8_linear)"/>
<path d="M42.3528 15H28.8887L35.0146 19.7124H44.9998V17.6471C44.9998 16.1876 43.8122 15 42.3528 15Z" fill="url(#paint9_linear)"/>
<path d="M41.7647 26.1747C40.8382 26.1747 40.0023 25.783 39.4118 25.1565C38.1329 26.5131 35.9868 26.5153 34.7059 25.1565C33.427 26.5131 31.2809 26.5153 30 25.1565C28.7211 26.5131 26.5751 26.5153 25.2941 25.1565C24.0152 26.5131 21.8692 26.5153 20.5882 25.1565C19.9976 25.783 19.1618 26.1747 18.2353 26.1747C16.4512 26.1747 15 24.7236 15 22.9395V42.3512C15 43.8106 16.1876 44.9983 17.6471 44.9983H42.3529C43.8123 44.9983 45 43.8106 45 42.3512V22.9395C45 24.7236 43.5488 26.1747 41.7647 26.1747ZM19.7059 30.0571C19.7059 29.5698 20.1009 29.1747 20.5882 29.1747H21.5294C22.0167 29.1747 22.4118 29.5698 22.4118 30.0571C22.4118 30.5444 22.0167 30.9395 21.5294 30.9395H20.5882C20.1009 30.9395 19.7059 30.5444 19.7059 30.0571ZM33.2353 39.4689C33.2353 40.1902 32.4178 40.5995 31.8401 40.1869L30.4606 39.2016C29.5651 38.5619 28.5401 38.1673 27.4606 38.0419C27.3061 38.2975 27.0264 38.4689 26.7059 38.4689H24.716L25.2014 40.1676C25.362 40.73 24.9398 41.2926 24.3525 41.2926C23.9685 41.2926 23.6153 41.04 23.5045 40.6525L22.7605 38.0481C21.7806 37.4915 21.1176 36.4388 21.1176 35.2336C21.1176 33.4496 22.569 31.9983 24.3529 31.9983H26.7059C27.0264 31.9983 27.3061 32.1697 27.4606 32.4253C28.5401 32.2998 29.5652 31.9052 30.4606 31.2656L31.8401 30.2803C32.423 29.864 33.2353 30.2815 33.2353 30.9983V39.4689ZM35.0232 31.3156L36.4349 29.9038C36.7795 29.5592 37.3382 29.5592 37.6828 29.9038C38.0273 30.2484 38.0273 30.807 37.6828 31.1516L36.271 32.5634C35.9265 32.908 35.3678 32.908 35.0232 32.5634C34.6785 32.2188 34.6785 31.6601 35.0232 31.3156ZM37.6827 40.5633C37.3382 40.9079 36.7795 40.908 36.4349 40.5633L35.0231 39.1516C34.6785 38.807 34.6785 38.2483 35.0231 37.9037C35.3676 37.5592 35.9263 37.5592 36.2709 37.9037L37.6827 39.3155C38.0273 39.6601 38.0273 40.2188 37.6827 40.5633ZM38 36.1159H36.1176C35.6304 36.1159 35.2353 35.7209 35.2353 35.2336C35.2353 34.7463 35.6304 34.3512 36.1176 34.3512H38C38.4873 34.3512 38.8824 34.7463 38.8824 35.2336C38.8824 35.7209 38.4873 36.1159 38 36.1159Z" fill="url(#paint10_linear)"/>
<defs>
<linearGradient id="paint0_linear" x1="18.2362" y1="21.4688" x2="18.2362" y2="24.4099" gradientUnits="userSpaceOnUse">
<stop stop-color="#0BB3F3"/>
<stop offset="1" stop-color="#037CC4"/>
</linearGradient>
<linearGradient id="paint1_linear" x1="22.9413" y1="21.4688" x2="22.9413" y2="24.4099" gradientUnits="userSpaceOnUse">
<stop stop-color="#0BB3F3"/>
<stop offset="1" stop-color="#037CC4"/>
</linearGradient>
<linearGradient id="paint2_linear" x1="29.5291" y1="32.7129" x2="29.5291" y2="37.7544" gradientUnits="userSpaceOnUse">
<stop stop-color="#0BB3F3"/>
<stop offset="1" stop-color="#037CC4"/>
</linearGradient>
<linearGradient id="paint3_linear" x1="24.3534" y1="33.7617" x2="24.3534" y2="36.7029" gradientUnits="userSpaceOnUse">
<stop stop-color="#0BB3F3"/>
<stop offset="1" stop-color="#037CC4"/>
</linearGradient>
<linearGradient id="paint4_linear" x1="27.6464" y1="21.4688" x2="27.6464" y2="24.4099" gradientUnits="userSpaceOnUse">
<stop stop-color="#0BB3F3"/>
<stop offset="1" stop-color="#037CC4"/>
</linearGradient>
<linearGradient id="paint5_linear" x1="32.3534" y1="21.4688" x2="32.3534" y2="24.4099" gradientUnits="userSpaceOnUse">
<stop stop-color="#0BB3F3"/>
<stop offset="1" stop-color="#037CC4"/>
</linearGradient>
<linearGradient id="paint6_linear" x1="23.56" y1="15" x2="23.56" y2="19.7124" gradientUnits="userSpaceOnUse">
<stop stop-color="#0BB3F3"/>
<stop offset="1" stop-color="#037CC4"/>
</linearGradient>
<linearGradient id="paint7_linear" x1="37.0585" y1="21.4688" x2="37.0585" y2="24.4099" gradientUnits="userSpaceOnUse">
<stop stop-color="#0BB3F3"/>
<stop offset="1" stop-color="#037CC4"/>
</linearGradient>
<linearGradient id="paint8_linear" x1="41.7655" y1="21.4688" x2="41.7655" y2="24.4099" gradientUnits="userSpaceOnUse">
<stop stop-color="#0BB3F3"/>
<stop offset="1" stop-color="#037CC4"/>
</linearGradient>
<linearGradient id="paint9_linear" x1="36.9443" y1="15" x2="36.9443" y2="19.7124" gradientUnits="userSpaceOnUse">
<stop stop-color="#0BB3F3"/>
<stop offset="1" stop-color="#037CC4"/>
</linearGradient>
<linearGradient id="paint10_linear" x1="30" y1="22.9395" x2="30" y2="44.9983" gradientUnits="userSpaceOnUse">
<stop stop-color="#0BB3F3"/>
<stop offset="1" stop-color="#037CC4"/>
</linearGradient>
</defs>
</svg>
