<svg width="30" height="30" viewBox="0 0 30 30" fill="none" xmlns="http://www.w3.org/2000/svg">
<path d="M3.23524 9.41383C4.04641 9.41383 4.70582 8.75442 4.70582 7.94324V6.47266H1.76465V7.94324C1.76465 8.75442 2.42406 9.41383 3.23524 9.41383Z" fill="white"/>
<path d="M7.94129 9.41383C8.75247 9.41383 9.41188 8.75442 9.41188 7.94324V6.47266H6.4707V7.94324C6.4707 8.75442 7.13011 9.41383 7.94129 9.41383Z" fill="white"/>
<path d="M12.6473 9.41383C13.4585 9.41383 14.1179 8.75442 14.1179 7.94324V6.47266H11.1768V7.94324C11.1768 8.75442 11.8362 9.41383 12.6473 9.41383Z" fill="white"/>
<path d="M17.3534 9.41383C18.1646 9.41383 18.824 8.75442 18.824 7.94324V6.47266H15.8828V7.94324C15.8828 8.75442 16.5422 9.41383 17.3534 9.41383Z" fill="white"/>
<path d="M10.9935 0H2.64706C1.18765 0 0 1.18765 0 2.64706V4.71235H17.12L10.9935 0Z" fill="white"/>
<path d="M23.5296 7.94324V6.47266H20.5884V7.94324C20.5884 8.75442 21.2478 9.41383 22.059 9.41383C22.8701 9.41383 23.5296 8.75442 23.5296 7.94324Z" fill="white"/>
<path d="M28.2351 7.94324V6.47266H25.2939V7.94324C25.2939 8.75442 25.9534 9.41383 26.7645 9.41383C27.5757 9.41383 28.2351 8.75442 28.2351 7.94324Z" fill="white"/>
<path d="M27.3528 0H13.8887L20.0146 4.71235H29.9998V2.64706C29.9998 1.18765 28.8122 0 27.3528 0Z" fill="white"/>
<path d="M26.7647 11.1767C25.8382 11.1767 25.0023 10.7849 24.4118 10.1585C23.1329 11.5151 20.9868 11.5172 19.7059 10.1585C18.427 11.5151 16.2809 11.5172 15 10.1585C13.7211 11.5151 11.5751 11.5172 10.2941 10.1585C9.01523 11.5151 6.86918 11.5172 5.58823 10.1585C4.99765 10.7849 4.16176 11.1767 3.23529 11.1767C1.45118 11.1767 0 9.72552 0 7.94141V27.3532C0 28.8126 1.18765 30.0002 2.64706 30.0002H27.3529C28.8123 30.0002 30 28.8126 30 27.3532V7.94141C30 9.72552 28.5488 11.1767 26.7647 11.1767ZM4.70588 15.0591C4.70588 14.5718 5.10094 14.1767 5.58823 14.1767H6.52941C7.01671 14.1767 7.41176 14.5718 7.41176 15.0591C7.41176 15.5463 7.01671 15.9414 6.52941 15.9414H5.58823C5.10094 15.9414 4.70588 15.5463 4.70588 15.0591ZM18.2353 24.4708C18.2353 25.1921 17.4178 25.6015 16.8401 25.1888L15.4606 24.2035C14.5651 23.5639 13.5401 23.1693 12.4606 23.0438C12.3061 23.2994 12.0264 23.4708 11.7059 23.4708H9.716L10.2014 25.1696C10.362 25.7319 9.93976 26.2946 9.35247 26.2946C8.96853 26.2946 8.61529 26.042 8.50453 25.6544L7.76047 23.0501C6.78059 22.4934 6.11765 21.4408 6.11765 20.2355C6.11765 18.4516 7.569 17.0002 9.35294 17.0002H11.7059C12.0264 17.0002 12.3061 17.1716 12.4606 17.4272C13.5401 17.3018 14.5652 16.9072 15.4606 16.2675L16.8401 15.2822C17.423 14.8659 18.2353 15.2834 18.2353 16.0002V24.4708ZM20.0232 16.3175L21.4349 14.9058C21.7795 14.5612 22.3382 14.5612 22.6828 14.9058C23.0273 15.2503 23.0273 15.809 22.6828 16.1536L21.271 17.5653C20.9265 17.9099 20.3678 17.91 20.0232 17.5653C19.6785 17.2208 19.6785 16.6621 20.0232 16.3175ZM22.6827 25.5653C22.3382 25.9099 21.7795 25.9099 21.4349 25.5653L20.0231 24.1535C19.6785 23.8089 19.6785 23.2503 20.0231 22.9057C20.3676 22.5611 20.9263 22.5611 21.2709 22.9057L22.6827 24.3175C23.0273 24.6621 23.0273 25.2208 22.6827 25.5653ZM23 21.1179H21.1176C20.6304 21.1179 20.2353 20.7228 20.2353 20.2355C20.2353 19.7482 20.6304 19.3532 21.1176 19.3532H23C23.4873 19.3532 23.8824 19.7482 23.8824 20.2355C23.8824 20.7228 23.4873 21.1179 23 21.1179Z" fill="white"/>
</svg>
