<svg width="60" height="61" viewBox="0 0 60 61" fill="none" xmlns="http://www.w3.org/2000/svg">
<rect width="60" height="60.9231" rx="6" fill="white"/>
<path d="M44.6241 31.1704C45.168 30.5723 45.1154 29.6556 44.5069 29.1234L31.0995 17.3919C30.491 16.8597 29.5153 16.8709 28.9195 17.4171L15.4666 29.7489C14.8708 30.2951 14.8416 31.2106 15.4018 31.793L15.7391 32.1442C16.2987 32.7266 17.2032 32.796 17.758 32.2989L18.7634 31.3985V44.5801C18.7634 45.3888 19.4187 46.0435 20.2269 46.0435H25.4709C26.2791 46.0435 26.9344 45.3888 26.9344 44.5801V35.3583H33.6231V44.5801C33.6115 45.3882 34.1897 46.0429 34.9979 46.0429H40.5552C41.3634 46.0429 42.0187 45.3882 42.0187 44.5795V31.5841C42.0187 31.5841 42.2964 31.8274 42.639 32.1285C42.9809 32.429 43.6992 32.1881 44.243 31.5894L44.6241 31.1704Z" fill="url(#paint0_linear)"/>
<defs>
<linearGradient id="paint0_linear" x1="30" y1="17" x2="30" y2="46.0435" gradientUnits="userSpaceOnUse">
<stop stop-color="#0BB3F3"/>
<stop offset="1" stop-color="#037CC4"/>
</linearGradient>
</defs>
</svg>
