<svg width="30" height="30" viewBox="0 0 30 30" fill="none" xmlns="http://www.w3.org/2000/svg">
<path d="M29.6241 14.1704C30.168 13.5723 30.1154 12.6556 29.5069 12.1234L16.0995 0.39193C15.491 -0.140254 14.5153 -0.129105 13.9195 0.417063L0.466585 12.7489C-0.129164 13.2951 -0.158404 14.2106 0.401847 14.793L0.739131 15.1442C1.2987 15.7266 2.20317 15.796 2.75805 15.2989L3.76345 14.3985V27.5801C3.76345 28.3888 4.41875 29.0435 5.2269 29.0435H10.4709C11.2791 29.0435 11.9344 28.3888 11.9344 27.5801V18.3583H18.6231V27.5801C18.6115 28.3882 19.1897 29.0429 19.9979 29.0429H25.5552C26.3634 29.0429 27.0187 28.3882 27.0187 27.5795V14.5841C27.0187 14.5841 27.2964 14.8274 27.639 15.1285C27.9809 15.429 28.6992 15.1881 29.243 14.5894L29.6241 14.1704Z" fill="white"/>
</svg>
