<svg width="60" height="61" viewBox="0 0 60 61" fill="none" xmlns="http://www.w3.org/2000/svg">
<rect width="60" height="60.9231" rx="6" fill="white"/>
<path d="M33.1037 21.3332C34.4908 22.2029 35.4635 23.6747 35.6406 25.383C36.2063 25.6473 36.8341 25.7993 37.4998 25.7993C39.93 25.7993 41.8997 23.8297 41.8997 21.3999C41.8997 18.9697 39.93 17 37.4998 17C35.0928 17.0007 33.1404 18.9352 33.1037 21.3332ZM30.2213 30.3418C32.6514 30.3418 34.6211 28.3718 34.6211 25.942C34.6211 23.5122 32.6511 21.5425 30.2213 21.5425C27.7915 21.5425 25.8207 23.5125 25.8207 25.9423C25.8207 28.3721 27.7915 30.3418 30.2213 30.3418ZM32.0876 30.6417H28.3542C25.2478 30.6417 22.7207 33.1692 22.7207 36.2756V40.8413L22.7323 40.9128L23.0468 41.0112C26.0112 41.9375 28.5867 42.2464 30.7065 42.2464C34.8469 42.2464 37.2467 41.0659 37.3946 40.9906L37.6885 40.842H37.72V36.2756C37.7211 33.1692 35.1939 30.6417 32.0876 30.6417ZM39.3669 26.0996H35.6623C35.6222 27.5818 34.9895 28.9165 33.9888 29.8765C36.7499 30.6975 38.7701 33.258 38.7701 36.2823V37.6893C42.4279 37.5552 44.5358 36.5185 44.6747 36.4489L44.9686 36.2999H45V31.7327C45 28.6267 42.4729 26.0996 39.3669 26.0996ZM22.5009 25.8001C23.3617 25.8001 24.1625 25.5489 24.8409 25.1209C25.0565 23.7143 25.8106 22.4852 26.8877 21.6481C26.8922 21.5657 26.9 21.4841 26.9 21.401C26.9 18.9708 24.93 17.0011 22.5009 17.0011C20.0704 17.0011 18.1011 18.9708 18.1011 21.401C18.1011 23.83 20.0704 25.8001 22.5009 25.8001ZM26.4523 29.8765C25.4564 28.9214 24.8259 27.5938 24.7799 26.1206C24.6425 26.1104 24.5066 26.0996 24.3665 26.0996H20.6335C17.5271 26.0996 15 28.6267 15 31.7327V36.2991L15.0116 36.3695L15.3261 36.4687C17.7042 37.2112 19.8267 37.5534 21.6702 37.6612V36.2823C21.6709 33.258 23.6904 30.6982 26.4523 29.8765Z" fill="url(#paint0_linear)"/>
<defs>
<linearGradient id="paint0_linear" x1="30" y1="17" x2="30" y2="42.2464" gradientUnits="userSpaceOnUse">
<stop stop-color="#0BB3F3"/>
<stop offset="1" stop-color="#037CC4"/>
</linearGradient>
</defs>
</svg>
