<svg width="30" height="26" viewBox="0 0 30 26" fill="none" xmlns="http://www.w3.org/2000/svg">
<path d="M18.1037 4.37667C19.4908 5.24638 20.4635 6.71811 20.6406 8.42646C21.2063 8.69078 21.8341 8.84278 22.4998 8.84278C24.93 8.84278 26.8997 6.87311 26.8997 4.44331C26.8997 2.01313 24.93 0.043457 22.4998 0.043457C20.0928 0.0442058 18.1404 1.97869 18.1037 4.37667ZM15.2213 13.3853C17.6514 13.3853 19.6211 11.4152 19.6211 8.98543C19.6211 6.55563 17.6511 4.58595 15.2213 4.58595C12.7915 4.58595 10.8207 6.556 10.8207 8.9858C10.8207 11.4156 12.7915 13.3853 15.2213 13.3853ZM17.0876 13.6852H13.3542C10.2478 13.6852 7.7207 16.2127 7.7207 19.319V23.8847L7.73231 23.9562L8.0468 24.0547C11.0112 24.9809 13.5867 25.2898 15.7065 25.2898C19.8469 25.2898 22.2467 24.1094 22.3946 24.0341L22.6885 23.8855H22.72V19.319C22.7211 16.2127 20.1939 13.6852 17.0876 13.6852ZM24.3669 9.14305H20.6623C20.6222 10.6253 19.9895 11.96 18.9888 12.9199C21.7499 13.741 23.7701 16.3014 23.7701 19.3258V20.7327C27.4279 20.5987 29.5358 19.562 29.6747 19.4924L29.9685 19.3433H30V14.7761C30 11.6702 27.4729 9.14305 24.3669 9.14305ZM7.50094 8.84353C8.36166 8.84353 9.16249 8.59232 9.84088 8.16439C10.0565 6.7578 10.8106 5.52867 11.8877 4.69153C11.8922 4.60916 11.9 4.52755 11.9 4.44443C11.9 2.01425 9.92999 0.0445801 7.50094 0.0445801C5.07039 0.0445801 3.10109 2.01425 3.10109 4.44443C3.10109 6.87348 5.07039 8.84353 7.50094 8.84353ZM11.4523 12.9199C10.4564 11.9648 9.82591 10.6372 9.77986 9.16401C9.64246 9.1539 9.50655 9.14305 9.36653 9.14305H5.63347C2.52714 9.14305 0 11.6702 0 14.7761V19.3426L0.0116061 19.413L0.326095 19.5122C2.70423 20.2546 4.82666 20.5968 6.67016 20.7046V19.3258C6.67091 16.3014 8.69038 13.7417 11.4523 12.9199Z" fill="white"/>
</svg>
