<svg width="30" height="31" viewBox="0 0 30 31" fill="none" xmlns="http://www.w3.org/2000/svg">
<g clip-path="url(#clip0)">
<path d="M15 0.291016C6.7166 0.291016 0 7.00629 0 15.2904C0 23.5744 6.71594 30.2897 15 30.2897C23.2847 30.2897 30 23.5744 30 15.2904C30 7.00629 23.2847 0.291016 15 0.291016ZM15 4.77599C17.7409 4.77599 19.962 6.99773 19.962 9.73734C19.962 12.4776 17.7409 14.6987 15 14.6987C12.2604 14.6987 10.0393 12.4776 10.0393 9.73734C10.0393 6.99773 12.2604 4.77599 15 4.77599ZM14.9967 26.3681C12.263 26.3681 9.75929 25.3725 7.82812 23.7246C7.35768 23.3234 7.08623 22.735 7.08623 22.1176C7.08623 19.3392 9.33497 17.1154 12.1141 17.1154H17.8872C20.667 17.1154 22.9072 19.3392 22.9072 22.1176C22.9072 22.7357 22.637 23.3227 22.1659 23.724C20.2354 25.3725 17.731 26.3681 14.9967 26.3681Z" fill="white"/>
</g>
<defs>
<clipPath id="clip0">
<rect width="30" height="30" fill="white" transform="translate(0 0.290039)"/>
</clipPath>
</defs>
</svg>
