<svg width="60" height="61" viewBox="0 0 60 61" fill="none" xmlns="http://www.w3.org/2000/svg">
<rect width="60" height="60.9231" rx="6" fill="white"/>
<circle cx="30" cy="31" r="15" fill="url(#paint0_linear)"/>
<path d="M37.226 25.8837L32.5432 22.1569C32.0592 21.7817 31.3332 22.1206 31.3332 22.7377V23.984C31.3332 24.3833 31.067 24.7342 30.6677 24.7342H23.226C22.8267 24.7342 22.5 25.0246 22.5 25.436V27.3963C22.5 27.7835 22.8267 28.1223 23.226 28.1223H30.6677C31.067 28.1223 31.3332 28.437 31.3332 28.8362V30.0825C31.3332 30.6875 32.0592 31.0263 32.5311 30.6512L37.2018 27.0212C37.589 26.7428 37.6011 26.1741 37.226 25.8837Z" fill="white"/>
<path d="M22.774 35.4971L27.4568 39.224C27.9408 39.5991 28.6668 39.2603 28.6668 38.6432L28.6668 37.3969C28.6668 36.9976 28.933 36.6467 29.3323 36.6467L36.774 36.6467C37.1733 36.6467 37.5 36.3562 37.5 35.9448L37.5 33.9846C37.5 33.5974 37.1733 33.2586 36.774 33.2586L29.3323 33.2586C28.933 33.2586 28.6668 32.9439 28.6668 32.5447L28.6668 31.2983C28.6668 30.6933 27.9408 30.3545 27.4689 30.7296L22.7982 34.3597C22.411 34.638 22.3989 35.2067 22.774 35.4971Z" fill="white"/>
<defs>
<linearGradient id="paint0_linear" x1="30" y1="16" x2="30" y2="46" gradientUnits="userSpaceOnUse">
<stop stop-color="#0BB3F3"/>
<stop offset="1" stop-color="#037CC4"/>
</linearGradient>
</defs>
</svg>
