<svg width="30" height="31" viewBox="0 0 30 31" fill="none" xmlns="http://www.w3.org/2000/svg">
<circle cx="15" cy="15.0435" r="15" fill="white"/>
<path d="M22.226 9.92719L17.5432 6.20031C17.0592 5.8252 16.3332 6.16401 16.3332 6.78112V8.02745C16.3332 8.42676 16.067 8.77766 15.6677 8.77766H8.22601C7.82671 8.77766 7.5 9.06807 7.5 9.47948V11.4397C7.5 11.8269 7.82671 12.1657 8.22601 12.1657H15.6677C16.067 12.1657 16.3332 12.4805 16.3332 12.8796V14.126C16.3332 14.731 17.0592 15.0698 17.5311 14.6947L22.2018 11.0646C22.589 10.7863 22.6011 10.2176 22.226 9.92719Z" fill="#09A1E4"/>
<path d="M7.774 19.5401L12.4568 23.267C12.9408 23.6421 13.6668 23.3033 13.6668 22.6862L13.6668 21.4398C13.6668 21.0405 13.933 20.6896 14.3323 20.6896L21.774 20.6896C22.1733 20.6896 22.5 20.3992 22.5 19.9878L22.5 18.0276C22.5 17.6404 22.1733 17.3016 21.774 17.3016L14.3323 17.3016C13.933 17.3016 13.6668 16.9868 13.6668 16.5876L13.6668 15.3413C13.6668 14.7363 12.9408 14.3975 12.4689 14.7726L7.7982 18.4027C7.41099 18.681 7.39889 19.2497 7.774 19.5401Z" fill="#09A1E4"/>
</svg>
