<svg width="30" height="30" viewBox="0 0 30 30" fill="none" xmlns="http://www.w3.org/2000/svg">
<path d="M18.828 14.0585C18.828 16.1727 17.1141 17.8866 14.9999 17.8866C12.8857 17.8866 11.1719 16.1727 11.1719 14.0585C11.1719 11.9443 12.8857 10.2305 14.9999 10.2305C17.1141 10.2305 18.828 11.9443 18.828 14.0585Z" fill="white"/>
<path d="M28.9153 1.08421C28.2156 0.384979 27.2857 0 26.2969 0H3.70308C2.71431 0 1.78436 0.384979 1.08421 1.08467C0.384979 1.78459 0 2.71431 0 3.70308V7.46887C0 8.45764 0.384979 9.38736 1.08467 10.0877C1.78459 10.787 2.71431 11.1717 3.70308 11.1717H3.89076V4.70695C3.89076 4.22173 4.28421 3.82805 4.76967 3.82805H25.2306C25.7158 3.82805 26.1095 4.22173 26.1095 4.70695V11.1717H26.2969C27.2857 11.1717 28.2154 10.7867 28.9158 10.0871C29.615 9.38736 30 8.45741 30 7.46887V3.70308C30 2.71431 29.615 1.78459 28.9153 1.08421Z" fill="white"/>
<path d="M5.64844 27.2384C5.64844 27.9765 5.93591 28.67 6.45708 29.1905C6.97847 29.7126 7.67198 30.0001 8.41013 30.0001H21.5901C22.3282 30.0001 23.0217 29.7126 23.5422 29.1914C24.064 28.67 24.3515 27.9765 24.3515 27.2384V5.58594H5.64844V27.2384ZM15.0001 8.47282C18.0802 8.47282 20.586 10.9786 20.586 14.0587C20.586 17.1387 18.0802 19.6445 15.0001 19.6445C11.92 19.6445 9.41423 17.1387 9.41423 14.0587C9.41423 10.9786 11.92 8.47282 15.0001 8.47282ZM10.2931 23.5353H19.707C20.1925 23.5353 20.586 23.9288 20.586 24.4142C20.586 24.8994 20.1925 25.2931 19.707 25.2931H10.2931C9.80768 25.2931 9.41423 24.8994 9.41423 24.4142C9.41423 23.9288 9.80768 23.5353 10.2931 23.5353Z" fill="white"/>
</svg>
