<svg width="60" height="61" viewBox="0 0 60 61" fill="none" xmlns="http://www.w3.org/2000/svg">
<rect width="60" height="60.9231" rx="6" fill="white"/>
<path d="M33.828 29.0585C33.828 31.1727 32.1141 32.8866 29.9999 32.8866C27.8857 32.8866 26.1719 31.1727 26.1719 29.0585C26.1719 26.9443 27.8857 25.2305 29.9999 25.2305C32.1141 25.2305 33.828 26.9443 33.828 29.0585Z" fill="url(#paint0_linear)"/>
<path d="M43.9153 16.0842C43.2156 15.385 42.2857 15 41.2969 15H18.7031C17.7143 15 16.7844 15.385 16.0842 16.0847C15.385 16.7846 15 17.7143 15 18.7031V22.4689C15 23.4576 15.385 24.3874 16.0847 25.0877C16.7846 25.787 17.7143 26.1717 18.7031 26.1717H18.8908V19.707C18.8908 19.2217 19.2842 18.828 19.7697 18.828H40.2306C40.7158 18.828 41.1095 19.2217 41.1095 19.707V26.1717H41.2969C42.2857 26.1717 43.2154 25.7867 43.9158 25.0871C44.615 24.3874 45 23.4574 45 22.4689V18.7031C45 17.7143 44.615 16.7846 43.9153 16.0842V16.0842Z" fill="url(#paint1_linear)"/>
<path d="M20.6484 42.2384C20.6484 42.9765 20.9359 43.67 21.4571 44.1905C21.9785 44.7126 22.672 45.0001 23.4101 45.0001H36.5901C37.3282 45.0001 38.0217 44.7126 38.5422 44.1914C39.064 43.67 39.3515 42.9765 39.3515 42.2384V20.5859H20.6484V42.2384ZM30.0001 23.4728C33.0802 23.4728 35.586 25.9786 35.586 29.0587C35.586 32.1387 33.0802 34.6445 30.0001 34.6445C26.92 34.6445 24.4142 32.1387 24.4142 29.0587C24.4142 25.9786 26.92 23.4728 30.0001 23.4728ZM25.2931 38.5353H34.707C35.1925 38.5353 35.586 38.9288 35.586 39.4142C35.586 39.8994 35.1925 40.2931 34.707 40.2931H25.2931C24.8077 40.2931 24.4142 39.8994 24.4142 39.4142C24.4142 38.9288 24.8077 38.5353 25.2931 38.5353V38.5353Z" fill="url(#paint2_linear)"/>
<defs>
<linearGradient id="paint0_linear" x1="29.9999" y1="25.2305" x2="29.9999" y2="32.8866" gradientUnits="userSpaceOnUse">
<stop stop-color="#0BB3F3"/>
<stop offset="1" stop-color="#037CC4"/>
</linearGradient>
<linearGradient id="paint1_linear" x1="30" y1="15" x2="30" y2="26.1717" gradientUnits="userSpaceOnUse">
<stop stop-color="#0BB3F3"/>
<stop offset="1" stop-color="#037CC4"/>
</linearGradient>
<linearGradient id="paint2_linear" x1="30" y1="20.5859" x2="30" y2="45.0001" gradientUnits="userSpaceOnUse">
<stop stop-color="#0BB3F3"/>
<stop offset="1" stop-color="#037CC4"/>
</linearGradient>
</defs>
</svg>
